<svg width="37" height="32" viewBox="0 0 37 32" fill="none" xmlns="http://www.w3.org/2000/svg">
<g clip-path="url(#clip0_31_2677)" filter="url(#filter0_d_31_2677)">
<path d="M27.5543 6.17188C27.0918 6.17188 26.7168 6.53962 26.7168 6.99326V17.0063C26.7168 17.4599 27.0918 17.8277 27.5543 17.8277C28.0168 17.8277 28.3918 17.4599 28.3918 17.0063V6.99326C28.3918 6.53962 28.0168 6.17188 27.5543 6.17188Z" fill="#D03FC2"/>
<path d="M8.83749 6.17212C8.37496 6.17212 8 6.53986 8 6.9935V17.0065C8 17.4602 8.37496 17.8279 8.83749 17.8279C9.30002 17.8279 9.67498 17.4602 9.67498 17.0065V6.9935C9.67498 6.53986 9.30002 6.17212 8.83749 6.17212Z" fill="#D03FC2"/>
<path d="M24.5767 4.9209H11.815C11.3525 4.9209 10.9775 5.28864 10.9775 5.74228V18.2586C10.9775 18.7122 11.3525 19.08 11.815 19.08H24.5767C25.0393 19.08 25.4142 18.7122 25.4142 18.2586V5.74228C25.4142 5.28864 25.0392 4.9209 24.5767 4.9209ZM21.9227 10.2817C21.7159 10.6875 21.2129 10.8518 20.7991 10.6491L19.4588 9.99176V13.6692C19.4588 15.0423 18.3198 16.1594 16.9197 16.1594C15.5197 16.1595 14.3807 15.0424 14.3807 13.6693C14.3807 12.2962 15.5197 11.1791 16.9197 11.1791H17.7838V8.66277C17.7838 8.05228 18.44 7.65559 18.9958 7.9281L21.5482 9.17973C21.9618 9.38257 22.1295 9.87595 21.9227 10.2817Z" fill="#D03FC2"/>
</g>
<defs>
<filter id="filter0_d_31_2677" x="0" y="-2" width="36.3921" height="36" filterUnits="userSpaceOnUse" color-interpolation-filters="sRGB">
<feFlood flood-opacity="0" result="BackgroundImageFix"/>
<feColorMatrix in="SourceAlpha" type="matrix" values="0 0 0 0 0 0 0 0 0 0 0 0 0 0 0 0 0 0 127 0" result="hardAlpha"/>
<feOffset dy="4"/>
<feGaussianBlur stdDeviation="4"/>
<feComposite in2="hardAlpha" operator="out"/>
<feColorMatrix type="matrix" values="0 0 0 0 0 0 0 0 0 0 0 0 0 0 0 0 0 0 0.5 0"/>
<feBlend mode="normal" in2="BackgroundImageFix" result="effect1_dropShadow_31_2677"/>
<feBlend mode="normal" in="SourceGraphic" in2="effect1_dropShadow_31_2677" result="shape"/>
</filter>
<clipPath id="clip0_31_2677">
<rect width="20.3922" height="20" fill="white" transform="translate(8 2)"/>
</clipPath>
</defs>
</svg>
