<svg width="40" height="40" viewBox="0 0 40 40" fill="none" xmlns="http://www.w3.org/2000/svg">
<path d="M34.0364 5.005C33.608 5.025 33.2045 5.1505 32.8459 5.291H32.8409C32.4772 5.4365 30.7489 6.169 28.1239 7.27767C25.4989 8.39133 22.0919 9.83633 18.7097 11.2712C11.9554 14.1358 5.31568 16.9553 5.31568 16.9553L5.39535 16.9252C5.39535 16.9252 4.93702 17.0757 4.45885 17.4068C4.21485 17.5673 3.94585 17.7882 3.71168 18.1343C3.47752 18.4805 3.28835 19.0123 3.35802 19.5592C3.47252 20.4873 4.07035 21.0442 4.49868 21.3502C4.93202 21.6612 5.34552 21.8067 5.34552 21.8067H5.35552L11.5819 23.9188C11.8609 24.8218 13.4797 30.1798 13.8682 31.414C14.0974 32.1515 14.3215 32.613 14.6004 32.9642C14.7348 33.1448 14.8942 33.2953 15.0835 33.4157C15.1582 33.4608 15.2379 33.496 15.3177 33.526C15.3425 33.541 15.3675 33.546 15.3974 33.5512L15.3325 33.5362C15.3525 33.5412 15.3674 33.5562 15.3823 33.5612C15.4322 33.5762 15.467 33.5812 15.5319 33.5913C16.518 33.8923 17.31 33.2753 17.31 33.2753L17.3549 33.2402L20.1724 30.6562C20.6692 30.2005 21.4189 30.1687 21.952 30.5807L27.1924 34.6298L27.3319 34.69C28.617 35.2568 29.917 34.9408 30.6044 34.384C31.2967 33.8222 31.5657 33.1047 31.5657 33.1047L31.6105 32.9893L36.3724 8.42183C36.5069 7.81483 36.5417 7.24783 36.3924 6.696C36.2429 6.14417 35.8594 5.62733 35.3962 5.3515C34.9279 5.07017 34.4647 4.985 34.0364 5.005ZM33.9069 7.63883C33.9019 7.71917 33.9169 7.709 33.882 7.86467V7.87967L29.165 32.1913C29.145 32.2265 29.1102 32.3017 29.0155 32.377C28.9159 32.4573 28.8362 32.5075 28.4229 32.3418L22.7987 27.9988C21.692 27.1442 20.1365 27.2108 19.1057 28.157L16.3338 30.7013L17.2902 24.5507L25.1047 17.0548C25.8754 16.3155 24.951 15.0805 24.034 15.6248C19.3717 18.3922 13.649 21.9318 13.649 21.9318L13.644 21.9068L6.20235 19.3833V19.3783C6.19735 19.3783 6.18735 19.3733 6.18235 19.3733C6.18735 19.3733 6.22218 19.3583 6.22218 19.3583L6.26202 19.3383L6.30185 19.3233C6.30185 19.3233 12.9465 16.5038 19.7009 13.6392C23.083 12.2043 26.49 10.7595 29.11 9.64567C31.73 8.537 33.6677 7.72417 33.7772 7.679C33.8819 7.63883 33.832 7.63883 33.9069 7.63883Z" fill="#212121"/>
</svg>
