<svg width="14" height="14" viewBox="0 0 14 14" fill="none" xmlns="http://www.w3.org/2000/svg">
<path fill-rule="evenodd" clip-rule="evenodd" d="M7 13C7 13 12 9.72727 12 5.90909C12 4.60712 11.4732 3.35847 10.5355 2.43784C9.59785 1.51721 8.32608 1 7 1C5.67392 1 4.40215 1.51721 3.46447 2.43784C2.52678 3.35847 2 4.60712 2 5.90909C2 9.72727 7 13 7 13ZM9 6C9 7.10457 8.10457 8 7 8C5.89543 8 5 7.10457 5 6C5 4.89543 5.89543 4 7 4C8.10457 4 9 4.89543 9 6Z" fill="#77C149"/>
<path fill-rule="evenodd" clip-rule="evenodd" d="M7 13C7 13 12 9.72727 12 5.90909C12 4.60712 11.4732 3.35847 10.5355 2.43784C9.59785 1.51721 8.32608 1 7 1C5.67392 1 4.40215 1.51721 3.46447 2.43784C2.52678 3.35847 2 4.60712 2 5.90909C2 9.72727 7 13 7 13ZM9 6C9 7.10457 8.10457 8 7 8C5.89543 8 5 7.10457 5 6C5 4.89543 5.89543 4 7 4C8.10457 4 9 4.89543 9 6Z" fill="#77C149"/>
</svg>
