<svg width="160" height="40" viewBox="0 0 160 40" fill="none" xmlns="http://www.w3.org/2000/svg">
<g clip-path="url(#clip0_1471_17686)">
<path fill-rule="evenodd" clip-rule="evenodd" d="M119.428 35.39C119.835 35.387 119.945 35.5209 119.938 35.8864C119.923 37.1013 119.923 38.3163 119.938 39.5283C119.942 39.8571 119.831 39.9911 119.482 39.9911C114.441 39.985 109.393 40.0185 104.352 39.9881C100.504 39.9637 98.2153 36.0995 100.136 32.8809C103.445 27.3358 106.755 21.7877 110.051 16.2365C110.543 15.4083 110.971 14.5465 111.431 13.7C112.388 11.9308 112.479 10.0063 112.489 8.06967C112.492 7.09829 112.47 6.12692 112.485 5.15554C112.492 4.78709 112.359 4.62874 111.966 4.64701C111.512 4.66833 109.233 4.64397 108.776 4.6531C108.464 4.65919 108.316 4.54653 108.32 4.2268L110.143 0.447867C110.143 0.12509 110.3 0.0276477 110.609 0.0306928C112.054 0.0367829 113.496 0.0154675 114.941 0.039828C116.179 0.0611435 117.199 1.01425 117.199 2.23228C117.199 5.24994 117.196 8.27064 117.07 11.2853C117.007 12.823 116.484 14.306 115.732 15.6671C114.412 18.0484 113.046 20.4022 111.667 22.7499C109.749 26.0082 107.819 29.2572 105.854 32.485C105.228 33.5142 105.785 34.7323 106.547 35.1525C107.429 35.6397 117.678 35.4083 119.435 35.3931L119.428 35.39Z" fill="#00A0DB"/>
<path fill-rule="evenodd" clip-rule="evenodd" d="M132.638 21.2639C131.693 21.2639 130.853 21.2669 130.009 21.2639C129.177 21.2609 128.346 21.27 127.515 21.2243C127.307 21.2121 127.021 21.0721 126.92 20.9046C125.852 19.0989 123.349 14.717 122.959 12.6433C122.713 11.34 122.606 9.99715 122.565 8.6695C122.505 6.59276 122.553 4.51298 122.559 2.4332C122.562 0.99593 123.588 0.00932847 125.075 0.0062834C126.438 0.0062834 127.805 0.0184637 129.168 0.000193266C129.577 -0.00589687 129.719 0.131131 129.716 0.52699L131.265 4.16889C131.271 4.57693 131.098 4.70482 130.705 4.68655C130.267 4.66524 128.277 4.69264 127.836 4.68046C127.521 4.67133 127.37 4.78095 127.383 5.10068C127.446 7.08606 127.455 9.07145 127.578 11.0507C127.72 13.3224 131.271 18.8004 132.474 20.8711C132.525 20.9563 132.55 21.0568 132.635 21.2639H132.638Z" fill="#77C149"/>
<path fill-rule="evenodd" clip-rule="evenodd" d="M46.1663 31.297C46.1663 32.579 45.9617 33.7483 45.5555 34.8049C45.143 35.8677 44.5384 36.7873 43.7355 37.5638C42.9326 38.3403 41.9502 38.9462 40.7883 39.3664C39.6295 39.7867 38.3543 39.9998 36.9689 39.9998C35.5834 39.9998 34.2767 39.7867 33.1369 39.3664C32.0002 38.9462 31.0272 38.3555 30.2243 37.5912C29.4213 36.8269 28.801 35.9012 28.3728 34.8171C27.9446 33.727 27.7305 32.5577 27.7305 31.297C27.7305 30.0364 27.9509 28.797 28.3854 27.7312C28.8199 26.6563 29.4402 25.7367 30.2495 24.9602C31.0618 24.1898 32.0316 23.6052 33.1589 23.2063C33.754 22.9992 34.3523 22.8439 34.9726 22.7373C35.5897 22.6368 36.2604 22.582 36.9752 22.582C38.3827 22.582 39.6516 22.7891 40.7851 23.2002C41.9187 23.6082 42.8791 24.199 43.6757 24.9602C44.466 25.7245 45.0832 26.6411 45.5177 27.7038C45.9522 28.7727 46.1726 29.9694 46.1726 31.297H46.1663ZM32.5449 31.3061C32.5449 32.9292 32.9353 34.1837 33.7225 35.0638C34.5034 35.9529 35.5803 36.3914 36.9437 36.3914C37.8348 36.3914 38.6094 36.1935 39.2737 35.7946C39.9381 35.4018 40.4514 34.8202 40.8135 34.0558C41.1693 33.2915 41.3519 32.375 41.3519 31.3031C41.3519 29.6923 40.9615 28.4377 40.1869 27.5485C39.406 26.6594 38.3228 26.2148 36.9437 26.2148C35.5645 26.2148 34.5191 26.6655 33.7288 27.5638C32.9416 28.4621 32.548 29.7105 32.548 31.3001L32.5449 31.3061Z" fill="#77C149"/>
<path fill-rule="evenodd" clip-rule="evenodd" d="M115.354 25.795C115.348 26.6354 114.636 27.3114 113.774 27.2962C112.911 27.281 112.228 26.5836 112.25 25.7371C112.272 24.921 112.964 24.2603 113.799 24.2603C114.655 24.2603 115.357 24.9515 115.351 25.795H115.354Z" fill="#77C149" stroke="#77C149" stroke-width="0.22" stroke-miterlimit="10"/>
<path fill-rule="evenodd" clip-rule="evenodd" d="M97.1953 28.9675V22.8408H100.848C99.6324 24.8841 98.4139 26.9243 97.1953 28.9675Z" fill="#77C149"/>
<path fill-rule="evenodd" clip-rule="evenodd" d="M96.9586 39.6831H93.1329C91.4578 39.6831 90.0881 39.4699 89.027 39.0497C87.9595 38.6295 87.1787 37.9657 86.6749 37.0552C86.1679 36.1447 85.916 34.9602 85.916 33.5046V22.8408H90.5006V33.1758C90.5006 33.931 90.5824 34.5095 90.743 34.8993C90.9036 35.286 91.1933 35.5753 91.6184 35.7489C92.0372 35.9042 92.6638 35.9833 93.5045 35.9833H94.8931C95.0285 36.7263 95.2961 37.4541 95.7023 38.1392C96.0487 38.7239 96.4737 39.2416 96.9618 39.6831H96.9586Z" fill="#77C149"/>
<path fill-rule="evenodd" clip-rule="evenodd" d="M79.9816 36.0778H84.8684V39.6832H78.6276C77.8593 39.6832 77.1666 39.6467 76.5621 39.5705C75.9512 39.5005 75.375 39.3848 74.824 39.2295C73.7849 38.925 72.8686 38.3951 72.0688 37.64C71.2785 36.8787 70.6519 35.9499 70.1985 34.8537C69.7482 33.7575 69.5215 32.5851 69.5215 31.3397C69.5215 29.9938 69.7482 28.7727 70.1922 27.6552C70.6361 26.5437 71.269 25.615 72.0846 24.8629C72.9032 24.1199 73.8227 23.5931 74.8492 23.2886C75.8756 22.9841 77.1351 22.8379 78.6245 22.8379H84.8653V26.4737H79.9784C79.2794 26.4737 78.6654 26.5042 78.1301 26.5681C77.6012 26.626 77.1257 26.7325 76.7069 26.8756C75.8882 27.1588 75.2837 27.6582 74.8932 28.3647C74.5028 29.0711 74.3044 30.0669 74.3044 31.3367C74.3044 33.3251 74.9845 34.7289 76.348 35.5419C76.7825 35.7825 77.2674 35.9286 77.7995 35.9895C78.338 36.0474 79.0653 36.0748 79.9753 36.0748L79.9816 36.0778Z" fill="#77C149"/>
<path fill-rule="evenodd" clip-rule="evenodd" d="M61.7785 39.6831C58.8974 39.6831 56.7217 38.9766 55.2544 37.5576C53.7807 36.1386 53.0439 34.0436 53.0439 31.2787C53.0439 28.5138 53.7807 26.4157 55.2544 24.9845C56.7217 23.5534 58.9006 22.8408 61.7785 22.8408H68.4791V26.3487H62.4114C61.3881 26.3487 60.582 26.4279 59.9806 26.5893C59.3855 26.7476 58.9321 27.0674 58.6235 27.5454C58.4692 27.7891 58.3496 28.0814 58.2614 28.4224C58.1669 28.7635 58.1229 29.1441 58.1229 29.5704H68.4791V33.0783H58.1229C58.1229 33.5077 58.1606 33.8914 58.2425 34.2202C58.3244 34.5491 58.4472 34.8414 58.6046 35.0881C58.8974 35.5235 59.3194 35.8098 59.8736 35.9559C60.434 36.099 61.2653 36.1752 62.3737 36.1752H68.4759V39.6831H61.7754H61.7785Z" fill="#77C149"/>
<path d="M51.9978 16.7783H47.2148V39.6803H51.9978V16.7783Z" fill="#77C149"/>
<path fill-rule="evenodd" clip-rule="evenodd" d="M13.3538 34.3544L19.3899 16.7783H26.6856V39.6803H21.805L22.2018 21.8484L16.1278 39.6803H10.86L4.57512 21.6596L5.07891 39.2266C5.08521 39.4458 4.89314 39.6255 4.66643 39.6255H0.412485C0.185776 39.6255 0 39.4458 0 39.2266V17.165C0 16.9519 0.179478 16.7814 0.396741 16.7814H6.67533C6.82017 16.7814 6.94297 16.8849 6.96816 17.0189L13.3538 34.3575V34.3544Z" fill="#77C149"/>
<path fill-rule="evenodd" clip-rule="evenodd" d="M121.822 24.2082C121.51 24.7807 120.981 25.0912 120.389 25.3257C119.697 25.5998 118.979 25.819 118.384 26.2819C117.14 27.2532 116.614 28.5139 116.771 30.0425C116.825 30.545 116.945 31.0444 116.976 31.5498C117.071 32.9902 115.972 34.1564 114.514 34.199C113.053 34.2417 111.828 33.1059 111.85 31.6899C111.862 30.6789 112.36 29.9268 113.308 29.4853C113.701 29.2995 114.12 29.1564 114.526 28.9981C116.542 28.2155 117.599 26.3854 117.247 24.3117C117.165 23.8397 117.086 23.3617 117.083 22.8836C117.067 21.1174 119.086 19.9329 120.717 20.7338C122.102 21.4128 122.584 22.9323 121.822 24.2082Z" fill="#77C149"/>
<path fill-rule="evenodd" clip-rule="evenodd" d="M123.736 23.1578H133.126C137.902 23.1578 140.289 25.2589 140.289 29.4581V40.0001H127.952C126.227 40.0001 124.895 39.5799 123.966 38.7394C123.037 37.899 122.574 36.6992 122.574 35.1463C122.574 33.2279 123.119 31.8545 124.208 31.0324C125.292 30.2072 127.061 29.793 129.52 29.793H135.572V29.385C135.572 28.3436 135.257 27.6249 134.628 27.226C134.001 26.8332 132.924 26.6353 131.406 26.6353H123.736V23.1578ZM129.838 36.6201H135.572V33.1426H130.163C129.161 33.1426 128.443 33.2766 127.996 33.5354C127.552 33.8003 127.326 34.2967 127.326 35.0184C127.326 35.6822 127.511 36.1146 127.892 36.3156C128.267 36.5165 128.916 36.6201 129.838 36.6201ZM150.069 26.7967H147.267V36.3978H150.428C152.16 36.3978 153.385 36.0537 154.106 35.3564C154.827 34.6651 155.183 33.441 155.183 31.6932C155.183 29.9453 154.786 28.6359 153.989 27.896C153.193 27.1621 151.889 26.7967 150.069 26.7967ZM147.267 17.0981V23.1578H151.231C152.897 23.1578 154.266 23.3497 155.343 23.7273C156.414 24.1048 157.343 24.7808 158.13 25.7461C159.377 27.293 160 29.1688 160 31.3765C160 33.1639 159.666 34.7047 158.999 36.0019C158.334 37.293 157.365 38.2827 156.089 38.9678C154.82 39.653 153.296 40.0001 151.527 40.0001H142.682V17.0981H147.267Z" fill="#00A0DB"/>
<path fill-rule="evenodd" clip-rule="evenodd" d="M121.89 29.4336C121.884 30.2741 121.172 30.9501 120.31 30.9349C119.447 30.9196 118.764 30.2223 118.786 29.3758C118.808 28.5597 119.5 27.8989 120.335 27.8989C121.191 27.8989 121.893 28.5902 121.887 29.4336H121.89Z" fill="#77C149" stroke="#77C149" stroke-width="0.22" stroke-miterlimit="10"/>
<path fill-rule="evenodd" clip-rule="evenodd" d="M121.446 17.6673C121.44 18.4773 120.757 19.1259 119.926 19.1106C119.094 19.0954 118.439 18.4255 118.461 17.6125C118.484 16.8268 119.148 16.1935 119.954 16.1904C120.779 16.1904 121.453 16.8573 121.446 17.6673Z" fill="#77C149" stroke="#77C149" stroke-width="0.22" stroke-miterlimit="10"/>
<path fill-rule="evenodd" clip-rule="evenodd" d="M99.7014 39.5249H93.13C91.4549 39.5249 90.0852 39.3117 89.024 38.8915C87.9566 38.4713 87.1757 37.8075 86.6719 36.897C86.165 35.9865 85.9131 34.802 85.9131 33.3464V22.6826H90.4976V33.0176C90.4976 33.7728 90.5795 34.3513 90.7401 34.7411C90.9007 35.1278 91.1904 35.4171 91.6154 35.5907C92.0342 35.746 92.6608 35.8251 93.5015 35.8251H97.195V22.6826H101.78V27.2533L98.8512 32.1619C97.702 34.0864 97.6453 36.4037 98.7946 38.3434C99.0528 38.7788 99.3582 39.1747 99.7046 39.5249H99.7014Z" fill="#77C149"/>
</g>
<defs>
<clipPath id="clip0_1471_17686">
<rect width="160" height="40" fill="white"/>
</clipPath>
</defs>
</svg>
