<svg width="40" height="40" viewBox="0 0 40 40" fill="none" xmlns="http://www.w3.org/2000/svg">
<g id="Group">
<circle id="Ellipse" cx="20" cy="20" r="20" fill="#132237"/>
<path id="Vector" d="M20.8941 25.0973L29.1195 16.6113C29.2568 16.4697 29.3334 16.2816 29.3334 16.086C29.3334 15.8904 29.2568 15.7022 29.1195 15.5606L29.1102 15.5515C29.0436 15.4826 28.9635 15.4278 28.8747 15.3903C28.7859 15.3528 28.6902 15.3335 28.5936 15.3335C28.4969 15.3335 28.4013 15.3528 28.3125 15.3903C28.2237 15.4278 28.1435 15.4826 28.077 15.5515L20.3318 23.5426L12.5898 15.5515C12.5232 15.4826 12.4431 15.4278 12.3543 15.3903C12.2655 15.3528 12.1698 15.3335 12.0732 15.3335C11.9765 15.3335 11.8809 15.3528 11.7921 15.3903C11.7033 15.4278 11.6232 15.4826 11.5566 15.5515L11.5473 15.5606C11.41 15.7022 11.3334 15.8904 11.3334 16.086C11.3334 16.2816 11.41 16.4697 11.5473 16.6113L19.7726 25.0973C19.845 25.172 19.932 25.2314 20.0284 25.272C20.1247 25.3126 20.2285 25.3335 20.3334 25.3335C20.4382 25.3335 20.542 25.3126 20.6384 25.272C20.7348 25.2314 20.8218 25.172 20.8941 25.0973Z" fill="#FFE79F"/>
</g>
</svg>
