<svg width="189" height="66" viewBox="0 0 189 66" fill="none" xmlns="http://www.w3.org/2000/svg">
<g id="Group">
<g id="Group_2">
<path id="Vector" d="M32.89 0.534119V26.8347H28.9601V23.6987L3.96008 2.3977V26.8347H0.0300293V0.534119H3.96008V1.52603L28.9601 22.827V0.534119H32.89Z" fill="#132237"/>
<path id="Vector_2" d="M80.0801 13.7696C80.0801 21.3241 70.5101 27.4559 58.7101 27.4559C46.9101 27.4559 37.3401 21.3341 37.3401 13.7696C37.3401 6.21504 46.9101 0.083252 58.7101 0.083252C70.5101 0.0932712 80.0801 6.21504 80.0801 13.7696ZM60.61 1.46591C51.26 0.0131181 42.82 4.35146 41.77 11.1545C40.72 17.9576 47.4501 24.6405 56.8101 26.0933C66.1601 27.5461 74.6 23.2077 75.65 16.4046C76.69 9.60156 69.96 2.91871 60.61 1.46591Z" fill="#132237"/>
<path id="Vector_3" d="M116.04 20.1118C115.82 25.9931 107.54 26.8347 105.15 26.8347C101.57 26.8347 84.54 26.8347 84.54 26.8347V0.534119H88.4701C88.4701 0.534119 95.4501 0.534119 103.59 0.534119C111.73 0.534119 113.83 4.74221 113.83 7.9083C113.83 11.0744 109.9 12.5973 109.9 12.5973C109.9 12.5973 116.29 13.1584 116.04 20.1118ZM88.4701 13.2987H104.36C104.36 13.2987 109.9 13.4991 109.9 6.90637C109.9 1.12526 103.65 1.20541 100.69 1.20541C97.8401 1.20541 88.48 1.20541 88.48 1.20541V13.2987H88.4701ZM110.94 20.1118C110.94 15.8235 106.98 14.531 104.59 14.531C100.31 14.531 88.4701 14.531 88.4701 14.531V26.1534C88.4701 26.1534 97.84 26.1534 103.53 26.1534C109.22 26.1534 110.94 24.4 110.94 20.1118Z" fill="#132237"/>
<path id="Vector_4" d="M150.91 15.6732L145.09 26.8447H120.67V0.534119H124.6V26.1734H132.51C139.99 26.1734 146.85 22.0054 150.31 15.3626L150.91 15.6732Z" fill="#132237"/>
<path id="Vector_5" d="M188.03 15.6732L182.21 26.8447H154.7V0.534119H182.21L185.8 7.19693L185.21 7.50753C183.12 3.63007 179.07 1.20541 174.67 1.20541H158.64V26.1734H169.65C177.13 26.1734 183.99 22.0054 187.45 15.3626L188.03 15.6732ZM168.91 9.08055C168.91 9.08055 169.07 14.0601 171.26 14.0601C169.07 14.0601 168.91 19.0397 168.91 19.0397C168.91 19.0397 168.75 14.0601 166.56 14.0601C168.75 14.0601 168.91 9.08055 168.91 9.08055Z" fill="#132237"/>
</g>
<g id="Group_3">
<g id="Group_4">
<path id="Vector_6" d="M62.9301 36.4432C62.5101 36.4432 62.1301 36.2829 61.9001 35.9623C61.5201 35.3812 61.6401 34.7399 62.3801 34.7099C64.3001 34.6097 66.4802 30.632 67.2202 27.7465C68.2502 23.7688 67.44 20.0116 63.73 20.0116C51.88 20.0116 33.7501 56.1511 48.5801 56.1511C55.6001 56.1511 64.4002 47.745 69.5902 42.545C69.6902 42.4448 69.8101 42.4147 69.9101 42.4147C70.1301 42.4147 70.2601 42.6051 70.0101 42.8956C65.5601 48.0656 54.9901 57.5638 48.3901 57.5638C31.5101 57.5638 50.09 19.0197 63.73 19.0197C68.09 19.0197 68.9501 23.348 68.0501 27.8166C67.4701 30.8324 66.0601 33.8783 64.4001 35.7719C64.0201 36.2228 63.4401 36.4432 62.9301 36.4432Z" fill="#132237"/>
<path id="Vector_7" d="M71.99 42.1241C74.62 42.605 72.98 48.827 69.65 48.4162C66.54 48.0355 67.41 41.5129 71.89 41.8035C72.56 41.8335 72.11 42.8655 71.89 42.8255C69.62 42.6652 67.1501 47.805 69.7101 47.9954C71.9201 48.1557 72.95 43.0559 71.89 42.8555C71.45 42.7653 71.48 42.0339 71.99 42.1241ZM72.8 42.7052C73.18 43.0559 74.27 44.5688 76.04 44.5688C76.74 44.5688 77.5501 44.3083 78.4701 43.637C78.8901 43.3465 79.14 44.1179 78.73 44.3784C77.8 44.9195 76.97 45.1499 76.23 45.1499C74.24 45.1499 73.03 43.5468 72.51 42.8756C72.19 42.4147 72.41 42.3546 72.8 42.7052Z" fill="#132237"/>
<path id="Vector_8" d="M77.6703 47.294C78.8603 45.7811 82.6403 41.3526 84.4003 41.583C85.4603 41.7133 85.7803 42.615 85.4903 43.4166C85.1103 44.5387 82.2503 47.3942 84.1803 47.3942C85.8103 47.3942 89.4003 43.8975 89.9803 43.6069C90.4603 43.3865 90.5903 44.2181 90.2703 44.4085C89.1503 44.9495 85.8503 47.7749 84.2803 47.7749C83.0903 47.7749 82.7703 47.264 82.7703 46.6828C82.8003 45.4605 83.9203 43.8274 84.3703 42.6751C84.5003 42.3545 84.4003 42.064 84.1103 42.0339C82.3503 41.8736 78.3403 46.8832 77.4803 48.326C77.4203 48.4262 77.2903 48.4863 77.1603 48.4863C76.9703 48.4863 76.7804 48.326 76.8404 48.0054C77.0604 46.9834 78.6703 42.0038 79.1803 41.0119C79.3703 40.5911 79.7203 40.4008 80.0103 40.4008C80.4903 40.4008 80.9103 40.8817 80.6203 41.4929C79.6803 43.3464 78.4403 45.2401 77.6703 47.294Z" fill="#132237"/>
<path id="Vector_9" d="M96.98 44.8594C95.44 44.8594 93.7801 45.3403 92.2701 46.0517C92.7201 46.9133 93.0402 47.8451 92.8502 48.7769C92.4302 50.8008 90.2601 51.923 88.6501 51.923C87.5601 51.923 86.7301 51.3419 87.0501 50.0895C87.3401 48.9372 88.9101 47.3342 91.0201 46.0417C90.0601 44.629 88.6802 43.3465 89.1002 41.9338C89.2902 41.2324 90.2901 40.0101 91.9501 40.1002C93.5201 40.1604 94.1001 41.7334 93.4901 43.116C93.3301 43.4667 93.0401 43.597 92.7901 43.597C92.2501 43.597 91.7001 43.086 92.0201 42.6652C92.8501 41.6031 92.4001 40.7415 91.7601 40.6713C91.2201 40.6413 90.5101 41.0922 90.3201 41.9237C90.1301 42.8555 91.1501 44.1079 91.9901 45.4906C93.9401 44.4987 96.2801 43.8174 98.4601 44.0178C99.1601 44.0779 99.1001 45.1399 98.1701 44.9496C97.7801 44.8895 97.4 44.8594 96.98 44.8594ZM87.3402 50.0895C87.0802 50.9912 87.7601 51.5022 88.6901 51.5022C89.8401 51.5022 91.4101 50.6706 91.8001 48.7068C91.9601 47.9353 91.7401 47.1939 91.3201 46.5226C89.2601 47.6447 87.6302 49.0975 87.3402 50.0895Z" fill="#132237"/>
<path id="Vector_10" d="M99.4803 42.1241C100.09 42.1241 100.63 42.6351 100.09 43.1862C98.4204 44.9195 96.9803 47.9353 98.3903 47.9353C99.7703 47.9353 102.52 44.7292 103.29 43.9276C103.67 43.5068 104.09 44.1881 103.61 44.669C102.75 45.6008 99.7003 48.296 98.5203 48.296C97.5903 48.296 96.8904 47.755 96.9504 46.8833C97.0104 45.7311 98.1004 43.1561 98.7104 42.4548C98.9104 42.2243 99.2003 42.1241 99.4803 42.1241ZM100.93 39.2987C101.31 39.2987 101.73 39.5893 101.76 40.0702C101.82 40.6112 101.41 40.9319 100.99 40.9319C100.45 40.9319 100.13 40.6112 100.09 40.0702C100.06 39.5893 100.38 39.2987 100.93 39.2987Z" fill="#132237"/>
<path id="Vector_11" d="M104.55 48.4463C100.38 47.5446 103.4 40.7716 107.24 41.0621C109.9 41.2825 108.55 44.7893 105.03 44.7893C104.61 44.7893 104.17 44.7292 103.68 44.629C102.98 46.0417 102.94 47.6147 104.35 47.9654C104.64 48.0255 104.93 48.0656 105.21 48.0656C107.87 48.0656 111.17 45.5608 112.64 43.6972C112.7 43.597 112.8 43.5669 112.93 43.5669C113.22 43.5669 113.54 43.9176 113.19 44.2683C111.05 46.5226 107.43 49.0575 104.55 48.4463ZM106.92 42.1943C105.86 42.0941 104.77 42.8956 104.07 43.9577C107.04 44.3785 108.26 42.3245 106.92 42.1943Z" fill="#132237"/>
<path id="Vector_12" d="M119.03 41.3527C121.21 41.3527 118.45 45.0097 119.48 45.2001C121.02 45.4906 123.68 44.1781 124.73 43.6872C125.18 43.4667 125.34 44.1981 124.86 44.3585C123.96 44.649 119.38 46.0918 118.32 45.9615C116.49 45.7712 119.79 41.7234 118.77 41.7234C116.56 41.7234 113.26 47.0536 112.36 48.8771C112.26 49.0374 112.1 49.1376 111.94 49.1376C111.65 49.1376 111.36 48.9172 111.4 48.5966C111.53 47.4444 112.75 42.6953 113.42 41.5631C113.58 41.3026 113.8 41.2124 114.03 41.2124C114.41 41.2124 114.8 41.5631 114.61 41.9538C113.52 44.138 113.26 45.2602 112.66 47.6949C113.68 45.9114 116.75 41.3527 119.03 41.3527Z" fill="#132237"/>
<path id="Vector_13" d="M130.82 42.2543C135.27 42.2543 127.23 65.9098 120.41 65.9098C113.33 65.9098 122.43 47.5846 136.01 44.9195C136.52 44.8193 136.65 45.9414 135.82 46.1418C122.05 48.4863 115.41 65.2686 120 65.2686C126.02 65.2686 133.61 43.637 130.7 43.637C130.16 43.637 127.3 47.5245 125.51 47.5245C122.24 47.5245 124.9 41.2624 128.14 41.6532C129.13 41.7534 130.13 42.5549 129.87 44.1279C129.84 44.3183 128.94 44.4486 128.94 44.3884C129.13 43.2963 128.72 42.7553 128.08 42.7152C126.25 42.5549 123.37 47.1738 125.32 47.1738C126.68 47.1638 129.82 42.2543 130.82 42.2543Z" fill="#132237"/>
<path id="Vector_14" d="M137.61 48.4463C133.45 47.5446 136.46 40.7716 140.3 41.0621C142.96 41.2825 141.61 44.7893 138.09 44.7893C137.67 44.7893 137.23 44.7292 136.74 44.629C136.04 46.0417 136 47.6147 137.41 47.9654C137.7 48.0255 137.99 48.0656 138.27 48.0656C140.93 48.0656 144.23 45.5608 145.7 43.6972C145.76 43.597 145.86 43.5669 145.99 43.5669C146.28 43.5669 146.6 43.9176 146.25 44.2683C144.11 46.5226 140.49 49.0575 137.61 48.4463ZM139.98 42.1943C138.92 42.0941 137.83 42.8956 137.13 43.9577C140.11 44.3785 141.32 42.3245 139.98 42.1943Z" fill="#132237"/>
</g>
</g>
</g>
</svg>
