<?xml version="1.0" encoding="UTF-8"?>
<svg id="Layer_2" data-name="Layer 2" xmlns="http://www.w3.org/2000/svg" viewBox="0 0 33.82 33.89">
  <defs>
    <style>
      .cls-1 {
        fill: #132237;
      }
    </style>
  </defs>
  <g id="Layer_1-2" data-name="Layer 1">
    <g>
      <path class="cls-1" d="M16.91,0C7.57,0,0,7.58,0,16.94s7.57,16.94,16.91,16.94,16.91-7.58,16.91-16.94S26.25,0,16.91,0Zm0,32.34c-8.49,0-15.38-6.89-15.38-15.41S8.41,1.52,16.91,1.52s15.38,6.89,15.38,15.41-6.89,15.41-15.38,15.41Z"/>
      <path class="cls-1" d="M14.2,25.15c6.71,0,10.39-5.57,10.39-10.41,0-.16,0-.32,0-.47,.71-.52,1.33-1.16,1.82-1.89-.65,.29-1.36,.49-2.1,.57,.75-.45,1.33-1.17,1.6-2.02-.71,.42-1.49,.72-2.32,.89-.67-.71-1.61-1.15-2.66-1.15-2.02,0-3.65,1.63-3.65,3.66,0,.29,.03,.57,.09,.83-3.03-.15-5.72-1.61-7.52-3.82-.31,.54-.49,1.17-.49,1.83,0,1.27,.64,2.38,1.62,3.05-.6-.02-1.16-.18-1.65-.46v.05c0,1.77,1.26,3.25,2.93,3.59-.31,.08-.63,.13-.96,.13-.24,0-.46-.02-.69-.07,.46,1.45,1.81,2.51,3.41,2.54-1.25,.98-2.82,1.56-4.53,1.56-.29,0-.58-.02-.87-.05,1.61,1.04,3.53,1.64,5.59,1.64Z"/>
    </g>
  </g>
</svg>