<svg width="16" height="17" viewBox="0 0 16 17" fill="none" xmlns="http://www.w3.org/2000/svg">
<g id="Group">
<path id="Vector" d="M7.46265 0.101991C7.30265 -0.0480088 7.05264 -0.0279795 6.90264 0.132021L0.102645 7.67206C-0.0273548 7.82206 -0.0373569 8.04208 0.0926431 8.19208L6.89264 16.1721C6.97264 16.2621 7.08265 16.312 7.19265 16.312C7.28265 16.312 7.37265 16.2819 7.44265 16.2219C7.61265 16.0819 7.63264 15.8321 7.48264 15.6721L0.912643 7.96185L7.48264 0.682069C7.63264 0.492069 7.62265 0.241991 7.46265 0.101991Z" fill="#132237"/>
<path id="Vector_2" d="M15.1326 0.101991C14.9726 -0.0480088 14.7226 -0.0279795 14.5726 0.132021L7.77257 7.67206C7.64257 7.82206 7.63257 8.04208 7.76257 8.19208L14.5626 16.1721C14.6426 16.2621 14.7526 16.312 14.8626 16.312C14.9526 16.312 15.0426 16.2819 15.1126 16.2219C15.2826 16.0819 15.3026 15.8321 15.1526 15.6721L8.58257 7.96185L15.1526 0.682069C15.3026 0.492069 15.2926 0.241991 15.1326 0.101991Z" fill="#132237"/>
</g>
</svg>
