<svg width="23" height="22" viewBox="0 0 23 22" fill="none" xmlns="http://www.w3.org/2000/svg">
<g id="download">
<path id="Vector" fill-rule="evenodd" clip-rule="evenodd" d="M11.5508 1.37549C11.9305 1.37549 12.2383 1.68329 12.2383 2.06299V13.4657L14.5021 11.2019C14.7706 10.9334 15.2059 10.9334 15.4744 11.2019C15.7429 11.4703 15.7429 11.9056 15.4744 12.1741L12.0369 15.6116C11.7684 15.8801 11.3331 15.8801 11.0646 15.6116L7.62715 12.1741C7.35866 11.9056 7.35866 11.4703 7.62715 11.2019C7.89563 10.9334 8.33093 10.9334 8.59942 11.2019L10.8633 13.4657V2.06299C10.8633 1.68329 11.1711 1.37549 11.5508 1.37549ZM6.39453 8.25049C6.12103 8.25049 5.85872 8.35914 5.66533 8.55253C5.47193 8.74593 5.36328 9.00823 5.36328 9.28174V18.2192C5.36328 18.4927 5.47193 18.755 5.66533 18.9484C5.85872 19.1418 6.12103 19.2505 6.39453 19.2505H16.707C16.9805 19.2505 17.2428 19.1418 17.4362 18.9484C17.6296 18.755 17.7383 18.4927 17.7383 18.2192V9.28174C17.7383 9.00823 17.6296 8.74593 17.4362 8.55253C17.2428 8.35914 16.9805 8.25049 16.707 8.25049H14.9883C14.6086 8.25049 14.3008 7.94268 14.3008 7.56299C14.3008 7.18329 14.6086 6.87549 14.9883 6.87549H16.707C17.3452 6.87549 17.9572 7.129 18.4085 7.58026C18.8598 8.03152 19.1133 8.64356 19.1133 9.28174V18.2192C19.1133 18.8574 18.8598 19.4695 18.4085 19.9207C17.9572 20.372 17.3452 20.6255 16.707 20.6255H6.39453C5.75635 20.6255 5.14431 20.372 4.69306 19.9207C4.2418 19.4695 3.98828 18.8574 3.98828 18.2192V9.28174C3.98828 8.64356 4.2418 8.03152 4.69306 7.58026C5.14431 7.129 5.75635 6.87549 6.39453 6.87549H8.11328C8.49298 6.87549 8.80078 7.18329 8.80078 7.56299C8.80078 7.94268 8.49298 8.25049 8.11328 8.25049H6.39453Z" fill="#333333"/>
</g>
</svg>
