<svg width="218" height="77" viewBox="0 0 218 77" fill="none" xmlns="http://www.w3.org/2000/svg">
<path d="M22 59.6V16.5L23 17.6L6.9 59.6H0.5V0.700012H7.9V44L6.9 42.9L23.1 0.599976H29.4V59.5H22V59.6Z" fill="#1B1918"/>
<path d="M42.9 58.8C41 57.8 39.6 56.4 38.6 54.5C37.6 52.6 37.1 50.4 37.1 47.7V30C37.1 27.2 37.6 24.8 38.6 22.9C39.6 20.9 41.1 19.5 43 18.4C44.9 17.4 47.2 16.9 49.9 16.9C52.6 16.9 54.9 17.4 56.8 18.4C58.7 19.4 60.2 20.9 61.2 22.9C62.2 24.9 62.7 27.3 62.7 30V31.4H55V30C55 28.1 54.6 26.6 53.7 25.5C52.8 24.4 51.6 23.9 50 23.9C48.4 23.9 47.1 24.4 46.2 25.5C45.3 26.5 44.8 28 44.8 29.9V47.6C44.8 49.3 45.3 50.6 46.2 51.5C47.1 52.4 48.4 52.9 50 52.9C51.6 52.9 52.8 52.4 53.7 51.4C54.6 50.4 55.1 49.1 55.1 47.3V46H62.8V47.3C62.8 50 62.3 52.3 61.3 54.1C60.3 56 58.8 57.4 56.9 58.4C55 59.4 52.7 59.9 49.9 59.9C47.1 60.3 44.8 59.8 42.9 58.8Z" fill="#1B1918"/>
<path d="M66.7 17.6H89.5V24.9H66.7V17.6ZM74.3 17.6H82V59.6H74.3V17.6Z" fill="#1B1918"/>
<path d="M100.8 58.8C99 57.8 97.6 56.5 96.6 54.6C95.6 52.8 95.2 50.6001 95.2 48.0001V28.8C95.2 26.3 95.7 24.1 96.6 22.3C97.6 20.5 98.9 19.1001 100.8 18.2001C102.6 17.3001 104.8 16.8 107.3 16.8C109.8 16.8 112 17.3001 113.8 18.2001C115.6 19.1001 117 20.5 117.9 22.3C118.8 24.1 119.3 26.3 119.3 28.8V48.1C119.3 50.6 118.8 52.8 117.9 54.6C117 56.4 115.6 57.8001 113.8 58.7001C112 59.6001 109.8 60.1 107.3 60.1C104.8 60.3 102.6 59.8 100.8 58.8ZM110.5 51.5001C111.3 50.6001 111.7 49.4001 111.7 47.9001V29.2001C111.7 27.7001 111.3 26.5001 110.5 25.7001C109.7 24.8001 108.7 24.4001 107.3 24.4001C105.9 24.4001 104.9 24.8001 104.1 25.7001C103.3 26.6001 102.9 27.7001 102.9 29.2001V47.9001C102.9 49.4001 103.3 50.6001 104.1 51.5001C104.9 52.4001 105.9 52.8 107.3 52.8C108.6 52.8 109.7 52.4001 110.5 51.5001Z" fill="#1B1918"/>
<path d="M127.4 17.6H135.1V76.7H127.4V17.6ZM137.7 58.4C136.2 57.1 135.2 55.4 134.6 53.1L135.2 46.6C135.2 48 135.4 49.2 135.8 50.2C136.2 51.2 136.8 52 137.5 52.5C138.2 53 139.1 53.3 140.2 53.3C141.7 53.3 142.9 52.7 143.8 51.5C144.7 50.3 145.1 48.6 145.1 46.5V30.7C145.1 28.6 144.7 27 143.8 25.8C142.9 24.6 141.7 24 140.2 24C139.2 24 138.3 24.3 137.5 24.8C136.8 25.3 136.2 26.1 135.8 27C135.4 28 135.2 29.1 135.2 30.5L134.3 24.7C135.2 22.2 136.4 20.3 138 19C139.6 17.7 141.4 17 143.3 17C145.3 17 147 17.5 148.4 18.6C149.8 19.6 150.9 21.2 151.6 23.2C152.3 25.2 152.7 27.6 152.7 30.5V46.9C152.7 49.8 152.3 52.2 151.5 54.3C150.7 56.3 149.6 57.9 148.2 59C146.7 60.1 145 60.6 142.9 60.6C140.9 60.3 139.2 59.7 137.7 58.4Z" fill="#1B1918"/>
<path d="M177.9 59.6V31.1L178.9 32.2L167 59.6H160.8V17.6H168V46.1L167 45L179 17.5H185.1V59.5H177.9V59.6Z" fill="#1B1918"/>
<path d="M203.8 46.0999C201.5 46.0999 199.5 45.6999 197.8 44.7999C196.2 43.8999 194.9 42.5999 194 40.9999C193.1 39.2999 192.7 37.3 192.7 34.9V28.7999C192.7 26.4999 193.2 24.3999 194.1 22.7999C195 21.0999 196.4 19.7999 198.2 18.9999C200 18.0999 202.1 17.7 204.6 17.7H213.8V24.9999H205.1C203.6 24.9999 202.5 25.3999 201.7 26.2999C200.9 27.1999 200.5 28.4 200.5 29.9V33.9C200.5 35 200.7 35.8999 201 36.5999C201.4 37.2999 201.9 37.8999 202.6 38.2999C203.3 38.6999 204.1 38.9 205.1 38.9H213.8V46.2H203.8V46.0999ZM193.1 59.7L200.3 41.5999L207.7 43.4999L201.3 59.7H193.1ZM210.1 59.7V17.7H217.8V59.7H210.1Z" fill="#1B1918"/>
</svg>
