<svg width="445" height="243" viewBox="0 0 445 243" fill="none" xmlns="http://www.w3.org/2000/svg"><g clip-path="url(#clip0_3249_5)"><path d="M113.5 80.7V52.4C111.4 52.9 107.2 53.9 100.1 54.7C97.6996 55 92.8996 55.5 85.5996 55.5C81.8996 55.5 74.5996 55.5 68.7996 52.2C66.8996 51.1 63.0996 48.9 63.0996 43.1C63.0996 41.2 63.0996 37.4 68.3996 34.4C70.1996 33.4 73.6996 31.5 83.1996 31.5C86.0996 31.5 91.8996 31.5 99.9996 32.7C102.7 33.1 108 33.9 113.5 35.7V6.5C111.2 5.4 106.6 3.1 98.5996 1.5C95.8996 1 90.5996 0 80.3996 0C76.9996 0 70.2996 0 62.1996 3.1C59.4996 4.1 54.0996 6.2 48.3996 11.9C46.4996 13.8 42.6996 17.6 39.6996 25.8C38.6996 28.5 36.5996 34 36.5996 44.3C36.5996 47.4 36.5996 53.7 39.5996 61.4C40.5996 64 42.5996 69.1 48.5996 74.7C50.3996 76.4 53.9996 79.7 61.4996 82.6L113 81C113.2 80.8 113.4 80.7 113.5 80.7Z" fill="#785EFF"></path><path d="M194.5 75.7004C196.5 73.9004 200.6 70.4004 203.9 62.6004C205 60.0004 207.2 54.8004 207.2 44.6004C207.2 41.1004 207.2 34.1004 203.9 25.9004C202.8 23.2004 200.6 17.7004 194.6 11.9004C192.6 10.0004 188.6 6.10039 180.1 3.00039C177.3 2.00039 171.6 -0.0996094 161.1 -0.0996094C157.6 -0.0996094 150.7 -0.0996094 142.2 3.00039C139.4 4.00039 133.7 6.10039 127.6 11.8004C125.6 13.7004 121.5 17.5004 118.3 25.8004C117.2 28.5004 115 34.0004 115 44.4004C115 47.7004 115 54.2004 118.3 62.0004C119.4 64.6004 121.6 69.8004 127.6 75.2004C128.9 76.4004 131 78.3004 134.5 80.2004L191 78.4004C192.1 77.6004 193.3 76.8004 194.5 75.7004ZM175 52.0004C174.1 52.5004 172.3 53.6004 168.7 54.3004C167.5 54.5004 165.1 55.0004 161 55.0004C159.6 55.0004 156.9 55.0004 153.3 54.2004C152.1 53.9004 149.7 53.4004 146.9 51.9004C146 51.4004 144.1 50.4004 142.5 48.2004C142 47.5004 140.9 46.0004 140.9 43.0004C140.9 42.0004 140.9 40.0004 142.5 37.8004C143 37.1004 144.1 35.6004 146.9 34.1004C147.8 33.6004 149.7 32.6004 153.4 31.9004C154.6 31.7004 157.1 31.2004 161 31.2004C162.3 31.2004 165 31.2004 168.6 31.9004C169.8 32.1004 172.3 32.6004 175 34.1004C175.9 34.6004 177.7 35.5004 179.4 37.8004C179.9 38.5004 181 40.0004 181 43.0004C181 44.0004 181 46.0004 179.4 48.2004C178.9 48.9004 177.8 50.4004 175 52.0004Z" fill="#785EFF"></path><path d="M324.4 61.3C325.4 58.6 327.3 53.1 327.3 42.8C327.3 36 327.3 22.4 315.9 11.2C312.2 7.4 304.6 0 284.3 0C281.6 0 276.1 0 269.7 2C267.5 2.7 263.2 4 258.3 7.5C256.6 8.7 253.3 11 249.9 16.1C248.8 17.8 246.5 21.1 244.6 27.1H239.4V1.4H210.5V77.8L239.4 76.9V58.7H244.3C245.3 62.6 247.3 69.8 254.2 76.4L316.7 74.4C318.6 72.3 321.8 68.5 324.4 61.3ZM297.8 53.2C296 54.3 292.5 56.4 284.3 56.4C281.6 56.4 276.3 56.4 270.9 53.1C269.1 52 265.5 49.8 265.5 43.5C265.5 41.3 265.5 37 270.7 34C272.4 33 275.9 31.1 284.3 31.1C287.1 31.1 292.7 31.1 297.9 34.2C299.6 35.2 303.1 37.3 303.1 43.5C303.1 45.6 303.1 50 297.8 53.2Z" fill="#785EFF"></path><path d="M402.8 49.8004C402.1 49.0004 400.8 47.3004 398.2 45.8004C397.3 45.3004 395.5 44.4004 393 43.4004C394.7 42.4004 398.2 40.4004 401.4 36.0004C402.5 34.5004 404.7 31.6004 404.7 24.2004C404.7 21.8004 404.7 17.0004 401.4 12.3004C400.3 10.8004 398.1 7.70039 392.5 4.90039C390.6 4.00039 386.9 2.10039 379.6 1.00039C377.1 0.600391 372.2 -0.0996094 363.9 -0.0996094C360.2 -0.0996094 352.7 -0.0996094 344.6 1.90039C341.9 2.60039 336.5 3.90039 330 6.20039V29.4004C331 29.1004 333.1 28.4004 337.2 27.7004C338.5 27.5004 341.2 27.0004 345.4 26.4004C346.8 26.2004 349.6 25.9004 353.5 25.6004C354.8 25.5004 357.5 25.3004 360.4 25.3004C362.2 25.3004 365.8 25.3004 369.5 25.6004C370.7 25.7004 373.1 25.9004 375.2 26.6004C375.9 26.8004 377.3 27.3004 378.2 28.4004C378.5 28.8004 379.1 29.5004 379.1 31.3004C379.1 31.8004 379.1 32.9004 378.2 34.0004C377.9 34.3004 377.3 35.0004 375.8 35.5004C375.3 35.7004 374.3 36.0004 372.3 36.2004C371.6 36.3004 370.3 36.4004 368.1 36.4004H343.6V52.7004H367.8C369.2 52.7004 371.9 52.7004 374.5 53.2004C375.4 53.4004 377.1 53.7004 378.5 54.6004C379 54.9004 379.9 55.4004 380.4 56.4004C380.6 56.7004 380.9 57.4004 380.9 58.2004C380.9 58.7004 380.9 59.6004 380.2 60.7004C379.9 61.1004 379.4 61.8004 377.5 62.6004C376.8 62.9004 375.5 63.4004 372.1 63.8004C370.9 63.9004 368.6 64.2004 363 64.2004C360.3 64.2004 354.8 64.2004 346.6 63.6004C343.9 63.4004 338.4 63.0004 330 61.1004V74.0004L404.2 71.6004C405 69.9004 405.6 67.8004 405.9 65.5004C406.2 63.6004 406.7 59.9004 405.8 56.1004C405.4 54.9004 404.7 52.3004 402.8 49.8004Z" fill="#785EFF"></path><path d="M127.3 85.7002L83.9004 87.0002L77.5004 111.9H74.1004L67.8004 87.5002L23.9004 88.9002L17.4004 153.3L46.1004 153.7L48.9004 123.2H52.3004L58.3004 153.9L93.1004 154.5L99.3004 123.2H102.7L105.5 154.7L134.4 155.1L127.3 85.7002Z" fill="#785EFF"></path><path d="M143.001 132.3C142.001 132.1 140.001 131.8 137.701 130.7V155.2L176.301 155.8C178.801 153.7 182.301 150.1 185.501 143.1L212.901 83L181.901 84L172.801 109.2H169.401L160.201 84.6L130.301 85.5L152.901 132.3C152.401 132.4 151.301 132.7 148.101 132.7C147.501 132.8 146.001 132.8 143.001 132.3Z" fill="#785EFF"></path><path d="M264.1 81.4004L216.7 82.9004L197.4 156.1L227.3 156.6L238.8 116H242.3L254 157L284.1 157.5L264.1 81.4004Z" fill="#785EFF"></path><path d="M353.8 151.6C357.2 148.7 363.9 142.8 363.9 127.4C363.9 124.4 363.9 118.3 360.8 112.1C359.8 110.1 357.7 106 352.2 102.3C350.4 101.1 346.8 98.6002 339.5 97.1002C337.1 96.6002 332.2 95.5002 323.8 95.5002C323.2 95.5002 322 95.5002 320.2 95.5002C319.6 95.5002 318.4 95.5002 316.2 95.8002V79.7002L287.6 80.6002V157.5L341.5 158.3C345.6 157.1 349.9 155 353.8 151.6ZM335.1 133.4C333.9 134.1 331.4 135.4 322.8 135.4C322.3 135.4 321.4 135.4 319.9 135.3C319.4 135.3 318.3 135.2 316.2 134.9V120.5C316.8 120.5 318 120.4 319.5 120.3C320 120.3 321.1 120.2 323.2 120.2C325.7 120.2 330.7 120.2 334.8 121.9C336.2 122.5 338.9 123.6 338.9 127.6C338.8 128.8 338.8 131.4 335.1 133.4Z" fill="#785EFF"></path><path d="M359.9 78.3004V105.4H384V159.1L412.8 159.5V105.4H438.1V75.9004L359.9 78.3004Z" fill="#785EFF"></path><path d="M11.6 226.501C13.4 228.101 16.9 231.301 24.1 234.001C26.5 234.901 31.3 236.701 39.4 237.501V242.101H68V237.501C70.6 237.201 75.8 236.701 82.8 234.001C85.2 233.101 89.9 231.301 95.4 226.601C97.2 225.001 100.9 221.801 104.2 214.801C105.3 212.501 107.5 207.801 107.5 198.201C107.5 195.001 107.5 188.701 104.2 181.501C103.1 179.101 100.9 174.301 95.4 169.401C93.6 167.701 89.9 164.401 82.8 161.601C81.7 161.101 80 160.501 77.7 159.801L32 159.101C29.7 159.601 27.1 160.401 24.1 161.601C21.7 162.601 16.9 164.501 11.6 169.401C9.8 171.001 6.2 174.301 3.1 181.501C2.1 183.901 0 188.701 0 198.201C0 201.401 0 207.701 3.1 214.801C4.2 217.001 6.3 221.701 11.6 226.501ZM68.1 186.701C69.5 186.701 72.2 186.701 74.8 187.601C75.7 187.901 77.5 188.501 79 190.101C79.5 190.601 80.6 191.701 81.2 193.601C81.4 194.301 81.9 195.601 81.9 197.601C81.9 199.501 81.9 203.301 78.4 206.801C77.2 208.001 74.9 210.301 68 210.301V186.701H68.1ZM26.2 194.001C26.4 193.301 26.9 191.901 28.5 190.301C29 189.801 30.1 188.701 32.8 187.701C33.7 187.401 35.5 186.701 39.4 186.701V210.101C38.1 210.101 35.4 210.101 32.8 209.101C31.9 208.801 30.1 208.101 28.5 206.501C28 206.001 26.9 204.901 26.2 202.801C26 202.101 25.5 200.701 25.5 198.401C25.5 197.601 25.5 196.101 26.2 194.001Z" fill="#785EFF"></path><path d="M109.801 160.301V239.001H138.001L155.501 205.301H158.401V239.001H184.201V161.401L152.801 160.901L138.501 188.401H135.801V160.701L109.801 160.301Z" fill="#785EFF"></path><path d="M187.699 239H214.699L225.799 195.3H228.999L240.199 239H267.099L248.999 162.4L205.999 161.7L187.699 239Z" fill="#785EFF"></path><path d="M270.301 162.7V237.3C275.601 238.1 286.101 239.8 303.401 239.8C309.201 239.8 320.901 239.8 330.001 231C333.001 228.1 339.101 222.2 339.101 206.8C339.101 203.8 339.101 197.7 336.301 191.5C335.401 189.5 333.501 185.4 328.601 181.7C327.001 180.5 323.701 178 317.101 176.5C314.901 176 310.501 174.9 302.901 174.9C302.401 174.9 301.301 174.9 299.701 174.9C299.101 174.9 298.001 174.9 296.101 175.2V163.1L270.301 162.7ZM299.001 199.5C299.501 199.5 300.401 199.4 302.401 199.4C304.601 199.4 309.101 199.4 312.801 201.1C314.001 201.7 316.501 202.8 316.501 206.8C316.501 208.1 316.501 210.8 313.101 212.7C312.001 213.4 309.701 214.7 302.001 214.7C301.601 214.7 300.801 214.7 299.401 214.6C298.901 214.6 298.001 214.5 296.001 214.2V199.8C296.501 199.6 297.601 199.5 299.001 199.5Z" fill="#785EFF"></path><path d="M338.301 239.001H364.301L367.201 202.501H370.301L376.801 239.001H406.101L412.601 202.501H415.601L418.601 239.001H444.601L437.801 165.201L399.101 164.601L393.001 191.201H389.901L383.701 164.401L345.201 163.801L338.301 239.001Z" fill="#785EFF"></path></g><defs><clipPath id="clip0_3249_5"><rect width="444.6" height="242.1" fill="white"></rect></clipPath></defs></svg>