<svg width="9" height="12" viewBox="0 0 9 12" fill="none" xmlns="http://www.w3.org/2000/svg">
<g id="arrow.up.to.line" clip-path="url(#clip0_71_2489)">
<g id="Group">
<path id="Vector" d="M0.743568 6.86427C0.743568 6.99501 0.787115 7.10938 0.890613 7.21827L4.50688 10.84C4.61036 10.9489 4.73562 11.0034 4.87178 11.0034C5.00794 11.0034 5.1332 10.9489 5.23667 10.84L8.84751 7.21827C8.95098 7.10938 9 6.99501 9 6.86427C9 6.59742 8.80394 6.39047 8.53163 6.39047C8.40092 6.39047 8.27021 6.43401 8.18852 6.52115L6.94678 7.74112L4.99159 9.88148L5.30203 9.9904L5.35649 8.36743L5.35649 1.18934C5.35649 0.906127 5.15498 0.710052 4.87178 0.710052C4.58857 0.710052 4.38707 0.906127 4.38707 1.18934L4.38707 8.36743L4.44153 9.9904L4.74652 9.88148L2.79675 7.74112L1.55506 6.52115C1.46792 6.43401 1.34262 6.39047 1.21194 6.39047C0.939597 6.39047 0.743568 6.59742 0.743568 6.86427ZM0.743568 11.4881C0.743568 11.7713 0.934159 11.9783 1.21194 11.9783L8.52073 11.9783C8.80394 11.9783 9 11.7713 9 11.4881C9 11.2049 8.80394 11.0034 8.52073 11.0034L1.21194 11.0034C0.934159 11.0034 0.743568 11.2049 0.743568 11.4881Z" fill="#D41F35"/>
</g>
</g>
<defs>
<clipPath id="clip0_71_2489">
<rect width="8.25643" height="11.29" fill="white" transform="matrix(-1 0 0 -1 9 12)"/>
</clipPath>
</defs>
</svg>
