<svg width="48" height="48" viewBox="0 0 48 48" fill="none" xmlns="http://www.w3.org/2000/svg">
<circle cx="24" cy="24" r="24" fill="#D41F35"/>
<path d="M24.0001 17.3456C25.2656 17.3456 26.291 18.371 26.291 19.6365C26.291 20.9019 25.2656 21.9274 24.0001 21.9274C22.7346 21.9274 21.7092 20.9019 21.7092 19.6365C21.7092 18.371 22.7346 17.3456 24.0001 17.3456ZM24.0001 27.1637C27.2401 27.1637 30.6546 28.7565 30.6546 29.4546V30.6546H17.3456V29.4546C17.3456 28.7565 20.7601 27.1637 24.0001 27.1637ZM24.0001 15.2728C21.5892 15.2728 19.6365 17.2256 19.6365 19.6365C19.6365 22.0474 21.5892 24.0001 24.0001 24.0001C26.411 24.0001 28.3637 22.0474 28.3637 19.6365C28.3637 17.2256 26.411 15.2728 24.0001 15.2728ZM24.0001 25.091C21.0874 25.091 15.2728 26.5528 15.2728 29.4546V32.7274H32.7274V29.4546C32.7274 26.5528 26.9128 25.091 24.0001 25.091Z" fill="white"/>
</svg>
