<svg width="17" height="16" viewBox="0 0 17 16" fill="none" xmlns="http://www.w3.org/2000/svg">
<g id="Icon (heroicons-mini) https://heroicons.com/">
<g id="Union">
<path d="M2.89999 7.99999C2.89999 7.33725 3.43725 6.79999 4.09999 6.79999C4.76274 6.79999 5.29999 7.33725 5.29999 7.99999C5.29999 8.66273 4.76274 9.19999 4.09999 9.19999C3.43725 9.19999 2.89999 8.66273 2.89999 7.99999Z" fill="#313131"/>
<path d="M7.29999 7.99999C7.29999 7.33725 7.83725 6.79999 8.49999 6.79999C9.16274 6.79999 9.69999 7.33725 9.69999 7.99999C9.69999 8.66273 9.16274 9.19999 8.49999 9.19999C7.83725 9.19999 7.29999 8.66273 7.29999 7.99999Z" fill="#313131"/>
<path d="M12.9 6.79999C12.2373 6.79999 11.7 7.33725 11.7 7.99999C11.7 8.66273 12.2373 9.19999 12.9 9.19999C13.5627 9.19999 14.1 8.66273 14.1 7.99999C14.1 7.33725 13.5627 6.79999 12.9 6.79999Z" fill="#313131"/>
</g>
</g>
</svg>
