<svg width="16" height="16" viewBox="0 0 16 16" fill="none" xmlns="http://www.w3.org/2000/svg">
<g id="Icon (heroicons-mini) https://heroicons.com/">
<g id="Union">
<path d="M3.38415 10.9675C3.14528 11.1972 3.13784 11.577 3.36751 11.8159C3.59719 12.0547 3.97702 12.0622 4.21588 11.8325L7.81588 8.4325C7.93353 8.31938 8.00001 8.16321 8.00001 8C8.00001 7.83679 7.93353 7.68062 7.81588 7.5675L4.21588 4.1675C3.97702 3.93782 3.59719 3.94527 3.36751 4.18414C3.13784 4.423 3.14528 4.80282 3.38415 5.0325L6.53435 8L3.38415 10.9675Z" fill="#626262"/>
<path d="M8.18415 10.9675C7.94529 11.1972 7.93784 11.577 8.16751 11.8159C8.39719 12.0547 8.77702 12.0622 9.01588 11.8325L12.6159 8.4325C12.7335 8.31938 12.8 8.16321 12.8 8C12.8 7.83679 12.7335 7.68062 12.6159 7.5675L9.01588 4.1675C8.77702 3.93782 8.39719 3.94527 8.16751 4.18414C7.93784 4.423 7.94528 4.80282 8.18415 5.0325L11.3343 8L8.18415 10.9675Z" fill="#626262"/>
</g>
</g>
</svg>
