<svg width="173" height="46" viewBox="0 0 173 46" fill="none" xmlns="http://www.w3.org/2000/svg">
<path d="M13.0018 25.4444L0 17.1064V36.7854L13.0018 45.12L25.6647 36.7854V17.1064L13.0018 25.4444Z" fill="#F15A24"/>
<path d="M13.0018 8.33459L0 0V9.83949L13.0018 18.1741L25.6647 9.83949V0L13.0018 8.33459Z" fill="#F15A24"/>
<path d="M44.9467 34.6199C44.3671 34.6199 43.9095 34.447 43.574 34.1013C43.2384 33.7555 43.069 33.2641 43.069 32.6303V26.492H46.8244V23.1297H43.069V19.4556H38.6966V23.1263H36.3715V26.4886H38.6966V32.6845C38.6966 34.4775 39.1915 35.8299 40.1812 36.7348C41.1709 37.6398 42.5538 38.094 44.3298 38.094C45.0009 38.094 45.6517 38.0127 46.2787 37.8567C46.9058 37.6974 47.4413 37.4602 47.8921 37.1416L46.716 34.0572C46.2279 34.4334 45.6381 34.6199 44.9467 34.6199Z" fill="black"/>
<path d="M61.7922 24.1904C60.5211 23.1058 58.7383 22.5635 56.4403 22.5635C55.2438 22.5635 54.0677 22.7228 52.9085 23.0414C51.7493 23.36 50.7596 23.8074 49.936 24.387L51.5053 27.4409C52.0476 27.0104 52.7051 26.6715 53.4813 26.4172C54.2575 26.1664 55.0472 26.0376 55.8505 26.0376C57.0266 26.0376 57.9011 26.2986 58.4705 26.824C59.04 27.346 59.3247 28.0747 59.3247 29.0102H55.8505C54.3185 29.0102 53.0746 29.2033 52.1222 29.5864C51.1697 29.9694 50.4715 30.4981 50.0343 31.1692C49.5936 31.8403 49.3767 32.6267 49.3767 33.5249C49.3767 34.3858 49.6004 35.1586 50.0478 35.85C50.4952 36.5415 51.1426 37.0871 51.9832 37.4905C52.8238 37.8904 53.8338 38.0938 55.0099 38.0938C56.3352 38.0938 57.4198 37.843 58.2604 37.338C58.8298 36.9956 59.2772 36.5448 59.606 35.989V37.8701H63.697V29.2644C63.7004 26.9663 63.0632 25.275 61.7922 24.1904ZM58.0638 34.6332C57.4842 34.9789 56.8301 35.1518 56.1013 35.1518C55.3353 35.1518 54.732 34.9891 54.2948 34.6603C53.8541 34.3349 53.6372 33.8909 53.6372 33.3283C53.6372 32.8233 53.827 32.403 54.2134 32.0674C54.5964 31.7319 55.3014 31.5624 56.3284 31.5624H59.328V33.1046C59.0637 33.7791 58.6434 34.2875 58.0638 34.6332Z" fill="black"/>
<path d="M71.8282 24.7705V22.7876H67.6525V37.8672H72.0248V30.7494C72.0248 29.3123 72.3943 28.2514 73.1332 27.5667C73.8721 26.8855 74.8381 26.5431 76.0345 26.5431C76.204 26.5431 76.3599 26.5465 76.5124 26.5567C76.6616 26.5668 76.831 26.5804 77.0174 26.5973V22.5605C75.5973 22.5605 74.3906 22.8351 73.4009 23.3876C72.7603 23.7468 72.2384 24.2078 71.8282 24.7705Z" fill="black"/>
<path d="M90.887 24.7022C90.4362 24.1294 89.8939 23.6718 89.26 23.3363C88.2873 22.8211 87.1654 22.5669 85.8977 22.5669C84.4979 22.5669 83.2302 22.8652 82.0982 23.4651C80.9661 24.065 80.0611 24.909 79.3799 26.0004C78.6986 27.0918 78.3563 28.3798 78.3563 29.8542C78.3563 31.3116 78.6986 32.586 79.3799 33.6808C80.0611 34.7756 80.9695 35.623 82.0982 36.2331C83.2302 36.8398 84.4945 37.1448 85.8977 37.1448C87.1688 37.1448 88.2907 36.8838 89.26 36.3585C89.7922 36.0704 90.2565 35.7009 90.6599 35.2467V35.9111C90.6599 37.277 90.3108 38.304 89.6091 38.9954C88.9075 39.6869 87.7822 40.0326 86.2333 40.0326C85.2808 40.0326 84.3149 39.8801 83.3319 39.5716C82.3524 39.2632 81.5423 38.8463 80.9085 38.3243L79.1697 41.4629C80.0476 42.1544 81.1458 42.6729 82.4642 43.0187C83.7827 43.3644 85.1487 43.5373 86.5688 43.5373C89.2973 43.5373 91.3886 42.8729 92.846 41.5477C94.3035 40.219 95.0322 38.1548 95.0322 35.3518V22.794H90.8836V24.7022H90.887ZM90.2158 31.7861C89.8803 32.3454 89.4126 32.7826 88.816 33.091C88.2195 33.3995 87.5348 33.552 86.7688 33.552C86.0028 33.552 85.3215 33.3995 84.7216 33.091C84.1217 32.7826 83.6506 32.3488 83.3048 31.7861C82.9591 31.2269 82.7862 30.5795 82.7862 29.8508C82.7862 29.1051 82.9591 28.4543 83.3048 27.9018C83.6506 27.3494 84.1217 26.9223 84.7216 26.6139C85.3181 26.3054 86.0028 26.1529 86.7688 26.1529C87.5348 26.1529 88.2161 26.3054 88.816 26.6139C89.4126 26.9223 89.8803 27.3528 90.2158 27.9018C90.5514 28.4543 90.7209 29.1017 90.7209 29.8508C90.7175 30.5829 90.5514 31.2269 90.2158 31.7861Z" fill="black"/>
<path d="M110.017 23.5058C108.83 22.8787 107.498 22.5669 106.024 22.5669C104.492 22.5669 103.119 22.8991 101.902 23.5634C100.689 24.2277 99.7299 25.1428 99.0283 26.3088C98.3266 27.4782 97.9775 28.817 97.9775 30.3321C97.9775 31.8268 98.3334 33.1588 99.0418 34.3248C99.7502 35.4942 100.757 36.4127 102.055 37.0872C103.353 37.7583 104.861 38.0972 106.583 38.0972C107.946 38.0972 109.152 37.8871 110.2 37.4668C111.247 37.0465 112.115 36.4432 112.806 35.6602L110.481 33.1385C109.976 33.6232 109.42 33.9892 108.814 34.2299C108.207 34.4739 107.502 34.596 106.699 34.596C105.8 34.596 105.021 34.4333 104.356 34.1045C103.692 33.7791 103.18 33.3012 102.814 32.6742C102.618 32.3352 102.475 31.9658 102.384 31.5658H113.789C113.806 31.3794 113.826 31.1794 113.847 30.9625C113.864 30.7489 113.874 30.5558 113.874 30.3863C113.874 28.7594 113.528 27.3629 112.837 26.197C112.142 25.0276 111.203 24.1294 110.017 23.5058ZM104.075 26.3631C104.645 26.0377 105.302 25.8716 106.051 25.8716C106.797 25.8716 107.451 26.0343 108.014 26.3631C108.573 26.6918 109.014 27.1426 109.332 27.7222C109.542 28.1052 109.681 28.5357 109.752 29.0102H102.33C102.401 28.5391 102.54 28.1154 102.746 27.7358C103.062 27.1494 103.506 26.6918 104.075 26.3631Z" fill="black"/>
<path d="M123.568 34.6199C122.988 34.6199 122.531 34.447 122.195 34.1013C121.859 33.7555 121.69 33.2641 121.69 32.6303V26.492H125.445V23.1297H121.69V19.4556H117.318V23.1263H114.992V26.4886H117.318V32.6845C117.318 34.4775 117.812 35.8299 118.802 36.7348C119.792 37.6398 121.175 38.094 122.951 38.094C123.622 38.094 124.273 38.0127 124.9 37.8567C125.527 37.6974 126.062 37.4602 126.513 37.1416L125.337 34.0572C124.849 34.4334 124.259 34.6199 123.568 34.6199Z" fill="black"/>
<path d="M133.77 22.4824C133.77 21.7536 133.943 21.2079 134.288 20.8419C134.634 20.4758 135.126 20.2962 135.759 20.2962C136.095 20.2962 136.414 20.3436 136.712 20.4351C137.01 20.53 137.281 20.6588 137.525 20.8283L138.674 17.6626C138.264 17.3813 137.763 17.1779 137.176 17.0457C136.586 16.9135 135.976 16.8491 135.339 16.8491C133.472 16.8491 132.031 17.3575 131.021 18.3778C130.011 19.398 129.506 20.7571 129.506 22.4552V23.1263H127.181V26.4887H129.506V37.8669H133.878V26.4887H137.634V23.1263H133.766V22.4824H133.77Z" fill="black"/>
<path d="M151.066 23.56C149.815 22.8956 148.395 22.5635 146.806 22.5635C145.199 22.5635 143.772 22.8956 142.531 23.56C141.288 24.2243 140.308 25.1394 139.589 26.3054C138.871 27.4747 138.512 28.8136 138.512 30.3286C138.512 31.8234 138.871 33.1554 139.589 34.3214C140.308 35.4907 141.291 36.4093 142.531 37.0838C143.775 37.7549 145.199 38.0938 146.806 38.0938C148.395 38.0938 149.815 37.7582 151.066 37.0838C152.317 36.4126 153.3 35.4907 154.008 34.3214C154.716 33.1554 155.072 31.8234 155.072 30.3286C155.072 28.7966 154.716 27.451 154.008 26.2918C153.3 25.136 152.317 24.2243 151.066 23.56ZM150.141 32.5589C149.805 33.1859 149.348 33.6672 148.768 34.0028C148.188 34.3383 147.534 34.5078 146.806 34.5078C146.077 34.5078 145.423 34.3383 144.843 34.0028C144.263 33.6672 143.802 33.1859 143.457 32.5589C143.111 31.9318 142.938 31.1896 142.938 30.332C142.938 29.4542 143.111 28.7051 143.457 28.0882C143.802 27.4714 144.263 26.9968 144.843 26.6579C145.423 26.3224 146.077 26.1529 146.806 26.1529C147.534 26.1529 148.188 26.3224 148.768 26.6579C149.348 26.9935 149.805 27.4714 150.141 28.0882C150.476 28.7051 150.646 29.4542 150.646 30.332C150.646 31.1896 150.476 31.9318 150.141 32.5589Z" fill="black"/>
<path d="M172.06 37.8701L166.227 30.1659L171.837 22.7905H167.183L163.905 27.1934L160.709 22.7905H155.801L161.407 30.2642L155.608 37.8701H160.37L163.797 33.2503L167.098 37.8701H172.06Z" fill="black"/>
</svg>
