<svg width="47" height="47" viewBox="0 0 47 47" fill="none" xmlns="http://www.w3.org/2000/svg">
<g clip-path="url(#clip0_83_5440)">
<path d="M0 23.5C0 36.4788 10.5213 47 23.5 47C36.4788 47 47 36.4788 47 23.5C47 10.5213 36.4788 0 23.5 0C10.5213 0 0 10.5213 0 23.5Z" fill="url(#paint0_linear_83_5440)"/>
<path fill-rule="evenodd" clip-rule="evenodd" d="M35.25 23.5C35.25 29.9889 29.9889 35.25 23.5 35.25C17.0111 35.25 11.75 29.9889 11.75 23.5C11.75 17.0111 17.0111 11.75 23.5 11.75C29.9889 11.75 35.25 17.0111 35.25 23.5ZM23.9211 20.4244C22.7784 20.8993 20.4939 21.8833 17.0688 23.3756C16.5127 23.5969 16.2209 23.8133 16.1944 24.0248C16.1493 24.3832 16.5979 24.5242 17.2068 24.7151C17.2901 24.7415 17.3763 24.768 17.4645 24.7973C18.0646 24.9923 18.8715 25.2203 19.2906 25.2292C19.6714 25.2371 20.0965 25.0804 20.5654 24.7592C23.7654 22.5982 25.4172 21.5065 25.521 21.483C25.5944 21.4662 25.6962 21.4448 25.7648 21.5065C25.8334 21.5671 25.8265 21.6827 25.8196 21.714C25.7747 21.903 24.018 23.5372 23.1074 24.3832C22.8233 24.6467 22.6227 24.8336 22.5816 24.8767C22.4895 24.9717 22.3955 25.0628 22.3055 25.1498C21.7473 25.6865 21.3302 26.0898 22.329 26.7478C22.8087 27.0642 23.1926 27.3257 23.5753 27.5861C23.9935 27.871 24.4106 28.1549 24.9511 28.5095C25.0882 28.5995 25.2195 28.6925 25.3477 28.7835C25.8343 29.1312 26.272 29.4426 26.8125 29.3937C27.1259 29.3643 27.4509 29.0695 27.6154 28.1893C28.0042 26.1075 28.7699 21.5994 28.9472 19.741C28.9579 19.5867 28.9513 19.4317 28.9275 19.2788C28.9132 19.1554 28.8532 19.0418 28.7592 18.9605C28.619 18.846 28.4017 18.8216 28.3038 18.8235C27.8622 18.8313 27.1847 19.0673 23.9211 20.4244Z" fill="white"/>
</g>
<defs>
<linearGradient id="paint0_linear_83_5440" x1="3.50177e-07" y1="23.5" x2="47" y2="23.5" gradientUnits="userSpaceOnUse">
<stop stop-color="#FF6D18"/>
<stop offset="1" stop-color="#FFAE05"/>
</linearGradient>
<clipPath id="clip0_83_5440">
<rect width="47" height="47" fill="white"/>
</clipPath>
</defs>
</svg>
