<svg width="32" height="32" viewBox="0 0 32 32" fill="none" xmlns="http://www.w3.org/2000/svg">
<g clip-path="url(#clip0_83_5323)">
<path d="M0 16C0 24.8366 7.16344 32 16 32C24.8366 32 32 24.8366 32 16C32 7.16344 24.8366 0 16 0C7.16344 0 0 7.16344 0 16Z" fill="white"/>
<path fill-rule="evenodd" clip-rule="evenodd" d="M24 16C24 20.418 20.418 24 16 24C11.582 24 8 20.418 8 16C8 11.582 11.582 8 16 8C20.418 8 24 11.582 24 16ZM16.2867 13.906C15.5087 14.2293 13.9533 14.8993 11.6213 15.9153C11.2427 16.066 11.044 16.2133 11.026 16.3573C10.9953 16.6013 11.3007 16.6973 11.7153 16.8273C11.772 16.8453 11.8307 16.8633 11.8907 16.8833C12.2993 17.016 12.8487 17.1713 13.134 17.1773C13.3933 17.1827 13.6827 17.076 14.002 16.8573C16.1807 15.386 17.3053 14.6427 17.376 14.6267C17.426 14.6153 17.4953 14.6007 17.542 14.6427C17.5887 14.684 17.584 14.7627 17.5793 14.784C17.5487 14.9127 16.3527 16.0253 15.7327 16.6013C15.5393 16.7807 15.4027 16.908 15.3747 16.9373C15.312 17.002 15.248 17.064 15.1867 17.1233C14.8067 17.4887 14.5227 17.7633 15.2027 18.2113C15.5293 18.4267 15.7907 18.6047 16.0513 18.782C16.336 18.976 16.62 19.1693 16.988 19.4107C17.0813 19.472 17.1707 19.5353 17.258 19.5973C17.5893 19.834 17.8873 20.046 18.2553 20.0127C18.4687 19.9927 18.69 19.792 18.802 19.1927C19.0667 17.7753 19.588 14.706 19.7087 13.4407C19.716 13.3356 19.7115 13.2301 19.6953 13.126C19.6856 13.042 19.6447 12.9646 19.5807 12.9093C19.4853 12.8313 19.3373 12.8147 19.2707 12.816C18.97 12.8213 18.5087 12.982 16.2867 13.906Z" fill="url(#paint0_linear_83_5323)"/>
</g>
<defs>
<linearGradient id="paint0_linear_83_5323" x1="8" y1="16" x2="24" y2="16" gradientUnits="userSpaceOnUse">
<stop stop-color="#FF6D18"/>
<stop offset="1" stop-color="#FFAE05"/>
</linearGradient>
<clipPath id="clip0_83_5323">
<rect width="32" height="32" fill="white"/>
</clipPath>
</defs>
</svg>
