<svg xmlns="http://www.w3.org/2000/svg" width="102" height="102" viewBox="0 0 102 102" fill="none">
<g filter="url(#filter0_d_4102_9804)">
<circle cx="51" cy="47" r="20" fill="#D3F3FF" fill-opacity="0.2" shape-rendering="crispEdges"/>
</g>
<path d="M49.9999 56.4023C49.9999 56.9546 50.4476 57.4023 50.9999 57.4023C51.5522 57.4023 51.9999 56.9546 51.9999 56.4023L49.9999 56.4023ZM51.707 37.8907C51.3165 37.5002 50.6833 37.5002 50.2928 37.8907L43.9288 44.2547C43.5383 44.6452 43.5383 45.2784 43.9288 45.6689C44.3193 46.0594 44.9525 46.0594 45.343 45.6689L50.9999 40.0121L56.6567 45.6689C57.0473 46.0594 57.6804 46.0594 58.0709 45.6689C58.4615 45.2784 58.4615 44.6452 58.0709 44.2547L51.707 37.8907ZM51.9999 56.4023L51.9999 38.5979L49.9999 38.5979L49.9999 56.4023L51.9999 56.4023Z" fill="white"/>
<defs>
<filter id="filter0_d_4102_9804" x="0" y="0" width="102" height="102" filterUnits="userSpaceOnUse" color-interpolation-filters="sRGB">
<feFlood flood-opacity="0" result="BackgroundImageFix"/>
<feColorMatrix in="SourceAlpha" type="matrix" values="0 0 0 0 0 0 0 0 0 0 0 0 0 0 0 0 0 0 127 0" result="hardAlpha"/>
<feOffset dy="4"/>
<feGaussianBlur stdDeviation="15.5"/>
<feComposite in2="hardAlpha" operator="out"/>
<feColorMatrix type="matrix" values="0 0 0 0 0.160187 0 0 0 0 0.157813 0 0 0 0 0.1875 0 0 0 0.08 0"/>
<feBlend mode="normal" in2="BackgroundImageFix" result="effect1_dropShadow_4102_9804"/>
<feBlend mode="normal" in="SourceGraphic" in2="effect1_dropShadow_4102_9804" result="shape"/>
</filter>
</defs>
</svg>