<svg width="199" height="50" viewBox="0 0 199 50" fill="none" xmlns="http://www.w3.org/2000/svg">
<g id="Logo" clip-path="url(#clip0_1790_59455)">
<path id="Vector" fill-rule="evenodd" clip-rule="evenodd" d="M148.539 44.2374C149.044 44.2336 149.181 44.4011 149.173 44.8578C149.154 46.3766 149.154 47.8953 149.173 49.4102C149.177 49.8213 149.04 49.9888 148.606 49.9888C142.336 49.9812 136.058 50.023 129.788 49.985C125.002 49.9545 122.155 45.1243 124.544 41.101C128.66 34.1696 132.776 27.2345 136.876 20.2956C137.487 19.2602 138.02 18.183 138.592 17.1249C139.782 14.9134 139.896 12.5078 139.908 10.087C139.912 8.87274 139.884 7.65852 139.904 6.4443C139.911 5.98374 139.747 5.78581 139.257 5.80865C138.694 5.83529 135.858 5.80484 135.29 5.81626C134.903 5.82387 134.719 5.68304 134.722 5.28337L136.99 0.559712C136.99 0.15624 137.186 0.0344376 137.57 0.0382439C139.367 0.0458566 141.161 0.0192123 142.958 0.0496629C144.497 0.0763073 145.766 1.26769 145.766 2.79022C145.766 6.5623 145.762 10.3382 145.606 14.1065C145.527 16.0287 144.877 17.8823 143.941 19.5838C142.3 22.5603 140.601 25.5026 138.885 28.4373C136.5 32.5101 134.1 36.5714 131.656 40.6061C130.877 41.8927 131.57 43.4152 132.518 43.9405C133.614 44.5495 146.362 44.2602 148.547 44.2412L148.539 44.2374Z" fill="white"/>
<path id="Vector_2" fill-rule="evenodd" clip-rule="evenodd" d="M164.968 26.5799C163.793 26.5799 162.747 26.5837 161.698 26.5799C160.664 26.5761 159.63 26.5875 158.596 26.5304C158.337 26.5152 157.981 26.3401 157.856 26.1307C156.528 23.8736 153.415 18.3963 152.929 15.8041C152.624 14.175 152.49 12.4964 152.44 10.8369C152.365 8.24095 152.424 5.64123 152.432 3.0415C152.436 1.24491 153.712 0.0116606 155.561 0.00785425C157.257 0.00785425 158.956 0.0230796 160.652 0.000241582C161.161 -0.00737109 161.337 0.163914 161.333 0.658737L163.26 5.21111C163.268 5.72116 163.053 5.88103 162.563 5.85819C162.019 5.83155 159.544 5.8658 158.995 5.85058C158.604 5.83916 158.416 5.97619 158.431 6.37585C158.51 8.85758 158.522 11.3393 158.674 13.8134C158.85 16.653 163.268 23.5005 164.764 26.0889C164.827 26.1954 164.858 26.321 164.964 26.5799H164.968Z" fill="white"/>
<path id="Vector_3" fill-rule="evenodd" clip-rule="evenodd" d="M57.4198 39.1213C57.4198 40.7237 57.1653 42.1854 56.6601 43.5062C56.1471 44.8346 55.3951 45.9841 54.3965 46.9547C53.3979 47.9253 52.176 48.6828 50.7309 49.208C49.2897 49.7333 47.7036 49.9998 45.9805 49.9998C44.2573 49.9998 42.6321 49.7333 41.2144 49.208C39.8007 48.6828 38.5905 47.9443 37.5919 46.989C36.5933 46.0336 35.8218 44.8764 35.2891 43.5214C34.7565 42.1587 34.4902 40.6971 34.4902 39.1213C34.4902 37.5454 34.7644 35.9963 35.3048 34.664C35.8453 33.3204 36.6168 32.1709 37.6232 31.2003C38.6336 30.2373 39.8398 29.5065 41.2418 29.0078C41.982 28.749 42.7261 28.5549 43.4976 28.4217C44.2652 28.2961 45.0993 28.2275 45.9883 28.2275C47.7389 28.2275 49.3171 28.4864 50.727 29.0002C52.1368 29.5103 53.3313 30.2487 54.3221 31.2003C55.3051 32.1557 56.0726 33.3014 56.6131 34.6298C57.1535 35.9658 57.4277 37.4617 57.4277 39.1213H57.4198ZM40.4782 39.1327C40.4782 41.1615 40.9638 42.7297 41.9428 43.8297C42.9141 44.9412 44.2534 45.4893 45.9492 45.4893C47.0575 45.4893 48.0209 45.2419 48.8472 44.7432C49.6735 44.2522 50.3119 43.5252 50.7622 42.5698C51.2048 41.6144 51.4319 40.4687 51.4319 39.1289C51.4319 37.1153 50.9463 35.5471 49.9829 34.4357C49.0117 33.3242 47.6645 32.7685 45.9492 32.7685C44.2338 32.7685 42.9337 33.3318 41.9507 34.4547C40.9716 35.5776 40.4821 37.1382 40.4821 39.1251L40.4782 39.1327Z" fill="white"/>
<path id="Vector_4" fill-rule="evenodd" clip-rule="evenodd" d="M143.471 32.2436C143.464 33.2941 142.579 34.1391 141.505 34.1201C140.432 34.1011 139.583 33.2294 139.61 32.1713C139.637 31.1512 140.499 30.3252 141.537 30.3252C142.602 30.3252 143.475 31.1892 143.468 32.2436H143.471Z" fill="white" stroke="white" stroke-width="0.22" stroke-miterlimit="10"/>
<path id="Vector_5" fill-rule="evenodd" clip-rule="evenodd" d="M120.887 36.2096V28.5513H125.43C123.918 31.1053 122.402 33.6556 120.887 36.2096Z" fill="white"/>
<path id="Vector_6" fill-rule="evenodd" clip-rule="evenodd" d="M120.593 49.6041H115.834C113.751 49.6041 112.047 49.3377 110.728 48.8124C109.4 48.2871 108.429 47.4573 107.802 46.3192C107.172 45.1811 106.858 43.7005 106.858 41.8811V28.5513H112.56V41.47C112.56 42.4139 112.662 43.1371 112.862 43.6244C113.062 44.1078 113.422 44.4694 113.951 44.6863C114.472 44.8804 115.251 44.9794 116.297 44.9794H118.024C118.192 45.9082 118.525 46.8179 119.03 47.6743C119.461 48.4051 119.99 49.0522 120.597 49.6041H120.593Z" fill="white"/>
<path id="Vector_7" fill-rule="evenodd" clip-rule="evenodd" d="M99.4766 45.0973H105.555V49.604H97.7926C96.837 49.604 95.9754 49.5583 95.2235 49.4632C94.4638 49.3756 93.7471 49.231 93.0618 49.0369C91.7694 48.6562 90.6298 47.9939 89.635 47.05C88.6521 46.0984 87.8727 44.9374 87.3088 43.5672C86.7488 42.1969 86.4668 40.7314 86.4668 39.1746C86.4668 37.4922 86.7488 35.9659 87.301 34.569C87.8531 33.1797 88.6403 32.0187 89.6546 31.0786C90.6728 30.1498 91.8164 29.4913 93.0931 29.1107C94.3698 28.7301 95.9363 28.5474 97.7887 28.5474H105.551V33.0921H99.4726C98.6032 33.0921 97.8396 33.1302 97.1738 33.2101C96.5159 33.2824 95.9245 33.4157 95.4037 33.5946C94.3854 33.9486 93.6335 34.5728 93.1479 35.4559C92.6623 36.3389 92.4156 37.5836 92.4156 39.1708C92.4156 41.6564 93.2615 43.4111 94.9572 44.4274C95.4977 44.7281 96.1008 44.9108 96.7626 44.9869C97.4323 45.0592 98.3369 45.0935 99.4687 45.0935L99.4766 45.0973Z" fill="white"/>
<path id="Vector_8" fill-rule="evenodd" clip-rule="evenodd" d="M76.8363 49.6041C73.2529 49.6041 70.5468 48.721 68.7219 46.9473C66.8891 45.1735 65.9727 42.5548 65.9727 39.0986C65.9727 35.6425 66.8891 33.0199 68.7219 31.2309C70.5468 29.442 73.2569 28.5513 76.8363 28.5513H85.1701V32.9362H77.6235C76.3507 32.9362 75.3481 33.0351 74.6001 33.2369C73.86 33.4348 73.296 33.8345 72.9122 34.4321C72.7203 34.7366 72.5715 35.102 72.4619 35.5283C72.3444 35.9546 72.2896 36.4304 72.2896 36.9633H85.1701V41.3482H72.2896C72.2896 41.8849 72.3365 42.3645 72.4384 42.7755C72.5402 43.1866 72.6929 43.552 72.8887 43.8603C73.2529 44.4047 73.7777 44.7624 74.467 44.9452C75.1641 45.124 76.198 45.2192 77.5765 45.2192H85.1662V49.6041H76.8324H76.8363Z" fill="white"/>
<path id="Vector_9" d="M64.6724 20.9727H58.7236V49.6001H64.6724V20.9727Z" fill="white"/>
<path id="Vector_10" fill-rule="evenodd" clip-rule="evenodd" d="M16.6088 42.9428L24.1162 20.9727H33.1902V49.6001H27.12L27.6134 27.3102L20.059 49.6001H13.5071L5.6903 27.0742L6.3169 49.033C6.32473 49.307 6.08584 49.5316 5.80387 49.5316H0.513028C0.231058 49.5316 0 49.307 0 49.033V21.4561C0 21.1896 0.223226 20.9765 0.493447 20.9765H8.30244C8.48258 20.9765 8.63532 21.1059 8.66665 21.2734L16.6088 42.9466V42.9428Z" fill="white"/>
<path id="Vector_11" fill-rule="evenodd" clip-rule="evenodd" d="M151.515 30.2602C151.128 30.9758 150.47 31.3641 149.734 31.6571C148.872 31.9997 147.979 32.2738 147.239 32.8523C145.692 34.0666 145.038 35.6424 145.234 37.5532C145.3 38.1812 145.449 38.8054 145.488 39.4373C145.606 41.2377 144.239 42.6955 142.426 42.7488C140.609 42.8021 139.085 41.3823 139.113 39.6124C139.128 38.3487 139.747 37.4085 140.926 36.8566C141.415 36.6244 141.936 36.4455 142.441 36.2476C144.948 35.2694 146.264 32.9818 145.825 30.3896C145.723 29.7997 145.625 29.2021 145.621 28.6045C145.602 26.3968 148.112 24.9161 150.141 25.9172C151.864 26.766 152.463 28.6654 151.515 30.2602Z" fill="white"/>
<path id="Vector_12" fill-rule="evenodd" clip-rule="evenodd" d="M153.896 28.9472H165.575C171.515 28.9472 174.484 31.5735 174.484 36.8225V50H159.14C156.994 50 155.337 49.4747 154.182 48.4242C153.027 47.3736 152.451 45.8739 152.451 43.9327C152.451 41.5347 153.129 39.8181 154.484 38.7903C155.831 37.7588 158.032 37.2412 161.09 37.2412H168.617V36.7311C168.617 35.4293 168.226 34.5311 167.443 34.0324C166.663 33.5414 165.324 33.294 163.436 33.294H153.896V28.9472ZM161.486 45.775H168.617V41.4281H161.889C160.644 41.4281 159.751 41.5956 159.195 41.9191C158.643 42.2503 158.361 42.8707 158.361 43.7728C158.361 44.6026 158.592 45.1431 159.066 45.3943C159.532 45.6455 160.338 45.775 161.486 45.775ZM186.648 33.4957H183.162V45.4971H187.094C189.248 45.4971 190.772 45.067 191.668 44.1953C192.565 43.3313 193.008 41.8012 193.008 39.6163C193.008 37.4315 192.514 35.7948 191.524 34.8698C190.533 33.9525 188.911 33.4957 186.648 33.4957ZM183.162 21.3726V28.9472H188.093C190.165 28.9472 191.868 29.187 193.208 29.6589C194.539 30.1309 195.694 30.9759 196.673 32.1825C198.224 34.1162 199 36.4609 199 39.2205C199 41.4548 198.585 43.3808 197.754 45.0023C196.928 46.6162 195.722 47.8532 194.136 48.7096C192.557 49.5661 190.662 50 188.461 50H177.46V21.3726H183.162Z" fill="white"/>
<path id="Vector_13" fill-rule="evenodd" clip-rule="evenodd" d="M151.601 36.7919C151.593 37.8425 150.708 38.6875 149.635 38.6684C148.562 38.6494 147.712 37.7778 147.74 36.7196C147.767 35.6995 148.629 34.8735 149.667 34.8735C150.732 34.8735 151.605 35.7376 151.597 36.7919H151.601Z" fill="white" stroke="white" stroke-width="0.22" stroke-miterlimit="10"/>
<path id="Vector_14" fill-rule="evenodd" clip-rule="evenodd" d="M151.049 22.0844C151.041 23.0968 150.192 23.9076 149.158 23.8886C148.124 23.8695 147.309 23.0321 147.337 22.0158C147.364 21.0338 148.19 20.2421 149.193 20.2383C150.219 20.2383 151.057 21.0719 151.049 22.0844Z" fill="white" stroke="white" stroke-width="0.22" stroke-miterlimit="10"/>
<path id="Vector_15" fill-rule="evenodd" clip-rule="evenodd" d="M124.004 49.4063H115.831C113.747 49.4063 112.044 49.1399 110.724 48.6146C109.396 48.0894 108.425 47.2596 107.798 46.1215C107.168 44.9834 106.854 43.5027 106.854 41.6833V28.3535H112.557V41.2722C112.557 42.2162 112.658 42.9394 112.858 43.4266C113.058 43.91 113.418 44.2716 113.947 44.4886C114.468 44.6827 115.247 44.7817 116.293 44.7817H120.886V28.3535H126.588V34.0668L122.946 40.2026C121.517 42.6082 121.446 45.5049 122.876 47.9295C123.197 48.4738 123.577 48.9686 124.008 49.4063H124.004Z" fill="white"/>
</g>
<defs>
<clipPath id="clip0_1790_59455">
<rect width="199" height="50" fill="white"/>
</clipPath>
</defs>
</svg>
