<svg width="13" height="11" viewBox="0 0 13 11" fill="none" xmlns="http://www.w3.org/2000/svg">
<g id="arrowshape.turn.up.forward" clip-path="url(#clip0_71_2497)">
<g id="Group">
<path id="Vector" d="M6.67699 10.3864C6.95448 10.3864 7.18104 10.2732 7.45288 10.0183L11.9212 5.79919C12.1364 5.5953 12.21 5.3801 12.21 5.19322C12.21 5.00069 12.1421 4.79113 11.9212 4.58159L7.45288 0.402092C7.15272 0.118929 6.96584 0 6.6883 0C6.29188 0 6.00873 0.31148 6.00873 0.69092V2.83164H5.84452C1.7726 2.83164 0 5.44239 0 9.62757C0 10.1146 0.2775 10.3864 0.583316 10.3864C0.821175 10.3864 1.08168 10.3298 1.2799 9.96736C2.26531 8.11548 3.65281 7.56045 5.84452 7.56045H6.00873V9.72384C6.00873 10.1033 6.29188 10.3864 6.67699 10.3864ZM6.99981 9.16886C6.95448 9.16886 6.92051 9.13483 6.92051 9.0839V6.89219C6.92051 6.76195 6.86387 6.70531 6.73363 6.70531H5.97476C3.2847 6.70531 1.56872 7.63976 0.90046 9.06123C0.883468 9.10086 0.872145 9.11787 0.843826 9.11787C0.821175 9.11787 0.804183 9.10086 0.804183 9.05558C0.917451 6.38249 2.08408 3.68679 5.97476 3.68679H6.73363C6.86387 3.68679 6.92051 3.63016 6.92051 3.4999V1.25158C6.92051 1.20627 6.95448 1.1723 7.00547 1.1723C7.03944 1.1723 7.07342 1.19495 7.10174 1.2176L11.134 5.0856C11.1736 5.12528 11.1906 5.15925 11.1906 5.19322C11.1906 5.2272 11.1793 5.25552 11.134 5.30085L7.09608 9.11787C7.06776 9.15185 7.03379 9.16886 6.99981 9.16886Z" fill="#D41F35"/>
</g>
</g>
<defs>
<clipPath id="clip0_71_2497">
<rect width="12.21" height="10.3921" fill="white"/>
</clipPath>
</defs>
</svg>
