<svg width="16" height="16" viewBox="0 0 16 16" fill="none" xmlns="http://www.w3.org/2000/svg">
<g id="Icon (heroicons-mini) https://heroicons.com/">
<path id="Vector (Stroke)" fill-rule="evenodd" clip-rule="evenodd" d="M12.6325 11.8159C12.4028 12.0547 12.023 12.0622 11.7841 11.8325L8.18414 8.4325C8.06649 8.31938 8 8.16321 8 8C8 7.83679 8.06649 7.68062 8.18414 7.5675L11.7841 4.1675C12.023 3.93782 12.4028 3.94527 12.6325 4.18413C12.8622 4.423 12.8547 4.80282 12.6159 5.0325L9.46567 8L12.6159 10.9675C12.8547 11.1972 12.8622 11.577 12.6325 11.8159ZM7.8325 11.8159C7.60283 12.0547 7.223 12.0622 6.98414 11.8325L3.38414 8.4325C3.26649 8.31938 3.2 8.16321 3.2 8C3.2 7.83679 3.26649 7.68062 3.38414 7.5675L6.98414 4.1675C7.223 3.93782 7.60282 3.94527 7.8325 4.18413C8.06218 4.423 8.05473 4.80282 7.81587 5.0325L4.66567 8L7.81587 10.9675C8.05473 11.1972 8.06218 11.577 7.8325 11.8159Z" fill="#626262"/>
</g>
</svg>
