<svg width="18" height="20" viewBox="0 0 18 20" fill="none" xmlns="http://www.w3.org/2000/svg">
<path d="M0.157319 15.0047C0.721915 14.0044 1.56147 11.2165 1.56147 7.60239C1.56147 5.58611 2.34497 3.65241 3.73961 2.22669C5.13425 0.800963 7.02578 -9.59397e-07 8.99809 -7.86972e-07C10.9704 -6.14546e-07 12.8619 0.800963 14.2566 2.22669C15.6512 3.65241 16.4347 5.58611 16.4347 7.60239C16.4347 11.2165 17.2752 14.0044 17.8398 14.9997C17.944 15.1821 17.9992 15.3893 18 15.6005C18.0008 15.8117 17.947 16.0193 17.8442 16.2024C17.7413 16.3856 17.5931 16.5378 17.4143 16.6436C17.2356 16.7495 17.0327 16.8052 16.8261 16.8053L12.4982 16.8053C12.4005 17.6843 11.9897 18.4959 11.3442 19.0851C10.6986 19.6743 9.86351 20 8.99809 20C8.13268 20 7.29754 19.6743 6.65199 19.0851C6.00644 18.4959 5.59566 17.6843 5.49799 16.8053L1.17007 16.8053C0.964304 16.8045 0.762343 16.7485 0.584418 16.6429C0.406491 16.5372 0.258849 16.3856 0.156281 16.2033C0.0537114 16.0209 -0.000180673 15.8142 2.45057e-06 15.6039C0.000183667 15.3935 0.0544344 15.1869 0.157319 15.0047ZM8.99809 19.206C9.65687 19.206 10.2936 18.9632 10.7915 18.5223C11.2895 18.0814 11.6154 17.4718 11.7095 16.8053L6.28666 16.8053C6.38077 17.4718 6.70667 18.0814 7.20464 18.5223C7.70261 18.9632 8.33931 19.206 8.99809 19.206ZM0.832486 15.805C0.865941 15.8661 0.914822 15.9169 0.974032 15.952C1.03324 15.9872 1.10061 16.0055 1.16909 16.005L16.8261 16.005C16.8946 16.0055 16.962 15.9872 17.0212 15.9521C17.0804 15.9169 17.1293 15.8661 17.1627 15.805C17.1971 15.7441 17.2152 15.6751 17.2152 15.6049C17.2152 15.5347 17.1971 15.4657 17.1627 15.4048C16.4347 14.1214 15.6519 11.1355 15.6519 7.60239C15.6519 5.79835 14.9509 4.0682 13.7031 2.79255C12.4552 1.5169 10.7628 0.800251 8.99809 0.800251C7.23339 0.800251 5.54097 1.5169 4.29313 2.79255C3.0453 4.0682 2.34427 5.79835 2.34427 7.60239C2.34427 11.1345 1.56147 14.1214 0.833464 15.4048C0.798962 15.4656 0.780709 15.5345 0.780537 15.6048C0.780366 15.675 0.798281 15.7441 0.832486 15.805Z" fill="#FFE79F"/>
</svg>
