<svg width="62" height="62" viewBox="0 0 62 62" fill="none" xmlns="http://www.w3.org/2000/svg">
<g id="Group 97">
<path id="path130" d="M61.62 30.8099C61.62 47.8299 47.82 61.62 30.81 61.62C13.8 61.62 0 47.8199 0 30.8099C0 13.7899 13.8 0 30.81 0C47.82 0 61.62 13.7899 61.62 30.8099Z" fill="#132237"/>
<g id="Group">
<g id="g72">
<path id="path74" d="M38.064 21.8347H15.7232C15.3493 21.8347 15.0459 22.1382 15.0459 22.5121C15.0459 22.8848 15.3493 23.1895 15.7232 23.1895H38.064C38.4367 23.1895 38.7413 22.8848 38.7413 22.5121C38.7413 22.1382 38.4367 21.8347 38.064 21.8347Z" fill="#FFE79F"/>
</g>
<g id="g76">
<path id="path78" d="M38.064 30.74H15.7232C15.3493 30.74 15.0459 31.0434 15.0459 31.4174C15.0459 31.7901 15.3493 32.0947 15.7232 32.0947H38.064C38.4367 32.0947 38.7413 31.7901 38.7413 31.4174C38.7413 31.0434 38.4367 30.74 38.064 30.74Z" fill="#FFE79F"/>
</g>
<g id="g80">
<path id="path82" d="M38.064 39.645H15.7232C15.3493 39.645 15.0459 39.9496 15.0459 40.3224C15.0459 40.6951 15.3493 40.9998 15.7232 40.9998H38.064C38.4367 40.9998 38.7413 40.6951 38.7413 40.3224C38.7413 39.9496 38.4367 39.645 38.064 39.645Z" fill="#FFE79F"/>
</g>
<g id="g84">
<path id="path86" d="M44.0674 30.74H42.7749C42.4023 30.74 42.0977 31.0434 42.0977 31.4174C42.0977 31.7901 42.4023 32.0947 42.7749 32.0947H44.0674C44.4413 32.0947 44.7447 31.7901 44.7447 31.4174C44.7447 31.0434 44.4413 30.74 44.0674 30.74Z" fill="#FFE79F"/>
</g>
<g id="g88">
<path id="path90" d="M44.0674 39.645H42.7749C42.4023 39.645 42.0977 39.9496 42.0977 40.3224C42.0977 40.6951 42.4023 40.9998 42.7749 40.9998H44.0674C44.4413 40.9998 44.7447 40.6951 44.7447 40.3224C44.7447 39.9496 44.4413 39.645 44.0674 39.645Z" fill="#FFE79F"/>
</g>
<g id="g92">
<path id="path94" d="M49.8698 16.6357C49.7408 16.5067 49.5712 16.4493 49.3884 16.435C49.208 16.435 49.0408 16.5055 48.9118 16.6333L43.6082 21.903L42.7816 21.13C42.6502 21.0058 42.4794 20.9353 42.2954 20.9472C42.1151 20.9532 41.9478 21.0297 41.8248 21.1623C41.5692 21.4347 41.5835 21.8635 41.857 22.118L43.1602 23.3389C43.2869 23.456 43.4505 23.5217 43.6225 23.5217C43.8017 23.5217 43.9713 23.4512 44.1003 23.3246L49.8674 17.5938C49.9952 17.466 50.0657 17.2964 50.0669 17.116C50.0669 16.9344 49.9976 16.7635 49.8698 16.6357Z" fill="#FFE79F"/>
</g>
</g>
</g>
</svg>
