<svg width="62" height="62" viewBox="0 0 62 62" fill="none" xmlns="http://www.w3.org/2000/svg">
<g id="Group 96">
<path id="path130" d="M61.62 30.8099C61.62 47.8299 47.82 61.62 30.81 61.62C13.8 61.62 0 47.8199 0 30.8099C0 13.7899 13.8 0 30.81 0C47.82 0 61.62 13.7899 61.62 30.8099Z" fill="#132237"/>
<g id="Group">
<path id="Vector" d="M46.7169 30.7196V18.6265C46.7169 18.1951 46.5456 17.7814 46.2405 17.4764C45.9355 17.1714 45.5218 17 45.0904 17H16.6265C16.1951 17 15.7814 17.1714 15.4764 17.4764C15.1714 17.7814 15 18.1951 15 18.6265V40.747C15 41.1784 15.1714 41.5921 15.4764 41.8972C15.7814 42.2022 16.1951 42.3735 16.6265 42.3735H38.7999M15 22.8847H46.7169" stroke="#FFE79F" stroke-linecap="round" stroke-linejoin="round"/>
<path id="Vector_2" d="M41.8281 43.9999C43.5228 43.4818 45.0317 42.4852 46.1734 41.1299C47.315 39.7745 48.0408 38.1182 48.2634 36.3601C48.3728 34.7981 48.3636 33.23 48.2357 31.6693C48.2186 31.4234 48.1105 31.1926 47.9324 31.0221C47.7544 30.8516 47.5192 30.7535 47.2728 30.7471C45.483 30.8255 43.7327 30.2066 42.39 29.0205C42.2403 28.8731 42.0386 28.7904 41.8285 28.7904C41.6183 28.7904 41.4166 28.8731 41.2669 29.0205C39.9243 30.2066 38.1739 30.8255 36.3841 30.7471C36.1377 30.7535 35.9025 30.8516 35.7245 31.0221C35.5465 31.1926 35.4383 31.4234 35.4212 31.6693C35.2934 33.23 35.2841 34.7981 35.3936 36.3601C35.6161 38.1181 36.3417 39.7744 37.4832 41.1297C38.6247 42.485 40.1335 43.4817 41.8281 43.9999ZM41.8281 43.9999V28.7896" stroke="#FFE79F" stroke-linecap="round" stroke-linejoin="round"/>
</g>
</g>
</svg>
