<svg width="17" height="22" viewBox="0 0 17 22" fill="none" xmlns="http://www.w3.org/2000/svg">
<path d="M15.11 6.95996H13.83V5.35999C13.83 2.40999 11.43 0 8.46997 0C5.51997 0 3.10999 2.39999 3.10999 5.35999V6.95996H1.82001C0.820007 6.95996 0 7.77997 0 8.77997V19.21C0 20.23 0.820007 21.05 1.82001 21.05H15.1C16.12 21.05 16.94 20.23 16.94 19.21V8.77997C16.95 7.78997 16.13 6.95996 15.11 6.95996ZM5.53003 5.35999C5.53003 3.73999 6.84997 2.41998 8.46997 2.41998C10.09 2.41998 11.41 3.73999 11.41 5.35999V6.95996H5.53998V5.35999H5.53003ZM9.46002 16.23V18.89C9.46002 19 9.36 19.08 9.25 19.08H7.96997C7.86997 19.08 7.78003 19 7.78003 18.89V16.23C6.91003 15.89 6.28003 15.05 6.28003 14.05C6.28003 12.76 7.33 11.71 8.62 11.71C9.91 11.71 10.96 12.76 10.96 14.05C10.96 15.05 10.33 15.89 9.46002 16.23Z" fill="#E1DFDE"/>
</svg>
