<svg width="18" height="19" viewBox="0 0 18 19" fill="none" xmlns="http://www.w3.org/2000/svg">
<path d="M11.41 9.45001C12.98 8.60001 14.04 6.93997 14.04 5.02997C14.04 2.25997 11.79 0 9.01001 0C6.24001 0 3.98004 2.25997 3.98004 5.02997C3.98004 6.93997 5.05005 8.60001 6.61005 9.45001C2.81005 10.5 0 13.99 0 18.12V18.59H18V18.12C18.02 13.99 15.22 10.5 11.41 9.45001ZM4.92999 5.02997C4.92999 2.76997 6.77002 0.940002 9.02002 0.940002C11.28 0.940002 13.11 2.77997 13.11 5.02997C13.11 7.28997 11.27 9.12 9.02002 9.12C6.76002 9.13 4.92999 7.28997 4.92999 5.02997ZM0.970032 17.66C1.21003 13.43 4.73002 10.06 9.02002 10.06C13.31 10.06 16.83 13.43 17.07 17.66H0.970032Z" fill="#E1DFDE"/>
</svg>
