<svg width="84" height="84" viewBox="0 0 84 84" fill="none" xmlns="http://www.w3.org/2000/svg">
<path d="M59.186 24.5012C60.9771 24.5012 62.4293 23.0492 62.4293 21.258C62.4293 19.4668 60.9771 18.0148 59.186 18.0148C57.395 18.0148 55.9428 19.4668 55.9428 21.258C55.9428 23.0492 57.395 24.5012 59.186 24.5012Z" stroke="url(#paint0_linear_4112_7632)" stroke-width="3"/>
<path d="M20.7681 60.5231C23.4549 60.5231 25.6329 58.345 25.6329 55.6582C25.6329 52.9714 23.4549 50.7934 20.7681 50.7934C18.0812 50.7934 15.9032 52.9714 15.9032 55.6582C15.9032 58.345 18.0812 60.5231 20.7681 60.5231Z" stroke="url(#paint1_linear_4112_7632)" stroke-width="3"/>
<path d="M46.0114 25.1271H44.172C43.0751 25.1271 42.1223 24.3967 41.5847 23.4404C41.0713 22.5275 40.9483 21.4205 41.4546 20.5038L42.4562 18.6901C43.3219 17.1227 42.8083 15.1183 41.3089 14.2134C39.8092 13.3079 37.8917 13.8454 37.0262 15.4128L36.0243 17.227C35.526 18.129 34.5014 18.5725 33.471 18.5725C32.4406 18.5725 31.4158 18.1289 30.9177 17.227L29.9158 15.4128C29.0501 13.8454 27.1326 13.3082 25.6332 14.2134C24.1338 15.1183 23.6199 17.1227 24.4856 18.6901L25.4875 20.5038C25.9937 21.4205 25.8707 22.5275 25.3574 23.4404C24.8195 24.3967 23.8669 25.1271 22.7698 25.1271H20.9301C19.1987 25.1271 17.7951 26.5945 17.7951 28.4044C17.7951 30.2143 19.1987 31.6773 20.9301 31.6773H22.7674C23.8656 31.6773 24.8195 32.4086 25.3568 33.3664C25.8699 34.2807 25.9929 35.3889 25.4862 36.3066L24.4853 38.1186C23.6196 39.6859 24.1335 41.6903 25.6329 42.5953C27.1257 43.4965 29.0461 42.97 29.9156 41.3959L30.9172 39.5821C31.4155 38.68 32.4401 38.2363 33.4708 38.2363C34.5012 38.2363 35.526 38.6801 36.0243 39.5821L37.026 41.3959C37.8962 42.9712 39.8163 43.4961 41.3086 42.5953C42.808 41.6903 43.3219 39.6859 42.4559 38.1186L41.4554 36.3066C40.9486 35.3889 41.0716 34.2807 41.5847 33.3664C42.1221 32.4086 43.0759 31.6773 44.1742 31.6773H46.0114C47.7428 31.6773 49.1464 30.2143 49.1464 28.4044C49.1464 26.5945 47.7428 25.1271 46.0114 25.1271Z" stroke="url(#paint2_linear_4112_7632)" stroke-width="3"/>
<path d="M67.0236 45.764C66.6206 46.1913 66.1761 46.5559 65.7023 46.8577C64.4344 47.6651 62.9701 48.1801 61.5097 48.6937C59.5365 49.3877 57.5707 50.0792 56.1056 51.486C53.7429 53.7545 53.2039 57.1213 52.6676 60.4725C52.4615 61.7598 52.2556 63.0449 51.9471 64.2647C51.548 65.8423 50.753 67.343 49.5574 68.6109C45.8135 72.5821 39.559 72.7663 35.5875 69.0222C31.6163 65.278 31.4324 59.0235 35.1766 55.0523C36.3719 53.7844 37.8233 52.9024 39.3747 52.4112C40.5735 52.0316 41.8433 51.7508 43.1155 51.4695L43.1179 51.469C46.4319 50.7363 49.7611 50.0002 51.8869 47.5082C53.205 45.9631 53.7796 43.96 54.3563 41.9496L54.3578 41.9448C54.7844 40.4583 55.2119 38.9679 55.9428 37.656C56.216 37.1654 56.5538 36.7002 56.9568 36.2729C59.5777 33.4931 63.9559 33.3642 66.7357 35.985C69.5154 38.6059 69.6445 42.9841 67.0236 45.764Z" stroke="url(#paint3_linear_4112_7632)" stroke-width="3"/>
<defs>
<linearGradient id="paint0_linear_4112_7632" x1="15.432" y1="2" x2="89.7083" y2="51.7796" gradientUnits="userSpaceOnUse">
<stop stop-color="#00A0DB"/>
<stop offset="1" stop-color="#5ED654"/>
</linearGradient>
<linearGradient id="paint1_linear_4112_7632" x1="15.432" y1="2" x2="89.7083" y2="51.7796" gradientUnits="userSpaceOnUse">
<stop stop-color="#00A0DB"/>
<stop offset="1" stop-color="#5ED654"/>
</linearGradient>
<linearGradient id="paint2_linear_4112_7632" x1="15.432" y1="2" x2="89.7083" y2="51.7796" gradientUnits="userSpaceOnUse">
<stop stop-color="#00A0DB"/>
<stop offset="1" stop-color="#5ED654"/>
</linearGradient>
<linearGradient id="paint3_linear_4112_7632" x1="15.432" y1="2" x2="89.7083" y2="51.7796" gradientUnits="userSpaceOnUse">
<stop stop-color="#00A0DB"/>
<stop offset="1" stop-color="#5ED654"/>
</linearGradient>
</defs>
</svg>
