<svg width="48" height="48" viewBox="0 0 48 48" fill="none" xmlns="http://www.w3.org/2000/svg">
<g id="Group">
<path id="path140" d="M24 0.97971C11.3066 0.97971 0.979016 11.3065 0.979016 24.0004C0.979016 36.6935 11.3066 47.0203 24 47.0203C36.6941 47.0203 47.021 36.6935 47.021 24.0004C47.021 11.3065 36.6941 0.97971 24 0.97971ZM24 48C10.7656 48 0 37.2338 0 24.0004C0 10.7662 10.7656 0 24 0C37.2343 0 48 10.7662 48 24.0004C48 37.2338 37.2343 48 24 48Z" fill="#132237"/>
<path id="path144" d="M30.5454 13.8948V27.7896H28.4575V26.134L15.1787 14.8819V27.7896H13.0908V13.8948H15.1787V14.4166L28.4575 25.6687V13.8948H30.5454Z" fill="#132237"/>
<path id="path148" d="M32.2062 27.1076C31.9785 27.1076 31.7679 27.0209 31.6456 26.8476C31.435 26.5348 31.5054 26.1874 31.9081 26.1705C32.9596 26.1183 34.1512 23.9665 34.5538 22.4051C35.1144 20.2525 34.6769 18.2226 32.6437 18.2226C26.1613 18.2226 16.2441 37.7626 24.3564 37.7626C28.1938 37.7626 33.0122 33.2158 35.8508 30.4044C35.9034 30.3523 35.9731 30.3354 36.0258 30.3354C36.1481 30.3354 36.2186 30.4397 36.0784 30.5954C33.6425 33.3898 27.8608 38.5264 24.2511 38.5264C15.0176 38.5264 25.1802 17.6843 32.6437 17.6843C35.0269 17.6843 35.5 20.0271 35.0091 22.4396C34.694 24.0708 33.9235 25.7188 33.0122 26.7433C32.8016 26.9864 32.4865 27.1076 32.2062 27.1076Z" fill="#132237"/>
</g>
</svg>
