<svg width="48" height="48" viewBox="0 0 48 48" fill="none" xmlns="http://www.w3.org/2000/svg">
<g id="Group">
<path id="path92" d="M24.8899 24.7735C29.2082 24.7735 32.7215 28.3367 32.7215 32.7164V38.0366H17.0602V32.7164C17.0602 28.3367 20.5715 24.7735 24.8899 24.7735ZM24.725 23.7012C21.4736 23.7012 18.8294 21.0175 18.8294 17.72C18.8294 14.4224 21.4736 11.7387 24.725 11.7387C27.9763 11.7387 30.6224 14.4224 30.6224 17.72C30.6224 21.0175 27.9763 23.7012 24.725 23.7012ZM27.6039 24.1341C30.0055 23.0205 31.6797 20.567 31.6797 17.72C31.6797 13.8302 28.5603 10.6664 24.725 10.6664C20.8916 10.6664 17.7702 13.8302 17.7702 17.72C17.7702 20.624 19.5123 23.1228 21.9896 24.2029C18.5093 25.4267 16.001 28.7755 16.001 32.7164V38.5737C16.001 38.8688 16.2377 39.1108 16.5306 39.1108H33.2491C33.5421 39.1108 33.7788 38.8688 33.7788 38.5737V32.7164C33.7788 28.7046 31.1812 25.3008 27.6039 24.1341Z" fill="#595957"/>
<path id="path96" d="M24 0.980198C11.3069 0.980198 0.980198 11.3069 0.980198 24C0.980198 36.6931 11.3069 47.0198 24 47.0198C36.6931 47.0198 47.0198 36.6931 47.0198 24C47.0198 11.3069 36.6931 0.980198 24 0.980198ZM24 48C10.7663 48 0 37.2337 0 24C0 10.7663 10.7663 0 24 0C37.2337 0 48 10.7663 48 24C48 37.2337 37.2337 48 24 48Z" fill="#595957"/>
</g>
</svg>
