<?xml version="1.0" encoding="UTF-8"?>
<svg id="Layer_2" data-name="Layer 2" xmlns="http://www.w3.org/2000/svg" viewBox="0 0 33.82 33.89">
  <defs>
    <style>
      .cls-1 {
        fill: #132237;
      }
    </style>
  </defs>
  <g id="Layer_1-2" data-name="Layer 1">
    <path class="cls-1" d="M16.91,0C7.57,0,0,7.58,0,16.94s7.57,16.94,16.91,16.94,16.91-7.58,16.91-16.94c0-9.36-7.56-16.94-16.91-16.94Zm0,32.34c-8.49,0-15.38-6.89-15.38-15.41S8.41,1.52,16.91,1.52s15.38,6.89,15.38,15.41-6.88,15.41-15.38,15.41Zm-.36-22.46c2.24,0,2.5,.01,3.39,.05,.82,.04,1.26,.17,1.56,.29,.39,.15,.67,.33,.96,.63,.29,.29,.47,.57,.63,.96,.11,.3,.25,.74,.29,1.56,.04,.88,.05,1.15,.05,3.4s-.01,2.5-.05,3.39c-.04,.82-.17,1.26-.29,1.56-.15,.39-.33,.67-.63,.96-.29,.29-.57,.47-.96,.63-.3,.12-.74,.25-1.56,.29-.88,.04-1.15,.05-3.39,.05s-2.5-.01-3.39-.05c-.82-.04-1.26-.17-1.56-.29-.39-.15-.67-.33-.96-.63-.29-.29-.47-.57-.63-.96-.11-.3-.25-.74-.29-1.56-.04-.88-.05-1.15-.05-3.39s0-2.5,.05-3.4c.04-.82,.17-1.26,.29-1.56,.15-.39,.33-.67,.63-.96,.29-.29,.57-.47,.96-.63,.3-.11,.74-.25,1.56-.29,.89-.04,1.15-.05,3.39-.05Zm0-1.51c-2.28,0-2.56,.01-3.45,.05-.89,.04-1.5,.18-2.03,.39-.55,.21-1.02,.5-1.48,.97-.47,.47-.75,.93-.97,1.48-.21,.53-.35,1.14-.39,2.03-.04,.89-.05,1.18-.05,3.46s0,2.56,.05,3.46c.04,.89,.18,1.5,.39,2.03,.21,.55,.5,1.02,.97,1.48,.47,.47,.93,.75,1.48,.97,.53,.21,1.14,.35,2.03,.39,.89,.04,1.18,.05,3.45,.05s2.56-.01,3.45-.05c.89-.04,1.5-.18,2.03-.39,.55-.21,1.02-.5,1.48-.97,.47-.47,.75-.93,.97-1.48,.21-.53,.35-1.14,.39-2.03,.04-.89,.05-1.18,.05-3.46s-.01-2.57-.05-3.46c-.04-.89-.18-1.5-.39-2.03-.21-.55-.5-1.02-.97-1.48-.47-.47-.93-.75-1.48-.97-.53-.21-1.14-.35-2.03-.39-.89-.04-1.18-.05-3.45-.05Zm0,4.08c-2.38,0-4.3,1.93-4.3,4.31s1.93,4.31,4.3,4.31,4.3-1.93,4.3-4.31-1.93-4.31-4.3-4.31Zm0,7.11c-1.54,0-2.79-1.25-2.79-2.8s1.25-2.8,2.79-2.8,2.79,1.25,2.79,2.8-1.25,2.8-2.79,2.8Zm5.47-7.28c0-.56-.45-1.01-1.01-1.01s-1.01,.45-1.01,1.01,.45,1.01,1.01,1.01,1.01-.45,1.01-1.01Z"/>
  </g>
</svg>