<svg width="35" height="34" viewBox="0 0 35 34" fill="none" xmlns="http://www.w3.org/2000/svg">
<path d="M17.3699 0C8.02987 0 0.459961 7.58459 0.459961 16.9426C0.459961 26.3006 8.02987 33.8851 17.3699 33.8851C26.7099 33.8851 34.2799 26.3006 34.2799 16.9426C34.2899 7.58459 26.7099 0 17.3699 0ZM17.3699 32.3422C8.87987 32.3422 1.98987 25.4489 1.98987 16.9326C1.98987 8.4262 8.86987 1.52292 17.3699 1.52292C25.8699 1.52292 32.7499 8.41618 32.7499 16.9326C32.7499 25.4489 25.8699 32.3422 17.3699 32.3422Z" fill="#FFE79F"/>
<path fill-rule="evenodd" clip-rule="evenodd" d="M13.031 9.80736C13.3653 9.46279 13.5492 9.00251 13.5453 8.52422C13.528 8.05997 13.3341 7.61986 13.0031 7.29388C12.6721 6.9679 12.229 6.78068 11.7646 6.77051C11.2987 6.78049 10.8541 6.96723 10.5208 7.29287C10.1875 7.61852 9.9905 8.05872 9.96973 8.52422C9.97633 9.00205 10.1663 9.45907 10.5004 9.80079C10.8344 10.1425 11.287 10.3428 11.7646 10.3602C12.2429 10.349 12.6976 10.1505 13.031 9.80736ZM11.4329 12.7234C10.6782 12.7067 10.1639 12.6951 10.1639 13.6182V23.8937C10.1639 24.7975 10.655 24.7795 11.3622 24.7525C11.4907 24.7474 11.6257 24.7422 11.7659 24.7422C11.9073 24.7422 12.0423 24.7474 12.1696 24.7525C12.8742 24.7782 13.355 24.7975 13.355 23.8937V13.6195C13.355 12.6964 12.851 12.7067 12.1002 12.7247C11.8778 12.7297 11.6553 12.7285 11.4329 12.7234ZM16.6837 12.7427C16.3417 12.8108 16.1219 13.0294 16.1219 13.6182V23.8937C16.1219 24.7975 16.5937 24.7795 17.3022 24.7525C17.4307 24.7474 17.5683 24.7422 17.711 24.7422C17.855 24.7422 17.9913 24.7474 18.1212 24.7525C18.8334 24.7782 19.3143 24.7975 19.3143 23.8937V18.4139C19.2869 18.1338 19.3193 17.8511 19.4094 17.5845C19.4995 17.3178 19.6452 17.0734 19.837 16.8674C20.0287 16.6613 20.262 16.4983 20.5214 16.3893C20.7809 16.2802 21.0605 16.2275 21.3419 16.2347C21.6246 16.2177 21.9076 16.2619 22.1717 16.3641C22.4359 16.4664 22.6749 16.6243 22.8725 16.8272C23.0701 17.0301 23.2217 17.2731 23.317 17.5398C23.4123 17.8065 23.449 18.0906 23.4247 18.3728V23.8512C23.4247 24.7564 23.8953 24.7384 24.6037 24.7114C24.7323 24.7062 24.8699 24.7011 25.0126 24.7011C25.1566 24.7011 25.2929 24.7062 25.4227 24.7114C26.1312 24.7371 26.6017 24.7564 26.6017 23.8525V16.8377C26.6281 16.2617 26.5329 15.6867 26.3224 15.15C26.1119 14.6132 25.7907 14.1268 25.3799 13.7224C24.969 13.3179 24.4776 13.0045 23.9376 12.8025C23.3976 12.6005 22.8212 12.5144 22.2457 12.5498C21.6596 12.4965 21.0697 12.5945 20.5323 12.8345C19.995 13.0744 19.5282 13.4483 19.1767 13.9204C19.1909 13.4138 19.0263 12.7427 18.6162 12.7427C18.4979 12.7427 18.3166 12.7362 18.1109 12.7298C17.5966 12.7144 16.928 12.6938 16.6837 12.7427Z" fill="#FFE79F"/>
</svg>
