<svg width="201" height="70" viewBox="0 0 201 70" fill="none" xmlns="http://www.w3.org/2000/svg">
<g id="&#208;&#155;&#208;&#158;&#208;&#147;&#208;&#158;">
<path id="Vector" d="M35.0533 0.532715V28.554H30.898V25.2511L4.2618 2.55707V28.554H0V0.532715H4.15524V1.59816L30.7915 24.2922V0.532715H35.0533Z" fill="black"/>
<path id="Vector_2" d="M85.2361 14.5967C85.2361 22.5875 75.0078 29.1933 62.4355 29.1933C49.8632 29.1933 39.6349 22.6941 39.6349 14.5967C39.6349 6.60579 49.8632 0 62.4355 0C75.1143 0 85.2361 6.49924 85.2361 14.5967ZM64.5664 1.49163C54.5512 -2.41322e-06 45.6014 4.58143 44.5359 11.8265C43.4705 19.0715 50.609 26.21 60.5177 27.7017C70.5329 29.1933 79.4827 24.6119 80.5481 17.3668C81.7201 10.1218 74.4751 2.98326 64.5664 1.49163Z" fill="black"/>
<path id="Vector_3" d="M123.592 21.309C123.379 27.5951 114.536 28.4475 111.979 28.4475C108.143 28.4475 90.0304 28.4475 90.0304 28.4475V0.532715H94.1856C94.1856 0.532715 101.644 0.532715 110.274 0.532715C118.904 0.532715 121.142 5.0076 121.142 8.41704C121.142 11.8265 116.986 13.4246 116.986 13.4246C116.986 13.4246 123.912 13.9574 123.592 21.309ZM94.1856 14.0639H111.126C111.126 14.0639 116.986 14.277 116.986 7.24504C116.986 1.06544 110.38 1.17198 107.184 1.17198C104.201 1.17198 94.1856 1.17198 94.1856 1.17198V14.0639ZM118.158 21.309C118.158 16.7275 113.896 15.3425 111.339 15.3425C106.758 15.3425 94.1856 15.3425 94.1856 15.3425V27.7017C94.1856 27.7017 104.201 27.7017 110.274 27.7017C116.347 27.7017 118.158 25.8904 118.158 21.309Z" fill="black"/>
<path id="Vector_4" d="M160.776 16.621L154.597 28.4475H128.6V0.532715H132.755V27.8082H141.172C149.163 27.8082 156.408 23.3333 160.137 16.3014L160.776 16.621Z" fill="black"/>
<path id="Vector_5" d="M200.305 16.621L194.125 28.4475H164.825V0.532715H194.125L197.961 7.56468L197.321 7.88431C195.084 3.72906 190.822 1.17198 186.134 1.17198H169.087V27.7017H180.807C188.798 27.7017 196.043 23.2268 199.772 16.1948L200.305 16.621ZM179.955 9.58903C179.955 9.58903 180.168 14.9163 182.512 14.9163C180.168 14.9163 179.955 20.2435 179.955 20.2435C179.955 20.2435 179.741 14.9163 177.397 14.9163C179.741 14.9163 179.955 9.58903 179.955 9.58903Z" fill="black"/>
<g id="Group">
<path id="Vector_6" d="M67.0169 38.6758C66.5907 38.6758 66.1646 38.4627 65.9515 38.1431C65.5253 37.5038 65.6318 36.8646 66.4842 36.8646C68.5085 36.758 70.8526 32.4962 71.5984 29.4064C72.6638 25.1446 71.8115 21.2025 67.8693 21.2025C55.1905 21.2025 35.9058 59.6652 51.6745 59.6652C59.1326 59.6652 68.5086 50.7154 74.0489 45.1751C74.1554 45.0685 74.262 45.0685 74.3685 45.0685C74.5816 45.0685 74.7947 45.2816 74.4751 45.6013C69.6805 51.1416 58.4933 61.1568 51.4614 61.1568C33.4553 61.1568 53.2726 20.137 67.7627 20.137C72.4507 20.137 73.3031 24.7185 72.3442 29.513C71.7049 32.7093 70.2133 36.0122 68.402 37.93C68.1889 38.4628 67.5496 38.6758 67.0169 38.6758Z" fill="black"/>
<path id="Vector_7" d="M76.7125 44.7489C79.4826 45.2816 77.7779 51.8874 74.2619 51.4612C70.959 51.035 71.9179 44.1096 76.6059 44.4292C77.3517 44.4292 76.819 45.6012 76.6059 45.4947C74.1554 45.2816 71.5983 50.8219 74.2619 51.035C76.6059 51.2481 77.6713 45.8143 76.6059 45.6012C76.0732 45.3881 76.0732 44.6423 76.7125 44.7489ZM77.5648 45.3882C77.991 45.8143 79.163 47.4125 80.9742 47.4125C81.7201 47.4125 82.5724 47.0929 83.5313 46.4536C83.9575 46.134 84.2772 46.9863 83.851 47.1994C82.8921 47.7321 81.9332 48.0518 81.1873 48.0518C79.0565 48.0518 77.7779 46.3471 77.2452 45.6012C76.9255 45.0685 77.1386 44.962 77.5648 45.3882Z" fill="black"/>
<path id="Vector_8" d="M82.6789 50.1827C83.9575 48.5845 88.0062 43.8965 89.8174 44.1096C90.9894 44.2162 91.3091 45.1751 90.9894 46.0274C90.5632 47.1994 87.58 50.2892 89.6044 50.2892C91.3091 50.2892 95.1447 46.5601 95.7839 46.2405C96.3167 46.0274 96.4232 46.8798 96.1036 47.0929C94.9316 47.6256 91.4156 50.7154 89.7109 50.7154C88.4324 50.7154 88.1127 50.1827 88.1127 49.5434C88.1127 48.2649 89.3912 46.4536 89.8174 45.2816C89.924 44.962 89.8174 44.6423 89.4978 44.6423C87.58 44.4292 83.3182 49.7565 82.4658 51.3547C82.3593 51.4612 82.2528 51.5678 82.1462 51.5678C81.9331 51.5678 81.72 51.3547 81.8266 51.035C82.0396 49.9696 83.7444 44.6423 84.2771 43.5769C84.4902 43.1507 84.8098 42.9376 85.1295 42.9376C85.6622 42.9376 86.0884 43.4703 85.7687 44.1096C84.9164 46.0274 83.5313 48.0518 82.6789 50.1827Z" fill="black"/>
<path id="Vector_9" d="M103.349 47.6256C101.751 47.6256 99.9392 48.1583 98.3411 48.9041C98.7672 49.863 99.1934 50.8219 98.9803 51.7808C98.5542 53.9117 96.2102 55.0837 94.5055 55.0837C93.3335 55.0837 92.4811 54.4444 92.8008 53.1659C93.1204 51.8874 94.8251 50.1826 97.0625 48.9041C95.9971 47.4125 94.612 46.0274 95.0382 44.5358C95.2513 43.79 96.3167 42.5114 98.128 42.618C99.8327 42.7245 100.365 44.3227 99.7262 45.8143C99.5131 46.2405 99.3 46.347 98.9803 46.347C98.4476 46.347 97.8084 45.8143 98.128 45.3881C98.9804 44.2161 98.5542 43.3638 97.8083 43.2572C97.2756 43.2572 96.5298 43.6834 96.3167 44.5358C96.1036 45.4947 97.1691 46.8798 98.128 48.3714C100.259 47.3059 102.709 46.5601 105.053 46.7732C105.799 46.8798 105.693 47.9452 104.734 47.7321C104.201 47.6256 103.775 47.6256 103.349 47.6256ZM93.0138 53.1659C92.6942 54.1248 93.44 54.6575 94.3989 54.6575C95.6775 54.6575 97.2756 53.8052 97.7018 51.6743C97.9149 50.8219 97.5953 50.0761 97.1691 49.3303C95.0382 50.6088 93.3335 52.1005 93.0138 53.1659Z" fill="black"/>
<path id="Vector_10" d="M106.012 44.7489C106.652 44.7489 107.291 45.2816 106.652 45.9209C104.84 47.7321 103.349 50.9285 104.84 50.9285C106.332 50.9285 109.209 47.519 110.061 46.6667C110.487 46.2405 110.913 46.9863 110.381 47.4125C109.422 48.3714 106.225 51.2481 104.947 51.2481C103.988 51.2481 103.242 50.7154 103.242 49.7565C103.349 48.478 104.521 45.8143 105.16 45.0685C105.373 44.8554 105.693 44.7489 106.012 44.7489ZM107.504 41.7656C107.93 41.7656 108.356 42.0853 108.356 42.618C108.463 43.1507 107.93 43.5769 107.504 43.5769C106.971 43.5769 106.545 43.2572 106.545 42.618C106.545 42.0853 106.865 41.7656 107.504 41.7656Z" fill="black"/>
<path id="Vector_11" d="M111.34 51.4612C106.865 50.5023 110.061 43.2572 114.216 43.5769C117.093 43.7899 115.601 47.519 111.872 47.519C111.446 47.519 110.913 47.4125 110.487 47.3059C109.741 48.7976 109.741 50.5023 111.233 50.8219C111.553 50.9285 111.872 50.9285 112.192 50.9285C115.069 50.9285 118.585 48.2648 120.076 46.2405C120.183 46.1339 120.289 46.1339 120.396 46.1339C120.716 46.1339 121.035 46.5601 120.716 46.8797C118.265 49.4368 114.429 52.1004 111.34 51.4612ZM113.897 44.7488C112.725 44.6423 111.659 45.4947 110.807 46.6667C114.003 47.0928 115.282 44.9619 113.897 44.7488Z" fill="black"/>
<path id="Vector_12" d="M126.789 43.8965C129.133 43.8965 126.149 47.8387 127.215 47.9452C128.813 48.2649 131.69 46.8798 132.862 46.347C133.288 46.134 133.501 46.8798 132.968 47.0929C132.009 47.4125 127.108 48.9041 126.043 48.7976C124.125 48.5845 127.641 44.3227 126.469 44.3227C124.125 44.3227 120.609 49.9696 119.65 51.8874C119.544 52.1005 119.331 52.207 119.224 52.207C118.904 52.207 118.585 51.9939 118.691 51.6743C118.798 50.3958 120.076 45.3881 120.822 44.2162C121.035 43.8965 121.248 43.79 121.461 43.79C121.888 43.79 122.314 44.2162 122.101 44.5358C120.929 46.8798 120.716 48.0518 119.97 50.6088C121.035 48.7976 124.338 43.8965 126.789 43.8965Z" fill="black"/>
<path id="Vector_13" d="M139.361 44.8554C144.155 44.8554 135.525 70 128.28 70C120.716 70 130.411 50.5023 144.901 47.6256C145.434 47.5191 145.54 48.6911 144.688 48.9041C129.985 51.3547 122.953 69.2542 127.854 69.2542C134.247 69.2542 142.344 46.2405 139.254 46.2405C138.722 46.2405 135.632 50.3958 133.714 50.3958C130.198 50.3958 133.075 43.79 136.484 44.1096C137.55 44.2162 138.615 45.0685 138.295 46.7732C138.295 46.9863 137.337 47.0929 137.337 47.0929C137.55 45.9209 137.123 45.3882 136.378 45.2816C134.46 45.0685 131.37 50.0761 133.394 50.0761C134.886 50.0761 138.295 44.8554 139.361 44.8554Z" fill="black"/>
<path id="Vector_14" d="M146.606 51.4612C142.131 50.5023 145.327 43.2572 149.483 43.5769C152.359 43.7899 150.868 47.519 147.139 47.519C146.713 47.519 146.18 47.4125 145.754 47.3059C145.008 48.7976 145.008 50.5023 146.499 50.8219C146.819 50.9285 147.139 50.9285 147.458 50.9285C150.335 50.9285 153.851 48.2648 155.343 46.2405C155.449 46.1339 155.556 46.1339 155.662 46.1339C155.982 46.1339 156.302 46.5601 155.982 46.8797C153.531 49.4368 149.696 52.1004 146.606 51.4612ZM149.057 44.7488C147.885 44.6423 146.819 45.4947 145.967 46.6667C149.27 47.0928 150.548 44.9619 149.057 44.7488Z" fill="black"/>
</g>
<path id="Vector_15" d="M35.0533 0.532715V28.554H30.898V25.2511L4.2618 2.55707V28.554H0V0.532715H4.15524V1.59816L30.7915 24.2922V0.532715H35.0533Z" fill="url(#paint0_linear_501_2143)"/>
<path id="Vector_16" d="M85.2361 14.5967C85.2361 22.5875 75.0078 29.1933 62.4355 29.1933C49.8632 29.1933 39.6349 22.6941 39.6349 14.5967C39.6349 6.60579 49.8632 0 62.4355 0C75.1143 0 85.2361 6.49924 85.2361 14.5967ZM64.5664 1.49163C54.5512 -2.41322e-06 45.6014 4.58143 44.5359 11.8265C43.4705 19.0715 50.609 26.21 60.5177 27.7017C70.5329 29.1933 79.4827 24.6119 80.5481 17.3668C81.7201 10.1218 74.4751 2.98326 64.5664 1.49163Z" fill="url(#paint1_linear_501_2143)"/>
<path id="Vector_17" d="M123.592 21.309C123.379 27.5951 114.536 28.4475 111.979 28.4475C108.143 28.4475 90.0304 28.4475 90.0304 28.4475V0.532715H94.1856C94.1856 0.532715 101.644 0.532715 110.274 0.532715C118.904 0.532715 121.142 5.0076 121.142 8.41704C121.142 11.8265 116.986 13.4246 116.986 13.4246C116.986 13.4246 123.912 13.9574 123.592 21.309ZM94.1856 14.0639H111.126C111.126 14.0639 116.986 14.277 116.986 7.24504C116.986 1.06544 110.38 1.17198 107.184 1.17198C104.201 1.17198 94.1856 1.17198 94.1856 1.17198V14.0639ZM118.158 21.309C118.158 16.7275 113.896 15.3425 111.339 15.3425C106.758 15.3425 94.1856 15.3425 94.1856 15.3425V27.7017C94.1856 27.7017 104.201 27.7017 110.274 27.7017C116.347 27.7017 118.158 25.8904 118.158 21.309Z" fill="url(#paint2_linear_501_2143)"/>
<path id="Vector_18" d="M160.776 16.621L154.597 28.4475H128.6V0.532715H132.755V27.8082H141.172C149.163 27.8082 156.408 23.3333 160.137 16.3014L160.776 16.621Z" fill="url(#paint3_linear_501_2143)"/>
<path id="Vector_19" d="M200.305 16.621L194.125 28.4475H164.825V0.532715H194.125L197.961 7.56468L197.321 7.88431C195.084 3.72906 190.822 1.17198 186.134 1.17198H169.087V27.7017H180.807C188.798 27.7017 196.043 23.2268 199.772 16.1948L200.305 16.621ZM179.955 9.58903C179.955 9.58903 180.168 14.9163 182.512 14.9163C180.168 14.9163 179.955 20.2435 179.955 20.2435C179.955 20.2435 179.741 14.9163 177.397 14.9163C179.741 14.9163 179.955 9.58903 179.955 9.58903Z" fill="url(#paint4_linear_501_2143)"/>
<g id="Group_2">
<path id="Vector_20" d="M67.0169 38.6758C66.5907 38.6758 66.1646 38.4627 65.9515 38.1431C65.5253 37.5038 65.6318 36.8646 66.4842 36.8646C68.5085 36.758 70.8526 32.4962 71.5984 29.4064C72.6638 25.1446 71.8115 21.2025 67.8693 21.2025C55.1905 21.2025 35.9058 59.6652 51.6745 59.6652C59.1326 59.6652 68.5086 50.7154 74.0489 45.1751C74.1554 45.0685 74.262 45.0685 74.3685 45.0685C74.5816 45.0685 74.7947 45.2816 74.4751 45.6013C69.6805 51.1416 58.4933 61.1568 51.4614 61.1568C33.4553 61.1568 53.2726 20.137 67.7627 20.137C72.4507 20.137 73.3031 24.7185 72.3442 29.513C71.7049 32.7093 70.2133 36.0122 68.402 37.93C68.1889 38.4628 67.5496 38.6758 67.0169 38.6758Z" fill="url(#paint5_linear_501_2143)"/>
<path id="Vector_21" d="M76.7125 44.7489C79.4826 45.2816 77.7779 51.8874 74.2619 51.4612C70.959 51.035 71.9179 44.1096 76.6059 44.4292C77.3517 44.4292 76.819 45.6012 76.6059 45.4947C74.1554 45.2816 71.5983 50.8219 74.2619 51.035C76.6059 51.2481 77.6713 45.8143 76.6059 45.6012C76.0732 45.3881 76.0732 44.6423 76.7125 44.7489ZM77.5648 45.3882C77.991 45.8143 79.163 47.4125 80.9742 47.4125C81.7201 47.4125 82.5724 47.0929 83.5313 46.4536C83.9575 46.134 84.2772 46.9863 83.851 47.1994C82.8921 47.7321 81.9332 48.0518 81.1873 48.0518C79.0565 48.0518 77.7779 46.3471 77.2452 45.6012C76.9255 45.0685 77.1386 44.962 77.5648 45.3882Z" fill="url(#paint6_linear_501_2143)"/>
<path id="Vector_22" d="M82.6789 50.1827C83.9575 48.5845 88.0062 43.8965 89.8174 44.1096C90.9894 44.2162 91.3091 45.1751 90.9894 46.0274C90.5632 47.1994 87.58 50.2892 89.6044 50.2892C91.3091 50.2892 95.1447 46.5601 95.7839 46.2405C96.3167 46.0274 96.4232 46.8798 96.1036 47.0929C94.9316 47.6256 91.4156 50.7154 89.7109 50.7154C88.4324 50.7154 88.1127 50.1827 88.1127 49.5434C88.1127 48.2649 89.3912 46.4536 89.8174 45.2816C89.924 44.962 89.8174 44.6423 89.4978 44.6423C87.58 44.4292 83.3182 49.7565 82.4658 51.3547C82.3593 51.4612 82.2528 51.5678 82.1462 51.5678C81.9331 51.5678 81.72 51.3547 81.8266 51.035C82.0396 49.9696 83.7444 44.6423 84.2771 43.5769C84.4902 43.1507 84.8098 42.9376 85.1295 42.9376C85.6622 42.9376 86.0884 43.4703 85.7687 44.1096C84.9164 46.0274 83.5313 48.0518 82.6789 50.1827Z" fill="url(#paint7_linear_501_2143)"/>
<path id="Vector_23" d="M103.349 47.6256C101.751 47.6256 99.9392 48.1583 98.3411 48.9041C98.7672 49.863 99.1934 50.8219 98.9803 51.7808C98.5542 53.9117 96.2102 55.0837 94.5055 55.0837C93.3335 55.0837 92.4811 54.4444 92.8008 53.1659C93.1204 51.8874 94.8251 50.1826 97.0625 48.9041C95.9971 47.4125 94.612 46.0274 95.0382 44.5358C95.2513 43.79 96.3167 42.5114 98.128 42.618C99.8327 42.7245 100.365 44.3227 99.7262 45.8143C99.5131 46.2405 99.3 46.347 98.9803 46.347C98.4476 46.347 97.8084 45.8143 98.128 45.3881C98.9804 44.2161 98.5542 43.3638 97.8083 43.2572C97.2756 43.2572 96.5298 43.6834 96.3167 44.5358C96.1036 45.4947 97.1691 46.8798 98.128 48.3714C100.259 47.3059 102.709 46.5601 105.053 46.7732C105.799 46.8798 105.693 47.9452 104.734 47.7321C104.201 47.6256 103.775 47.6256 103.349 47.6256ZM93.0138 53.1659C92.6942 54.1248 93.44 54.6575 94.3989 54.6575C95.6775 54.6575 97.2756 53.8052 97.7018 51.6743C97.9149 50.8219 97.5953 50.0761 97.1691 49.3303C95.0382 50.6088 93.3335 52.1005 93.0138 53.1659Z" fill="url(#paint8_linear_501_2143)"/>
<path id="Vector_24" d="M106.012 44.7489C106.652 44.7489 107.291 45.2816 106.652 45.9209C104.84 47.7321 103.349 50.9285 104.84 50.9285C106.332 50.9285 109.209 47.519 110.061 46.6667C110.487 46.2405 110.913 46.9863 110.381 47.4125C109.422 48.3714 106.225 51.2481 104.947 51.2481C103.988 51.2481 103.242 50.7154 103.242 49.7565C103.349 48.478 104.521 45.8143 105.16 45.0685C105.373 44.8554 105.693 44.7489 106.012 44.7489ZM107.504 41.7656C107.93 41.7656 108.356 42.0853 108.356 42.618C108.463 43.1507 107.93 43.5769 107.504 43.5769C106.971 43.5769 106.545 43.2572 106.545 42.618C106.545 42.0853 106.865 41.7656 107.504 41.7656Z" fill="url(#paint9_linear_501_2143)"/>
<path id="Vector_25" d="M111.34 51.4612C106.865 50.5023 110.061 43.2572 114.216 43.5769C117.093 43.7899 115.601 47.519 111.872 47.519C111.446 47.519 110.913 47.4125 110.487 47.3059C109.741 48.7976 109.741 50.5023 111.233 50.8219C111.553 50.9285 111.872 50.9285 112.192 50.9285C115.069 50.9285 118.585 48.2648 120.076 46.2405C120.183 46.1339 120.289 46.1339 120.396 46.1339C120.716 46.1339 121.035 46.5601 120.716 46.8797C118.265 49.4368 114.429 52.1004 111.34 51.4612ZM113.897 44.7488C112.725 44.6423 111.659 45.4947 110.807 46.6667C114.003 47.0928 115.282 44.9619 113.897 44.7488Z" fill="url(#paint10_linear_501_2143)"/>
<path id="Vector_26" d="M126.789 43.8965C129.133 43.8965 126.149 47.8387 127.215 47.9452C128.813 48.2649 131.69 46.8798 132.862 46.347C133.288 46.134 133.501 46.8798 132.968 47.0929C132.009 47.4125 127.108 48.9041 126.043 48.7976C124.125 48.5845 127.641 44.3227 126.469 44.3227C124.125 44.3227 120.609 49.9696 119.65 51.8874C119.544 52.1005 119.331 52.207 119.224 52.207C118.904 52.207 118.585 51.9939 118.691 51.6743C118.798 50.3958 120.076 45.3881 120.822 44.2162C121.035 43.8965 121.248 43.79 121.461 43.79C121.888 43.79 122.314 44.2162 122.101 44.5358C120.929 46.8798 120.716 48.0518 119.97 50.6088C121.035 48.7976 124.338 43.8965 126.789 43.8965Z" fill="url(#paint11_linear_501_2143)"/>
<path id="Vector_27" d="M139.361 44.8554C144.155 44.8554 135.525 70 128.28 70C120.716 70 130.411 50.5023 144.901 47.6256C145.434 47.5191 145.54 48.6911 144.688 48.9041C129.985 51.3547 122.953 69.2542 127.854 69.2542C134.247 69.2542 142.344 46.2405 139.254 46.2405C138.722 46.2405 135.632 50.3958 133.714 50.3958C130.198 50.3958 133.075 43.79 136.484 44.1096C137.55 44.2162 138.615 45.0685 138.295 46.7732C138.295 46.9863 137.337 47.0929 137.337 47.0929C137.55 45.9209 137.123 45.3882 136.378 45.2816C134.46 45.0685 131.37 50.0761 133.394 50.0761C134.886 50.0761 138.295 44.8554 139.361 44.8554Z" fill="url(#paint12_linear_501_2143)"/>
<path id="Vector_28" d="M146.606 51.4612C142.131 50.5023 145.327 43.2572 149.483 43.5769C152.359 43.7899 150.868 47.519 147.139 47.519C146.713 47.519 146.18 47.4125 145.754 47.3059C145.008 48.7976 145.008 50.5023 146.499 50.8219C146.819 50.9285 147.139 50.9285 147.458 50.9285C150.335 50.9285 153.851 48.2648 155.343 46.2405C155.449 46.1339 155.556 46.1339 155.662 46.1339C155.982 46.1339 156.302 46.5601 155.982 46.8797C153.531 49.4368 149.696 52.1004 146.606 51.4612ZM149.057 44.7488C147.885 44.6423 146.819 45.4947 145.967 46.6667C149.27 47.0928 150.548 44.9619 149.057 44.7488Z" fill="url(#paint13_linear_501_2143)"/>
</g>
<g id="Group_3">
<path id="Vector_29" d="M67.0169 38.6758C66.5907 38.6758 66.1646 38.4627 65.9515 38.1431C65.5253 37.5038 65.6318 36.8646 66.4842 36.8646C68.5085 36.758 70.8526 32.4962 71.5984 29.4064C72.6638 25.1446 71.8115 21.2025 67.8693 21.2025C55.1905 21.2025 35.9058 59.6652 51.6745 59.6652C59.1326 59.6652 68.5086 50.7154 74.0489 45.1751C74.1554 45.0685 74.262 45.0685 74.3685 45.0685C74.5816 45.0685 74.7947 45.2816 74.4751 45.6013C69.6805 51.1416 58.4933 61.1568 51.4614 61.1568C33.4553 61.1568 53.2726 20.137 67.7627 20.137C72.4507 20.137 73.3031 24.7185 72.3442 29.513C71.7049 32.7093 70.2133 36.0122 68.402 37.93C68.1889 38.4628 67.5496 38.6758 67.0169 38.6758Z" fill="url(#paint14_linear_501_2143)"/>
<path id="Vector_30" d="M76.7125 44.7489C79.4826 45.2816 77.7779 51.8874 74.2619 51.4612C70.959 51.035 71.9179 44.1096 76.6059 44.4292C77.3517 44.4292 76.819 45.6012 76.6059 45.4947C74.1554 45.2816 71.5983 50.8219 74.2619 51.035C76.6059 51.2481 77.6713 45.8143 76.6059 45.6012C76.0732 45.3881 76.0732 44.6423 76.7125 44.7489ZM77.5648 45.3882C77.991 45.8143 79.163 47.4125 80.9742 47.4125C81.7201 47.4125 82.5724 47.0929 83.5313 46.4536C83.9575 46.134 84.2772 46.9863 83.851 47.1994C82.8921 47.7321 81.9332 48.0518 81.1873 48.0518C79.0565 48.0518 77.7779 46.3471 77.2452 45.6012C76.9255 45.0685 77.1386 44.962 77.5648 45.3882Z" fill="url(#paint15_linear_501_2143)"/>
<path id="Vector_31" d="M82.6789 50.1827C83.9575 48.5845 88.0062 43.8965 89.8174 44.1096C90.9894 44.2162 91.3091 45.1751 90.9894 46.0274C90.5632 47.1994 87.58 50.2892 89.6044 50.2892C91.3091 50.2892 95.1447 46.5601 95.7839 46.2405C96.3167 46.0274 96.4232 46.8798 96.1036 47.0929C94.9316 47.6256 91.4156 50.7154 89.7109 50.7154C88.4324 50.7154 88.1127 50.1827 88.1127 49.5434C88.1127 48.2649 89.3912 46.4536 89.8174 45.2816C89.924 44.962 89.8174 44.6423 89.4978 44.6423C87.58 44.4292 83.3182 49.7565 82.4658 51.3547C82.3593 51.4612 82.2528 51.5678 82.1462 51.5678C81.9331 51.5678 81.72 51.3547 81.8266 51.035C82.0396 49.9696 83.7444 44.6423 84.2771 43.5769C84.4902 43.1507 84.8098 42.9376 85.1295 42.9376C85.6622 42.9376 86.0884 43.4703 85.7687 44.1096C84.9164 46.0274 83.5313 48.0518 82.6789 50.1827Z" fill="url(#paint16_linear_501_2143)"/>
<path id="Vector_32" d="M103.349 47.6256C101.751 47.6256 99.9392 48.1583 98.3411 48.9041C98.7672 49.863 99.1934 50.8219 98.9803 51.7808C98.5542 53.9117 96.2102 55.0837 94.5055 55.0837C93.3335 55.0837 92.4811 54.4444 92.8008 53.1659C93.1204 51.8874 94.8251 50.1826 97.0625 48.9041C95.9971 47.4125 94.612 46.0274 95.0382 44.5358C95.2513 43.79 96.3167 42.5114 98.128 42.618C99.8327 42.7245 100.365 44.3227 99.7262 45.8143C99.5131 46.2405 99.3 46.347 98.9803 46.347C98.4476 46.347 97.8084 45.8143 98.128 45.3881C98.9804 44.2161 98.5542 43.3638 97.8083 43.2572C97.2756 43.2572 96.5298 43.6834 96.3167 44.5358C96.1036 45.4947 97.1691 46.8798 98.128 48.3714C100.259 47.3059 102.709 46.5601 105.053 46.7732C105.799 46.8798 105.693 47.9452 104.734 47.7321C104.201 47.6256 103.775 47.6256 103.349 47.6256ZM93.0138 53.1659C92.6942 54.1248 93.44 54.6575 94.3989 54.6575C95.6775 54.6575 97.2756 53.8052 97.7018 51.6743C97.9149 50.8219 97.5953 50.0761 97.1691 49.3303C95.0382 50.6088 93.3335 52.1005 93.0138 53.1659Z" fill="url(#paint17_linear_501_2143)"/>
<path id="Vector_33" d="M106.012 44.7489C106.652 44.7489 107.291 45.2816 106.652 45.9209C104.84 47.7321 103.349 50.9285 104.84 50.9285C106.332 50.9285 109.209 47.519 110.061 46.6667C110.487 46.2405 110.913 46.9863 110.381 47.4125C109.422 48.3714 106.225 51.2481 104.947 51.2481C103.988 51.2481 103.242 50.7154 103.242 49.7565C103.349 48.478 104.521 45.8143 105.16 45.0685C105.373 44.8554 105.693 44.7489 106.012 44.7489ZM107.504 41.7656C107.93 41.7656 108.356 42.0853 108.356 42.618C108.463 43.1507 107.93 43.5769 107.504 43.5769C106.971 43.5769 106.545 43.2572 106.545 42.618C106.545 42.0853 106.865 41.7656 107.504 41.7656Z" fill="url(#paint18_linear_501_2143)"/>
<path id="Vector_34" d="M111.34 51.4612C106.865 50.5023 110.061 43.2572 114.216 43.5769C117.093 43.7899 115.601 47.519 111.872 47.519C111.446 47.519 110.913 47.4125 110.487 47.3059C109.741 48.7976 109.741 50.5023 111.233 50.8219C111.553 50.9285 111.872 50.9285 112.192 50.9285C115.069 50.9285 118.585 48.2648 120.076 46.2405C120.183 46.1339 120.289 46.1339 120.396 46.1339C120.716 46.1339 121.035 46.5601 120.716 46.8797C118.265 49.4368 114.429 52.1004 111.34 51.4612ZM113.897 44.7488C112.725 44.6423 111.659 45.4947 110.807 46.6667C114.003 47.0928 115.282 44.9619 113.897 44.7488Z" fill="url(#paint19_linear_501_2143)"/>
<path id="Vector_35" d="M126.789 43.8965C129.133 43.8965 126.149 47.8387 127.215 47.9452C128.813 48.2649 131.69 46.8798 132.862 46.347C133.288 46.134 133.501 46.8798 132.968 47.0929C132.009 47.4125 127.108 48.9041 126.043 48.7976C124.125 48.5845 127.641 44.3227 126.469 44.3227C124.125 44.3227 120.609 49.9696 119.65 51.8874C119.544 52.1005 119.331 52.207 119.224 52.207C118.904 52.207 118.585 51.9939 118.691 51.6743C118.798 50.3958 120.076 45.3881 120.822 44.2162C121.035 43.8965 121.248 43.79 121.461 43.79C121.888 43.79 122.314 44.2162 122.101 44.5358C120.929 46.8798 120.716 48.0518 119.97 50.6088C121.035 48.7976 124.338 43.8965 126.789 43.8965Z" fill="url(#paint20_linear_501_2143)"/>
<path id="Vector_36" d="M139.361 44.8554C144.155 44.8554 135.525 70 128.28 70C120.716 70 130.411 50.5023 144.901 47.6256C145.434 47.5191 145.54 48.6911 144.688 48.9041C129.985 51.3547 122.953 69.2542 127.854 69.2542C134.247 69.2542 142.344 46.2405 139.254 46.2405C138.722 46.2405 135.632 50.3958 133.714 50.3958C130.198 50.3958 133.075 43.79 136.484 44.1096C137.55 44.2162 138.615 45.0685 138.295 46.7732C138.295 46.9863 137.337 47.0929 137.337 47.0929C137.55 45.9209 137.123 45.3882 136.378 45.2816C134.46 45.0685 131.37 50.0761 133.394 50.0761C134.886 50.0761 138.295 44.8554 139.361 44.8554Z" fill="url(#paint21_linear_501_2143)"/>
<path id="Vector_37" d="M146.606 51.4612C142.131 50.5023 145.327 43.2572 149.483 43.5769C152.359 43.7899 150.868 47.519 147.139 47.519C146.713 47.519 146.18 47.4125 145.754 47.3059C145.008 48.7976 145.008 50.5023 146.499 50.8219C146.819 50.9285 147.139 50.9285 147.458 50.9285C150.335 50.9285 153.851 48.2648 155.343 46.2405C155.449 46.1339 155.556 46.1339 155.662 46.1339C155.982 46.1339 156.302 46.5601 155.982 46.8797C153.531 49.4368 149.696 52.1004 146.606 51.4612ZM149.057 44.7488C147.885 44.6423 146.819 45.4947 145.967 46.6667C149.27 47.0928 150.548 44.9619 149.057 44.7488Z" fill="url(#paint22_linear_501_2143)"/>
</g>
<g id="Group_4">
<path id="Vector_38" d="M67.0169 38.6758C66.5907 38.6758 66.1646 38.4627 65.9515 38.1431C65.5253 37.5038 65.6318 36.8646 66.4842 36.8646C68.5085 36.758 70.8526 32.4962 71.5984 29.4064C72.6638 25.1446 71.8115 21.2025 67.8693 21.2025C55.1905 21.2025 35.9058 59.6652 51.6745 59.6652C59.1326 59.6652 68.5086 50.7154 74.0489 45.1751C74.1554 45.0685 74.262 45.0685 74.3685 45.0685C74.5816 45.0685 74.7947 45.2816 74.4751 45.6013C69.6805 51.1416 58.4933 61.1568 51.4614 61.1568C33.4553 61.1568 53.2726 20.137 67.7627 20.137C72.4507 20.137 73.3031 24.7185 72.3442 29.513C71.7049 32.7093 70.2133 36.0122 68.402 37.93C68.1889 38.4628 67.5496 38.6758 67.0169 38.6758Z" fill="url(#paint23_linear_501_2143)"/>
<path id="Vector_39" d="M76.7125 44.7489C79.4826 45.2816 77.7779 51.8874 74.2619 51.4612C70.959 51.035 71.9179 44.1096 76.6059 44.4292C77.3517 44.4292 76.819 45.6012 76.6059 45.4947C74.1554 45.2816 71.5983 50.8219 74.2619 51.035C76.6059 51.2481 77.6713 45.8143 76.6059 45.6012C76.0732 45.3881 76.0732 44.6423 76.7125 44.7489ZM77.5648 45.3882C77.991 45.8143 79.163 47.4125 80.9742 47.4125C81.7201 47.4125 82.5724 47.0929 83.5313 46.4536C83.9575 46.134 84.2772 46.9863 83.851 47.1994C82.8921 47.7321 81.9332 48.0518 81.1873 48.0518C79.0565 48.0518 77.7779 46.3471 77.2452 45.6012C76.9255 45.0685 77.1386 44.962 77.5648 45.3882Z" fill="url(#paint24_linear_501_2143)"/>
<path id="Vector_40" d="M82.6789 50.1827C83.9575 48.5845 88.0062 43.8965 89.8174 44.1096C90.9894 44.2162 91.3091 45.1751 90.9894 46.0274C90.5632 47.1994 87.58 50.2892 89.6044 50.2892C91.3091 50.2892 95.1447 46.5601 95.7839 46.2405C96.3167 46.0274 96.4232 46.8798 96.1036 47.0929C94.9316 47.6256 91.4156 50.7154 89.7109 50.7154C88.4324 50.7154 88.1127 50.1827 88.1127 49.5434C88.1127 48.2649 89.3912 46.4536 89.8174 45.2816C89.924 44.962 89.8174 44.6423 89.4978 44.6423C87.58 44.4292 83.3182 49.7565 82.4658 51.3547C82.3593 51.4612 82.2528 51.5678 82.1462 51.5678C81.9331 51.5678 81.72 51.3547 81.8266 51.035C82.0396 49.9696 83.7444 44.6423 84.2771 43.5769C84.4902 43.1507 84.8098 42.9376 85.1295 42.9376C85.6622 42.9376 86.0884 43.4703 85.7687 44.1096C84.9164 46.0274 83.5313 48.0518 82.6789 50.1827Z" fill="url(#paint25_linear_501_2143)"/>
<path id="Vector_41" d="M103.349 47.6256C101.751 47.6256 99.9392 48.1583 98.3411 48.9041C98.7672 49.863 99.1934 50.8219 98.9803 51.7808C98.5542 53.9117 96.2102 55.0837 94.5055 55.0837C93.3335 55.0837 92.4811 54.4444 92.8008 53.1659C93.1204 51.8874 94.8251 50.1826 97.0625 48.9041C95.9971 47.4125 94.612 46.0274 95.0382 44.5358C95.2513 43.79 96.3167 42.5114 98.128 42.618C99.8327 42.7245 100.365 44.3227 99.7262 45.8143C99.5131 46.2405 99.3 46.347 98.9803 46.347C98.4476 46.347 97.8084 45.8143 98.128 45.3881C98.9804 44.2161 98.5542 43.3638 97.8083 43.2572C97.2756 43.2572 96.5298 43.6834 96.3167 44.5358C96.1036 45.4947 97.1691 46.8798 98.128 48.3714C100.259 47.3059 102.709 46.5601 105.053 46.7732C105.799 46.8798 105.693 47.9452 104.734 47.7321C104.201 47.6256 103.775 47.6256 103.349 47.6256ZM93.0138 53.1659C92.6942 54.1248 93.44 54.6575 94.3989 54.6575C95.6775 54.6575 97.2756 53.8052 97.7018 51.6743C97.9149 50.8219 97.5953 50.0761 97.1691 49.3303C95.0382 50.6088 93.3335 52.1005 93.0138 53.1659Z" fill="url(#paint26_linear_501_2143)"/>
<path id="Vector_42" d="M106.012 44.7489C106.652 44.7489 107.291 45.2816 106.652 45.9209C104.84 47.7321 103.349 50.9285 104.84 50.9285C106.332 50.9285 109.209 47.519 110.061 46.6667C110.487 46.2405 110.913 46.9863 110.381 47.4125C109.422 48.3714 106.225 51.2481 104.947 51.2481C103.988 51.2481 103.242 50.7154 103.242 49.7565C103.349 48.478 104.521 45.8143 105.16 45.0685C105.373 44.8554 105.693 44.7489 106.012 44.7489ZM107.504 41.7656C107.93 41.7656 108.356 42.0853 108.356 42.618C108.463 43.1507 107.93 43.5769 107.504 43.5769C106.971 43.5769 106.545 43.2572 106.545 42.618C106.545 42.0853 106.865 41.7656 107.504 41.7656Z" fill="url(#paint27_linear_501_2143)"/>
<path id="Vector_43" d="M111.34 51.4612C106.865 50.5023 110.061 43.2572 114.216 43.5769C117.093 43.7899 115.601 47.519 111.872 47.519C111.446 47.519 110.913 47.4125 110.487 47.3059C109.741 48.7976 109.741 50.5023 111.233 50.8219C111.553 50.9285 111.872 50.9285 112.192 50.9285C115.069 50.9285 118.585 48.2648 120.076 46.2405C120.183 46.1339 120.289 46.1339 120.396 46.1339C120.716 46.1339 121.035 46.5601 120.716 46.8797C118.265 49.4368 114.429 52.1004 111.34 51.4612ZM113.897 44.7488C112.725 44.6423 111.659 45.4947 110.807 46.6667C114.003 47.0928 115.282 44.9619 113.897 44.7488Z" fill="url(#paint28_linear_501_2143)"/>
<path id="Vector_44" d="M126.789 43.8965C129.133 43.8965 126.149 47.8387 127.215 47.9452C128.813 48.2649 131.69 46.8798 132.862 46.347C133.288 46.134 133.501 46.8798 132.968 47.0929C132.009 47.4125 127.108 48.9041 126.043 48.7976C124.125 48.5845 127.641 44.3227 126.469 44.3227C124.125 44.3227 120.609 49.9696 119.65 51.8874C119.544 52.1005 119.331 52.207 119.224 52.207C118.904 52.207 118.585 51.9939 118.691 51.6743C118.798 50.3958 120.076 45.3881 120.822 44.2162C121.035 43.8965 121.248 43.79 121.461 43.79C121.888 43.79 122.314 44.2162 122.101 44.5358C120.929 46.8798 120.716 48.0518 119.97 50.6088C121.035 48.7976 124.338 43.8965 126.789 43.8965Z" fill="url(#paint29_linear_501_2143)"/>
<path id="Vector_45" d="M139.361 44.8554C144.155 44.8554 135.525 70 128.28 70C120.716 70 130.411 50.5023 144.901 47.6256C145.434 47.5191 145.54 48.6911 144.688 48.9041C129.985 51.3547 122.953 69.2542 127.854 69.2542C134.247 69.2542 142.344 46.2405 139.254 46.2405C138.722 46.2405 135.632 50.3958 133.714 50.3958C130.198 50.3958 133.075 43.79 136.484 44.1096C137.55 44.2162 138.615 45.0685 138.295 46.7732C138.295 46.9863 137.337 47.0929 137.337 47.0929C137.55 45.9209 137.123 45.3882 136.378 45.2816C134.46 45.0685 131.37 50.0761 133.394 50.0761C134.886 50.0761 138.295 44.8554 139.361 44.8554Z" fill="url(#paint30_linear_501_2143)"/>
<path id="Vector_46" d="M146.606 51.4612C142.131 50.5023 145.327 43.2572 149.483 43.5769C152.359 43.7899 150.868 47.519 147.139 47.519C146.713 47.519 146.18 47.4125 145.754 47.3059C145.008 48.7976 145.008 50.5023 146.499 50.8219C146.819 50.9285 147.139 50.9285 147.458 50.9285C150.335 50.9285 153.851 48.2648 155.343 46.2405C155.449 46.1339 155.556 46.1339 155.662 46.1339C155.982 46.1339 156.302 46.5601 155.982 46.8797C153.531 49.4368 149.696 52.1004 146.606 51.4612ZM149.057 44.7488C147.885 44.6423 146.819 45.4947 145.967 46.6667C149.27 47.0928 150.548 44.9619 149.057 44.7488Z" fill="url(#paint31_linear_501_2143)"/>
</g>
<path id="Vector_47" d="M35.0533 0.532715V28.554H30.898V25.2511L4.2618 2.55707V28.554H0V0.532715H4.15524V1.59816L30.7915 24.2922V0.532715H35.0533Z" fill="url(#paint32_linear_501_2143)"/>
<path id="Vector_48" d="M85.2361 14.5967C85.2361 22.5875 75.0078 29.1933 62.4355 29.1933C49.8632 29.1933 39.6349 22.6941 39.6349 14.5967C39.6349 6.60579 49.8632 0 62.4355 0C75.1143 0 85.2361 6.49924 85.2361 14.5967ZM64.5664 1.49163C54.5512 -2.41322e-06 45.6014 4.58143 44.5359 11.8265C43.4705 19.0715 50.609 26.21 60.5177 27.7017C70.5329 29.1933 79.4827 24.6119 80.5481 17.3668C81.7201 10.1218 74.4751 2.98326 64.5664 1.49163Z" fill="url(#paint33_linear_501_2143)"/>
<path id="Vector_49" d="M123.592 21.309C123.379 27.5951 114.536 28.4475 111.979 28.4475C108.143 28.4475 90.0304 28.4475 90.0304 28.4475V0.532715H94.1856C94.1856 0.532715 101.644 0.532715 110.274 0.532715C118.904 0.532715 121.142 5.0076 121.142 8.41704C121.142 11.8265 116.986 13.4246 116.986 13.4246C116.986 13.4246 123.912 13.9574 123.592 21.309ZM94.1856 14.0639H111.126C111.126 14.0639 116.986 14.277 116.986 7.24504C116.986 1.06544 110.38 1.17198 107.184 1.17198C104.201 1.17198 94.1856 1.17198 94.1856 1.17198V14.0639ZM118.158 21.309C118.158 16.7275 113.896 15.3425 111.339 15.3425C106.758 15.3425 94.1856 15.3425 94.1856 15.3425V27.7017C94.1856 27.7017 104.201 27.7017 110.274 27.7017C116.347 27.7017 118.158 25.8904 118.158 21.309Z" fill="url(#paint34_linear_501_2143)"/>
<path id="Vector_50" d="M160.776 16.621L154.597 28.4475H128.6V0.532715H132.755V27.8082H141.172C149.163 27.8082 156.408 23.3333 160.137 16.3014L160.776 16.621Z" fill="url(#paint35_linear_501_2143)"/>
<path id="Vector_51" d="M200.305 16.621L194.125 28.4475H164.825V0.532715H194.125L197.961 7.56468L197.321 7.88431C195.084 3.72906 190.822 1.17198 186.134 1.17198H169.087V27.7017H180.807C188.798 27.7017 196.043 23.2268 199.772 16.1948L200.305 16.621ZM179.955 9.58903C179.955 9.58903 180.168 14.9163 182.512 14.9163C180.168 14.9163 179.955 20.2435 179.955 20.2435C179.955 20.2435 179.741 14.9163 177.397 14.9163C179.741 14.9163 179.955 9.58903 179.955 9.58903Z" fill="url(#paint36_linear_501_2143)"/>
<g id="Group_5">
<path id="Vector_52" d="M67.0169 38.6758C66.5907 38.6758 66.1646 38.4627 65.9515 38.1431C65.5253 37.5038 65.6318 36.8646 66.4842 36.8646C68.5085 36.758 70.8526 32.4962 71.5984 29.4064C72.6638 25.1446 71.8115 21.2025 67.8693 21.2025C55.1905 21.2025 35.9058 59.6652 51.6745 59.6652C59.1326 59.6652 68.5086 50.7154 74.0489 45.1751C74.1554 45.0685 74.262 45.0685 74.3685 45.0685C74.5816 45.0685 74.7947 45.2816 74.4751 45.6013C69.6805 51.1416 58.4933 61.1568 51.4614 61.1568C33.4553 61.1568 53.2726 20.137 67.7627 20.137C72.4507 20.137 73.3031 24.7185 72.3442 29.513C71.7049 32.7093 70.2133 36.0122 68.402 37.93C68.1889 38.4628 67.5496 38.6758 67.0169 38.6758Z" fill="url(#paint37_linear_501_2143)"/>
<path id="Vector_53" d="M76.7125 44.7489C79.4826 45.2816 77.7779 51.8874 74.2619 51.4612C70.959 51.035 71.9179 44.1096 76.6059 44.4292C77.3517 44.4292 76.819 45.6012 76.6059 45.4947C74.1554 45.2816 71.5983 50.8219 74.2619 51.035C76.6059 51.2481 77.6713 45.8143 76.6059 45.6012C76.0732 45.3881 76.0732 44.6423 76.7125 44.7489ZM77.5648 45.3882C77.991 45.8143 79.163 47.4125 80.9742 47.4125C81.7201 47.4125 82.5724 47.0929 83.5313 46.4536C83.9575 46.134 84.2772 46.9863 83.851 47.1994C82.8921 47.7321 81.9332 48.0518 81.1873 48.0518C79.0565 48.0518 77.7779 46.3471 77.2452 45.6012C76.9255 45.0685 77.1386 44.962 77.5648 45.3882Z" fill="url(#paint38_linear_501_2143)"/>
<path id="Vector_54" d="M82.6789 50.1827C83.9575 48.5845 88.0062 43.8965 89.8174 44.1096C90.9894 44.2162 91.3091 45.1751 90.9894 46.0274C90.5632 47.1994 87.58 50.2892 89.6044 50.2892C91.3091 50.2892 95.1447 46.5601 95.7839 46.2405C96.3167 46.0274 96.4232 46.8798 96.1036 47.0929C94.9316 47.6256 91.4156 50.7154 89.7109 50.7154C88.4324 50.7154 88.1127 50.1827 88.1127 49.5434C88.1127 48.2649 89.3912 46.4536 89.8174 45.2816C89.924 44.962 89.8174 44.6423 89.4978 44.6423C87.58 44.4292 83.3182 49.7565 82.4658 51.3547C82.3593 51.4612 82.2528 51.5678 82.1462 51.5678C81.9331 51.5678 81.72 51.3547 81.8266 51.035C82.0396 49.9696 83.7444 44.6423 84.2771 43.5769C84.4902 43.1507 84.8098 42.9376 85.1295 42.9376C85.6622 42.9376 86.0884 43.4703 85.7687 44.1096C84.9164 46.0274 83.5313 48.0518 82.6789 50.1827Z" fill="url(#paint39_linear_501_2143)"/>
<path id="Vector_55" d="M103.349 47.6256C101.751 47.6256 99.9392 48.1583 98.3411 48.9041C98.7672 49.863 99.1934 50.8219 98.9803 51.7808C98.5542 53.9117 96.2102 55.0837 94.5055 55.0837C93.3335 55.0837 92.4811 54.4444 92.8008 53.1659C93.1204 51.8874 94.8251 50.1826 97.0625 48.9041C95.9971 47.4125 94.612 46.0274 95.0382 44.5358C95.2513 43.79 96.3167 42.5114 98.128 42.618C99.8327 42.7245 100.365 44.3227 99.7262 45.8143C99.5131 46.2405 99.3 46.347 98.9803 46.347C98.4476 46.347 97.8084 45.8143 98.128 45.3881C98.9804 44.2161 98.5542 43.3638 97.8083 43.2572C97.2756 43.2572 96.5298 43.6834 96.3167 44.5358C96.1036 45.4947 97.1691 46.8798 98.128 48.3714C100.259 47.3059 102.709 46.5601 105.053 46.7732C105.799 46.8798 105.693 47.9452 104.734 47.7321C104.201 47.6256 103.775 47.6256 103.349 47.6256ZM93.0138 53.1659C92.6942 54.1248 93.44 54.6575 94.3989 54.6575C95.6775 54.6575 97.2756 53.8052 97.7018 51.6743C97.9149 50.8219 97.5953 50.0761 97.1691 49.3303C95.0382 50.6088 93.3335 52.1005 93.0138 53.1659Z" fill="url(#paint40_linear_501_2143)"/>
<path id="Vector_56" d="M106.012 44.7489C106.652 44.7489 107.291 45.2816 106.652 45.9209C104.84 47.7321 103.349 50.9285 104.84 50.9285C106.332 50.9285 109.209 47.519 110.061 46.6667C110.487 46.2405 110.913 46.9863 110.381 47.4125C109.422 48.3714 106.225 51.2481 104.947 51.2481C103.988 51.2481 103.242 50.7154 103.242 49.7565C103.349 48.478 104.521 45.8143 105.16 45.0685C105.373 44.8554 105.693 44.7489 106.012 44.7489ZM107.504 41.7656C107.93 41.7656 108.356 42.0853 108.356 42.618C108.463 43.1507 107.93 43.5769 107.504 43.5769C106.971 43.5769 106.545 43.2572 106.545 42.618C106.545 42.0853 106.865 41.7656 107.504 41.7656Z" fill="url(#paint41_linear_501_2143)"/>
<path id="Vector_57" d="M111.34 51.4612C106.865 50.5023 110.061 43.2572 114.216 43.5769C117.093 43.7899 115.601 47.519 111.872 47.519C111.446 47.519 110.913 47.4125 110.487 47.3059C109.741 48.7976 109.741 50.5023 111.233 50.8219C111.553 50.9285 111.872 50.9285 112.192 50.9285C115.069 50.9285 118.585 48.2648 120.076 46.2405C120.183 46.1339 120.289 46.1339 120.396 46.1339C120.716 46.1339 121.035 46.5601 120.716 46.8797C118.265 49.4368 114.429 52.1004 111.34 51.4612ZM113.897 44.7488C112.725 44.6423 111.659 45.4947 110.807 46.6667C114.003 47.0928 115.282 44.9619 113.897 44.7488Z" fill="url(#paint42_linear_501_2143)"/>
<path id="Vector_58" d="M126.789 43.8965C129.133 43.8965 126.149 47.8387 127.215 47.9452C128.813 48.2649 131.69 46.8798 132.862 46.347C133.288 46.134 133.501 46.8798 132.968 47.0929C132.009 47.4125 127.108 48.9041 126.043 48.7976C124.125 48.5845 127.641 44.3227 126.469 44.3227C124.125 44.3227 120.609 49.9696 119.65 51.8874C119.544 52.1005 119.331 52.207 119.224 52.207C118.904 52.207 118.585 51.9939 118.691 51.6743C118.798 50.3958 120.076 45.3881 120.822 44.2162C121.035 43.8965 121.248 43.79 121.461 43.79C121.888 43.79 122.314 44.2162 122.101 44.5358C120.929 46.8798 120.716 48.0518 119.97 50.6088C121.035 48.7976 124.338 43.8965 126.789 43.8965Z" fill="url(#paint43_linear_501_2143)"/>
<path id="Vector_59" d="M139.361 44.8554C144.155 44.8554 135.525 70 128.28 70C120.716 70 130.411 50.5023 144.901 47.6256C145.434 47.5191 145.54 48.6911 144.688 48.9041C129.985 51.3547 122.953 69.2542 127.854 69.2542C134.247 69.2542 142.344 46.2405 139.254 46.2405C138.722 46.2405 135.632 50.3958 133.714 50.3958C130.198 50.3958 133.075 43.79 136.484 44.1096C137.55 44.2162 138.615 45.0685 138.295 46.7732C138.295 46.9863 137.337 47.0929 137.337 47.0929C137.55 45.9209 137.123 45.3882 136.378 45.2816C134.46 45.0685 131.37 50.0761 133.394 50.0761C134.886 50.0761 138.295 44.8554 139.361 44.8554Z" fill="url(#paint44_linear_501_2143)"/>
<path id="Vector_60" d="M146.606 51.4612C142.131 50.5023 145.327 43.2572 149.483 43.5769C152.359 43.7899 150.868 47.519 147.139 47.519C146.713 47.519 146.18 47.4125 145.754 47.3059C145.008 48.7976 145.008 50.5023 146.499 50.8219C146.819 50.9285 147.139 50.9285 147.458 50.9285C150.335 50.9285 153.851 48.2648 155.343 46.2405C155.449 46.1339 155.556 46.1339 155.662 46.1339C155.982 46.1339 156.302 46.5601 155.982 46.8797C153.531 49.4368 149.696 52.1004 146.606 51.4612ZM149.057 44.7488C147.885 44.6423 146.819 45.4947 145.967 46.6667C149.27 47.0928 150.548 44.9619 149.057 44.7488Z" fill="url(#paint45_linear_501_2143)"/>
</g>
<g id="Group_6">
<path id="Vector_61" d="M67.0169 38.6758C66.5907 38.6758 66.1646 38.4627 65.9515 38.1431C65.5253 37.5038 65.6318 36.8646 66.4842 36.8646C68.5085 36.758 70.8526 32.4962 71.5984 29.4064C72.6638 25.1446 71.8115 21.2025 67.8693 21.2025C55.1905 21.2025 35.9058 59.6652 51.6745 59.6652C59.1326 59.6652 68.5086 50.7154 74.0489 45.1751C74.1554 45.0685 74.262 45.0685 74.3685 45.0685C74.5816 45.0685 74.7947 45.2816 74.4751 45.6013C69.6805 51.1416 58.4933 61.1568 51.4614 61.1568C33.4553 61.1568 53.2726 20.137 67.7627 20.137C72.4507 20.137 73.3031 24.7185 72.3442 29.513C71.7049 32.7093 70.2133 36.0122 68.402 37.93C68.1889 38.4628 67.5496 38.6758 67.0169 38.6758Z" fill="url(#paint46_linear_501_2143)"/>
<path id="Vector_62" d="M76.7125 44.7489C79.4826 45.2816 77.7779 51.8874 74.2619 51.4612C70.959 51.035 71.9179 44.1096 76.6059 44.4292C77.3517 44.4292 76.819 45.6012 76.6059 45.4947C74.1554 45.2816 71.5983 50.8219 74.2619 51.035C76.6059 51.2481 77.6713 45.8143 76.6059 45.6012C76.0732 45.3881 76.0732 44.6423 76.7125 44.7489ZM77.5648 45.3882C77.991 45.8143 79.163 47.4125 80.9742 47.4125C81.7201 47.4125 82.5724 47.0929 83.5313 46.4536C83.9575 46.134 84.2772 46.9863 83.851 47.1994C82.8921 47.7321 81.9332 48.0518 81.1873 48.0518C79.0565 48.0518 77.7779 46.3471 77.2452 45.6012C76.9255 45.0685 77.1386 44.962 77.5648 45.3882Z" fill="url(#paint47_linear_501_2143)"/>
<path id="Vector_63" d="M82.6789 50.1827C83.9575 48.5845 88.0062 43.8965 89.8174 44.1096C90.9894 44.2162 91.3091 45.1751 90.9894 46.0274C90.5632 47.1994 87.58 50.2892 89.6044 50.2892C91.3091 50.2892 95.1447 46.5601 95.7839 46.2405C96.3167 46.0274 96.4232 46.8798 96.1036 47.0929C94.9316 47.6256 91.4156 50.7154 89.7109 50.7154C88.4324 50.7154 88.1127 50.1827 88.1127 49.5434C88.1127 48.2649 89.3912 46.4536 89.8174 45.2816C89.924 44.962 89.8174 44.6423 89.4978 44.6423C87.58 44.4292 83.3182 49.7565 82.4658 51.3547C82.3593 51.4612 82.2528 51.5678 82.1462 51.5678C81.9331 51.5678 81.72 51.3547 81.8266 51.035C82.0396 49.9696 83.7444 44.6423 84.2771 43.5769C84.4902 43.1507 84.8098 42.9376 85.1295 42.9376C85.6622 42.9376 86.0884 43.4703 85.7687 44.1096C84.9164 46.0274 83.5313 48.0518 82.6789 50.1827Z" fill="url(#paint48_linear_501_2143)"/>
<path id="Vector_64" d="M103.349 47.6256C101.751 47.6256 99.9392 48.1583 98.3411 48.9041C98.7672 49.863 99.1934 50.8219 98.9803 51.7808C98.5542 53.9117 96.2102 55.0837 94.5055 55.0837C93.3335 55.0837 92.4811 54.4444 92.8008 53.1659C93.1204 51.8874 94.8251 50.1826 97.0625 48.9041C95.9971 47.4125 94.612 46.0274 95.0382 44.5358C95.2513 43.79 96.3167 42.5114 98.128 42.618C99.8327 42.7245 100.365 44.3227 99.7262 45.8143C99.5131 46.2405 99.3 46.347 98.9803 46.347C98.4476 46.347 97.8084 45.8143 98.128 45.3881C98.9804 44.2161 98.5542 43.3638 97.8083 43.2572C97.2756 43.2572 96.5298 43.6834 96.3167 44.5358C96.1036 45.4947 97.1691 46.8798 98.128 48.3714C100.259 47.3059 102.709 46.5601 105.053 46.7732C105.799 46.8798 105.693 47.9452 104.734 47.7321C104.201 47.6256 103.775 47.6256 103.349 47.6256ZM93.0138 53.1659C92.6942 54.1248 93.44 54.6575 94.3989 54.6575C95.6775 54.6575 97.2756 53.8052 97.7018 51.6743C97.9149 50.8219 97.5953 50.0761 97.1691 49.3303C95.0382 50.6088 93.3335 52.1005 93.0138 53.1659Z" fill="url(#paint49_linear_501_2143)"/>
<path id="Vector_65" d="M106.012 44.7489C106.652 44.7489 107.291 45.2816 106.652 45.9209C104.84 47.7321 103.349 50.9285 104.84 50.9285C106.332 50.9285 109.209 47.519 110.061 46.6667C110.487 46.2405 110.913 46.9863 110.381 47.4125C109.422 48.3714 106.225 51.2481 104.947 51.2481C103.988 51.2481 103.242 50.7154 103.242 49.7565C103.349 48.478 104.521 45.8143 105.16 45.0685C105.373 44.8554 105.693 44.7489 106.012 44.7489ZM107.504 41.7656C107.93 41.7656 108.356 42.0853 108.356 42.618C108.463 43.1507 107.93 43.5769 107.504 43.5769C106.971 43.5769 106.545 43.2572 106.545 42.618C106.545 42.0853 106.865 41.7656 107.504 41.7656Z" fill="url(#paint50_linear_501_2143)"/>
<path id="Vector_66" d="M111.34 51.4612C106.865 50.5023 110.061 43.2572 114.216 43.5769C117.093 43.7899 115.601 47.519 111.872 47.519C111.446 47.519 110.913 47.4125 110.487 47.3059C109.741 48.7976 109.741 50.5023 111.233 50.8219C111.553 50.9285 111.872 50.9285 112.192 50.9285C115.069 50.9285 118.585 48.2648 120.076 46.2405C120.183 46.1339 120.289 46.1339 120.396 46.1339C120.716 46.1339 121.035 46.5601 120.716 46.8797C118.265 49.4368 114.429 52.1004 111.34 51.4612ZM113.897 44.7488C112.725 44.6423 111.659 45.4947 110.807 46.6667C114.003 47.0928 115.282 44.9619 113.897 44.7488Z" fill="url(#paint51_linear_501_2143)"/>
<path id="Vector_67" d="M126.789 43.8965C129.133 43.8965 126.149 47.8387 127.215 47.9452C128.813 48.2649 131.69 46.8798 132.862 46.347C133.288 46.134 133.501 46.8798 132.968 47.0929C132.009 47.4125 127.108 48.9041 126.043 48.7976C124.125 48.5845 127.641 44.3227 126.469 44.3227C124.125 44.3227 120.609 49.9696 119.65 51.8874C119.544 52.1005 119.331 52.207 119.224 52.207C118.904 52.207 118.585 51.9939 118.691 51.6743C118.798 50.3958 120.076 45.3881 120.822 44.2162C121.035 43.8965 121.248 43.79 121.461 43.79C121.888 43.79 122.314 44.2162 122.101 44.5358C120.929 46.8798 120.716 48.0518 119.97 50.6088C121.035 48.7976 124.338 43.8965 126.789 43.8965Z" fill="url(#paint52_linear_501_2143)"/>
<path id="Vector_68" d="M139.361 44.8554C144.155 44.8554 135.525 70 128.28 70C120.716 70 130.411 50.5023 144.901 47.6256C145.434 47.5191 145.54 48.6911 144.688 48.9041C129.985 51.3547 122.953 69.2542 127.854 69.2542C134.247 69.2542 142.344 46.2405 139.254 46.2405C138.722 46.2405 135.632 50.3958 133.714 50.3958C130.198 50.3958 133.075 43.79 136.484 44.1096C137.55 44.2162 138.615 45.0685 138.295 46.7732C138.295 46.9863 137.337 47.0929 137.337 47.0929C137.55 45.9209 137.123 45.3882 136.378 45.2816C134.46 45.0685 131.37 50.0761 133.394 50.0761C134.886 50.0761 138.295 44.8554 139.361 44.8554Z" fill="url(#paint53_linear_501_2143)"/>
<path id="Vector_69" d="M146.606 51.4612C142.131 50.5023 145.327 43.2572 149.483 43.5769C152.359 43.7899 150.868 47.519 147.139 47.519C146.713 47.519 146.18 47.4125 145.754 47.3059C145.008 48.7976 145.008 50.5023 146.499 50.8219C146.819 50.9285 147.139 50.9285 147.458 50.9285C150.335 50.9285 153.851 48.2648 155.343 46.2405C155.449 46.1339 155.556 46.1339 155.662 46.1339C155.982 46.1339 156.302 46.5601 155.982 46.8797C153.531 49.4368 149.696 52.1004 146.606 51.4612ZM149.057 44.7488C147.885 44.6423 146.819 45.4947 145.967 46.6667C149.27 47.0928 150.548 44.9619 149.057 44.7488Z" fill="url(#paint54_linear_501_2143)"/>
</g>
<path id="Vector_70" d="M67.0169 38.6758C66.5907 38.6758 66.1646 38.4627 65.9515 38.1431C65.5253 37.5038 65.6318 36.8646 66.4842 36.8646C68.5085 36.758 70.8526 32.4962 71.5984 29.4064C72.6638 25.1446 71.8115 21.2025 67.8693 21.2025C55.1905 21.2025 35.9058 59.6652 51.6745 59.6652C59.1326 59.6652 68.5086 50.7154 74.0489 45.1751C74.1554 45.0685 74.262 45.0685 74.3685 45.0685C74.5816 45.0685 74.7947 45.2816 74.4751 45.6013C69.6805 51.1416 58.4933 61.1568 51.4614 61.1568C33.4553 61.1568 53.2726 20.137 67.7627 20.137C72.4507 20.137 73.3031 24.7185 72.3442 29.513C71.7049 32.7093 70.2133 36.0122 68.402 37.93C68.1889 38.4628 67.5496 38.6758 67.0169 38.6758Z" fill="url(#paint55_linear_501_2143)"/>
<path id="Vector_71" d="M76.7126 44.7489C79.4827 45.2816 77.778 51.8874 74.2621 51.4612C70.9592 51.035 71.918 44.1096 76.606 44.4292C77.3518 44.4292 76.8191 45.6012 76.606 45.4947C74.1555 45.2816 71.5984 50.8219 74.2621 51.035C76.606 51.2481 77.6715 45.8143 76.606 45.6012C76.0733 45.3881 76.0733 44.6423 76.7126 44.7489ZM77.5649 45.3882C77.9911 45.8143 79.1631 47.4125 80.9744 47.4125C81.7202 47.4125 82.5725 47.0929 83.5314 46.4536C83.9576 46.134 84.2773 46.9863 83.8511 47.1994C82.8922 47.7321 81.9333 48.0518 81.1875 48.0518C79.0566 48.0518 77.778 46.3471 77.2453 45.6012C76.9257 45.0685 77.1387 44.962 77.5649 45.3882Z" fill="url(#paint56_linear_501_2143)"/>
<path id="Vector_72" d="M82.6789 50.1826C83.9575 48.5844 88.0062 43.8965 89.8174 44.1096C90.9894 44.2161 91.3091 45.175 90.9894 46.0274C90.5632 47.1994 87.58 50.2892 89.6044 50.2892C91.3091 50.2892 95.1447 46.5601 95.7839 46.2405C96.3167 46.0274 96.4232 46.8797 96.1036 47.0928C94.9316 47.6255 91.4156 50.7153 89.7109 50.7153C88.4324 50.7153 88.1127 50.1826 88.1127 49.5433C88.1127 48.2648 89.3912 46.4535 89.8174 45.2815C89.924 44.9619 89.8174 44.6423 89.4978 44.6423C87.58 44.4292 83.3182 49.7564 82.4658 51.3546C82.3593 51.4612 82.2528 51.5677 82.1462 51.5677C81.9331 51.5677 81.72 51.3546 81.8266 51.035C82.0396 49.9695 83.7444 44.6423 84.2771 43.5768C84.4902 43.1506 84.8098 42.9376 85.1295 42.9376C85.6622 42.9376 86.0884 43.4703 85.7687 44.1096C84.9164 46.0274 83.5313 48.0517 82.6789 50.1826Z" fill="url(#paint57_linear_501_2143)"/>
<path id="Vector_73" d="M103.349 47.6256C101.751 47.6256 99.9392 48.1583 98.3411 48.9041C98.7672 49.863 99.1934 50.8219 98.9803 51.7808C98.5542 53.9117 96.2102 55.0837 94.5055 55.0837C93.3335 55.0837 92.4811 54.4444 92.8008 53.1659C93.1204 51.8874 94.8251 50.1826 97.0625 48.9041C95.9971 47.4125 94.612 46.0274 95.0382 44.5358C95.2513 43.79 96.3167 42.5114 98.128 42.618C99.8327 42.7245 100.365 44.3227 99.7262 45.8143C99.5131 46.2405 99.3 46.347 98.9803 46.347C98.4476 46.347 97.8084 45.8143 98.128 45.3881C98.9804 44.2161 98.5542 43.3638 97.8083 43.2572C97.2756 43.2572 96.5298 43.6834 96.3167 44.5358C96.1036 45.4947 97.1691 46.8798 98.128 48.3714C100.259 47.3059 102.709 46.5601 105.053 46.7732C105.799 46.8798 105.693 47.9452 104.734 47.7321C104.201 47.6256 103.775 47.6256 103.349 47.6256ZM93.0138 53.1659C92.6942 54.1248 93.44 54.6575 94.3989 54.6575C95.6775 54.6575 97.2756 53.8052 97.7018 51.6743C97.9149 50.8219 97.5953 50.0761 97.1691 49.3303C95.0382 50.6088 93.3335 52.1005 93.0138 53.1659Z" fill="url(#paint58_linear_501_2143)"/>
<path id="Vector_74" d="M106.012 44.7489C106.651 44.7489 107.291 45.2816 106.651 45.9209C104.84 47.7321 103.348 50.9285 104.84 50.9285C106.332 50.9285 109.208 47.519 110.061 46.6667C110.487 46.2405 110.913 46.9863 110.38 47.4125C109.422 48.3714 106.225 51.2481 104.947 51.2481C103.988 51.2481 103.242 50.7154 103.242 49.7565C103.348 48.478 104.521 45.8143 105.16 45.0685C105.373 44.8554 105.692 44.7489 106.012 44.7489ZM107.504 41.7656C107.93 41.7656 108.356 42.0853 108.356 42.618C108.463 43.1507 107.93 43.5769 107.504 43.5769C106.971 43.5769 106.545 43.2572 106.545 42.618C106.545 42.0853 106.864 41.7656 107.504 41.7656Z" fill="url(#paint59_linear_501_2143)"/>
<path id="Vector_75" d="M111.34 51.4612C106.865 50.5023 110.061 43.2572 114.216 43.5769C117.093 43.7899 115.601 47.519 111.872 47.519C111.446 47.519 110.913 47.4125 110.487 47.3059C109.741 48.7976 109.741 50.5023 111.233 50.8219C111.553 50.9285 111.872 50.9285 112.192 50.9285C115.069 50.9285 118.585 48.2648 120.076 46.2405C120.183 46.1339 120.289 46.1339 120.396 46.1339C120.716 46.1339 121.035 46.5601 120.716 46.8797C118.265 49.4368 114.429 52.1004 111.34 51.4612ZM113.897 44.7488C112.725 44.6423 111.659 45.4947 110.807 46.6667C114.003 47.0928 115.282 44.9619 113.897 44.7488Z" fill="url(#paint60_linear_501_2143)"/>
<path id="Vector_76" d="M126.788 43.8965C129.132 43.8965 126.149 47.8386 127.215 47.9452C128.813 48.2648 131.69 46.8797 132.862 46.347C133.288 46.1339 133.501 46.8797 132.968 47.0928C132.009 47.4124 127.108 48.9041 126.043 48.7975C124.125 48.5844 127.641 44.3226 126.469 44.3226C124.125 44.3226 120.609 49.9695 119.65 51.8873C119.543 52.1004 119.33 52.207 119.224 52.207C118.904 52.207 118.585 51.9939 118.691 51.6742C118.798 50.3957 120.076 45.3881 120.822 44.2161C121.035 43.8965 121.248 43.7899 121.461 43.7899C121.887 43.7899 122.314 44.2161 122.1 44.5357C120.928 46.8797 120.715 48.0517 119.97 50.6088C121.035 48.7975 124.338 43.8965 126.788 43.8965Z" fill="url(#paint61_linear_501_2143)"/>
<path id="Vector_77" d="M139.361 44.8554C144.155 44.8554 135.525 70 128.28 70C120.716 70 130.411 50.5023 144.901 47.6256C145.434 47.5191 145.54 48.6911 144.688 48.9041C129.985 51.3547 122.953 69.2542 127.854 69.2542C134.247 69.2542 142.344 46.2405 139.254 46.2405C138.722 46.2405 135.632 50.3958 133.714 50.3958C130.198 50.3958 133.075 43.79 136.484 44.1096C137.55 44.2162 138.615 45.0685 138.295 46.7732C138.295 46.9863 137.337 47.0929 137.337 47.0929C137.55 45.9209 137.123 45.3882 136.378 45.2816C134.46 45.0685 131.37 50.0761 133.394 50.0761C134.886 50.0761 138.295 44.8554 139.361 44.8554Z" fill="url(#paint62_linear_501_2143)"/>
<path id="Vector_78" d="M146.606 51.4612C142.131 50.5023 145.328 43.2572 149.483 43.5769C152.36 43.7899 150.868 47.519 147.139 47.519C146.713 47.519 146.18 47.4125 145.754 47.3059C145.008 48.7976 145.008 50.5023 146.5 50.8219C146.819 50.9285 147.139 50.9285 147.459 50.9285C150.335 50.9285 153.851 48.2648 155.343 46.2405C155.449 46.1339 155.556 46.1339 155.662 46.1339C155.982 46.1339 156.302 46.5601 155.982 46.8797C153.532 49.4368 149.696 52.1004 146.606 51.4612ZM149.057 44.7488C147.885 44.6423 146.819 45.4947 145.967 46.6667C149.27 47.0928 150.548 44.9619 149.057 44.7488Z" fill="url(#paint63_linear_501_2143)"/>
</g>
<defs>
<linearGradient id="paint0_linear_501_2143" x1="0" y1="35.0274" x2="200.304" y2="35.0274" gradientUnits="userSpaceOnUse">
<stop stop-color="white"/>
<stop offset="1" stop-color="#1D1D1B"/>
</linearGradient>
<linearGradient id="paint1_linear_501_2143" x1="0.00019198" y1="35.0274" x2="200.305" y2="35.0274" gradientUnits="userSpaceOnUse">
<stop stop-color="white"/>
<stop offset="1" stop-color="#1D1D1B"/>
</linearGradient>
<linearGradient id="paint2_linear_501_2143" x1="-5.4893e-05" y1="35.0274" x2="200.304" y2="35.0274" gradientUnits="userSpaceOnUse">
<stop stop-color="white"/>
<stop offset="1" stop-color="#1D1D1B"/>
</linearGradient>
<linearGradient id="paint3_linear_501_2143" x1="9.90241e-05" y1="35.0274" x2="200.305" y2="35.0274" gradientUnits="userSpaceOnUse">
<stop stop-color="white"/>
<stop offset="1" stop-color="#1D1D1B"/>
</linearGradient>
<linearGradient id="paint4_linear_501_2143" x1="0.000277018" y1="35.0274" x2="200.305" y2="35.0274" gradientUnits="userSpaceOnUse">
<stop stop-color="white"/>
<stop offset="1" stop-color="#1D1D1B"/>
</linearGradient>
<linearGradient id="paint5_linear_501_2143" x1="0.000172779" y1="35.0274" x2="200.305" y2="35.0274" gradientUnits="userSpaceOnUse">
<stop stop-color="white"/>
<stop offset="1" stop-color="#1D1D1B"/>
</linearGradient>
<linearGradient id="paint6_linear_501_2143" x1="0.000111229" y1="35.0274" x2="200.305" y2="35.0274" gradientUnits="userSpaceOnUse">
<stop stop-color="white"/>
<stop offset="1" stop-color="#1D1D1B"/>
</linearGradient>
<linearGradient id="paint7_linear_501_2143" x1="-3.0243e-05" y1="35.0274" x2="200.305" y2="35.0274" gradientUnits="userSpaceOnUse">
<stop stop-color="white"/>
<stop offset="1" stop-color="#1D1D1B"/>
</linearGradient>
<linearGradient id="paint8_linear_501_2143" x1="0.000199705" y1="35.0274" x2="200.304" y2="35.0274" gradientUnits="userSpaceOnUse">
<stop stop-color="white"/>
<stop offset="1" stop-color="#1D1D1B"/>
</linearGradient>
<linearGradient id="paint9_linear_501_2143" x1="6.15285e-05" y1="35.0274" x2="200.305" y2="35.0274" gradientUnits="userSpaceOnUse">
<stop stop-color="white"/>
<stop offset="1" stop-color="#1D1D1B"/>
</linearGradient>
<linearGradient id="paint10_linear_501_2143" x1="0.000322203" y1="35.0274" x2="200.305" y2="35.0274" gradientUnits="userSpaceOnUse">
<stop stop-color="white"/>
<stop offset="1" stop-color="#1D1D1B"/>
</linearGradient>
<linearGradient id="paint11_linear_501_2143" x1="0.000520173" y1="35.0274" x2="200.305" y2="35.0274" gradientUnits="userSpaceOnUse">
<stop stop-color="white"/>
<stop offset="1" stop-color="#1D1D1B"/>
</linearGradient>
<linearGradient id="paint12_linear_501_2143" x1="0.000362543" y1="35.0274" x2="200.305" y2="35.0274" gradientUnits="userSpaceOnUse">
<stop stop-color="white"/>
<stop offset="1" stop-color="#1D1D1B"/>
</linearGradient>
<linearGradient id="paint13_linear_501_2143" x1="-0.000279454" y1="35.0274" x2="200.305" y2="35.0274" gradientUnits="userSpaceOnUse">
<stop stop-color="white"/>
<stop offset="1" stop-color="#1D1D1B"/>
</linearGradient>
<linearGradient id="paint14_linear_501_2143" x1="0.000172779" y1="35.0274" x2="200.305" y2="35.0274" gradientUnits="userSpaceOnUse">
<stop stop-color="white"/>
<stop offset="1" stop-color="#1D1D1B"/>
</linearGradient>
<linearGradient id="paint15_linear_501_2143" x1="0.000111229" y1="35.0274" x2="200.305" y2="35.0274" gradientUnits="userSpaceOnUse">
<stop stop-color="white"/>
<stop offset="1" stop-color="#1D1D1B"/>
</linearGradient>
<linearGradient id="paint16_linear_501_2143" x1="-3.0243e-05" y1="35.0274" x2="200.305" y2="35.0274" gradientUnits="userSpaceOnUse">
<stop stop-color="white"/>
<stop offset="1" stop-color="#1D1D1B"/>
</linearGradient>
<linearGradient id="paint17_linear_501_2143" x1="0.000199705" y1="35.0274" x2="200.304" y2="35.0274" gradientUnits="userSpaceOnUse">
<stop stop-color="white"/>
<stop offset="1" stop-color="#1D1D1B"/>
</linearGradient>
<linearGradient id="paint18_linear_501_2143" x1="6.15285e-05" y1="35.0274" x2="200.305" y2="35.0274" gradientUnits="userSpaceOnUse">
<stop stop-color="white"/>
<stop offset="1" stop-color="#1D1D1B"/>
</linearGradient>
<linearGradient id="paint19_linear_501_2143" x1="0.000322203" y1="35.0274" x2="200.305" y2="35.0274" gradientUnits="userSpaceOnUse">
<stop stop-color="white"/>
<stop offset="1" stop-color="#1D1D1B"/>
</linearGradient>
<linearGradient id="paint20_linear_501_2143" x1="0.000520173" y1="35.0274" x2="200.305" y2="35.0274" gradientUnits="userSpaceOnUse">
<stop stop-color="white"/>
<stop offset="1" stop-color="#1D1D1B"/>
</linearGradient>
<linearGradient id="paint21_linear_501_2143" x1="0.000362543" y1="35.0274" x2="200.305" y2="35.0274" gradientUnits="userSpaceOnUse">
<stop stop-color="white"/>
<stop offset="1" stop-color="#1D1D1B"/>
</linearGradient>
<linearGradient id="paint22_linear_501_2143" x1="-0.000279454" y1="35.0274" x2="200.305" y2="35.0274" gradientUnits="userSpaceOnUse">
<stop stop-color="white"/>
<stop offset="1" stop-color="#1D1D1B"/>
</linearGradient>
<linearGradient id="paint23_linear_501_2143" x1="0.000172779" y1="35.0274" x2="200.305" y2="35.0274" gradientUnits="userSpaceOnUse">
<stop stop-color="white"/>
<stop offset="1" stop-color="#1D1D1B"/>
</linearGradient>
<linearGradient id="paint24_linear_501_2143" x1="0.000111229" y1="35.0274" x2="200.305" y2="35.0274" gradientUnits="userSpaceOnUse">
<stop stop-color="white"/>
<stop offset="1" stop-color="#1D1D1B"/>
</linearGradient>
<linearGradient id="paint25_linear_501_2143" x1="-3.0243e-05" y1="35.0274" x2="200.305" y2="35.0274" gradientUnits="userSpaceOnUse">
<stop stop-color="white"/>
<stop offset="1" stop-color="#1D1D1B"/>
</linearGradient>
<linearGradient id="paint26_linear_501_2143" x1="0.000199705" y1="35.0274" x2="200.304" y2="35.0274" gradientUnits="userSpaceOnUse">
<stop stop-color="white"/>
<stop offset="1" stop-color="#1D1D1B"/>
</linearGradient>
<linearGradient id="paint27_linear_501_2143" x1="6.15285e-05" y1="35.0274" x2="200.305" y2="35.0274" gradientUnits="userSpaceOnUse">
<stop stop-color="white"/>
<stop offset="1" stop-color="#1D1D1B"/>
</linearGradient>
<linearGradient id="paint28_linear_501_2143" x1="0.000322203" y1="35.0274" x2="200.305" y2="35.0274" gradientUnits="userSpaceOnUse">
<stop stop-color="white"/>
<stop offset="1" stop-color="#1D1D1B"/>
</linearGradient>
<linearGradient id="paint29_linear_501_2143" x1="0.000520173" y1="35.0274" x2="200.305" y2="35.0274" gradientUnits="userSpaceOnUse">
<stop stop-color="white"/>
<stop offset="1" stop-color="#1D1D1B"/>
</linearGradient>
<linearGradient id="paint30_linear_501_2143" x1="0.000362543" y1="35.0274" x2="200.305" y2="35.0274" gradientUnits="userSpaceOnUse">
<stop stop-color="white"/>
<stop offset="1" stop-color="#1D1D1B"/>
</linearGradient>
<linearGradient id="paint31_linear_501_2143" x1="-0.000279454" y1="35.0274" x2="200.305" y2="35.0274" gradientUnits="userSpaceOnUse">
<stop stop-color="white"/>
<stop offset="1" stop-color="#1D1D1B"/>
</linearGradient>
<linearGradient id="paint32_linear_501_2143" x1="0" y1="35.0274" x2="200.304" y2="35.0274" gradientUnits="userSpaceOnUse">
<stop stop-color="#8C6034"/>
<stop offset="0.1432" stop-color="#A9824F"/>
<stop offset="0.4583" stop-color="#F2D893"/>
<stop offset="0.5112" stop-color="#FFE79F"/>
<stop offset="0.6661" stop-color="#E2C07C"/>
<stop offset="1" stop-color="#A67033"/>
</linearGradient>
<linearGradient id="paint33_linear_501_2143" x1="0.00019198" y1="35.0274" x2="200.305" y2="35.0274" gradientUnits="userSpaceOnUse">
<stop stop-color="#8C6034"/>
<stop offset="0.1432" stop-color="#A9824F"/>
<stop offset="0.4583" stop-color="#F2D893"/>
<stop offset="0.5112" stop-color="#FFE79F"/>
<stop offset="0.6661" stop-color="#E2C07C"/>
<stop offset="1" stop-color="#A67033"/>
</linearGradient>
<linearGradient id="paint34_linear_501_2143" x1="-5.4893e-05" y1="35.0274" x2="200.304" y2="35.0274" gradientUnits="userSpaceOnUse">
<stop stop-color="#8C6034"/>
<stop offset="0.1432" stop-color="#A9824F"/>
<stop offset="0.4583" stop-color="#F2D893"/>
<stop offset="0.5112" stop-color="#FFE79F"/>
<stop offset="0.6661" stop-color="#E2C07C"/>
<stop offset="1" stop-color="#A67033"/>
</linearGradient>
<linearGradient id="paint35_linear_501_2143" x1="9.90241e-05" y1="35.0274" x2="200.305" y2="35.0274" gradientUnits="userSpaceOnUse">
<stop stop-color="#8C6034"/>
<stop offset="0.1432" stop-color="#A9824F"/>
<stop offset="0.4583" stop-color="#F2D893"/>
<stop offset="0.5112" stop-color="#FFE79F"/>
<stop offset="0.6661" stop-color="#E2C07C"/>
<stop offset="1" stop-color="#A67033"/>
</linearGradient>
<linearGradient id="paint36_linear_501_2143" x1="0.000277018" y1="35.0274" x2="200.305" y2="35.0274" gradientUnits="userSpaceOnUse">
<stop stop-color="#8C6034"/>
<stop offset="0.1432" stop-color="#A9824F"/>
<stop offset="0.4583" stop-color="#F2D893"/>
<stop offset="0.5112" stop-color="#FFE79F"/>
<stop offset="0.6661" stop-color="#E2C07C"/>
<stop offset="1" stop-color="#A67033"/>
</linearGradient>
<linearGradient id="paint37_linear_501_2143" x1="0.000172779" y1="35.0274" x2="200.305" y2="35.0274" gradientUnits="userSpaceOnUse">
<stop stop-color="#8C6034"/>
<stop offset="0.1432" stop-color="#A9824F"/>
<stop offset="0.4583" stop-color="#F2D893"/>
<stop offset="0.5112" stop-color="#FFE79F"/>
<stop offset="0.6661" stop-color="#E2C07C"/>
<stop offset="1" stop-color="#A67033"/>
</linearGradient>
<linearGradient id="paint38_linear_501_2143" x1="0.000111229" y1="35.0274" x2="200.305" y2="35.0274" gradientUnits="userSpaceOnUse">
<stop stop-color="#8C6034"/>
<stop offset="0.1432" stop-color="#A9824F"/>
<stop offset="0.4583" stop-color="#F2D893"/>
<stop offset="0.5112" stop-color="#FFE79F"/>
<stop offset="0.6661" stop-color="#E2C07C"/>
<stop offset="1" stop-color="#A67033"/>
</linearGradient>
<linearGradient id="paint39_linear_501_2143" x1="-3.0243e-05" y1="35.0274" x2="200.305" y2="35.0274" gradientUnits="userSpaceOnUse">
<stop stop-color="#8C6034"/>
<stop offset="0.1432" stop-color="#A9824F"/>
<stop offset="0.4583" stop-color="#F2D893"/>
<stop offset="0.5112" stop-color="#FFE79F"/>
<stop offset="0.6661" stop-color="#E2C07C"/>
<stop offset="1" stop-color="#A67033"/>
</linearGradient>
<linearGradient id="paint40_linear_501_2143" x1="0.000199705" y1="35.0274" x2="200.304" y2="35.0274" gradientUnits="userSpaceOnUse">
<stop stop-color="#8C6034"/>
<stop offset="0.1432" stop-color="#A9824F"/>
<stop offset="0.4583" stop-color="#F2D893"/>
<stop offset="0.5112" stop-color="#FFE79F"/>
<stop offset="0.6661" stop-color="#E2C07C"/>
<stop offset="1" stop-color="#A67033"/>
</linearGradient>
<linearGradient id="paint41_linear_501_2143" x1="6.15285e-05" y1="35.0274" x2="200.305" y2="35.0274" gradientUnits="userSpaceOnUse">
<stop stop-color="#8C6034"/>
<stop offset="0.1432" stop-color="#A9824F"/>
<stop offset="0.4583" stop-color="#F2D893"/>
<stop offset="0.5112" stop-color="#FFE79F"/>
<stop offset="0.6661" stop-color="#E2C07C"/>
<stop offset="1" stop-color="#A67033"/>
</linearGradient>
<linearGradient id="paint42_linear_501_2143" x1="0.000322203" y1="35.0274" x2="200.305" y2="35.0274" gradientUnits="userSpaceOnUse">
<stop stop-color="#8C6034"/>
<stop offset="0.1432" stop-color="#A9824F"/>
<stop offset="0.4583" stop-color="#F2D893"/>
<stop offset="0.5112" stop-color="#FFE79F"/>
<stop offset="0.6661" stop-color="#E2C07C"/>
<stop offset="1" stop-color="#A67033"/>
</linearGradient>
<linearGradient id="paint43_linear_501_2143" x1="0.000520173" y1="35.0274" x2="200.305" y2="35.0274" gradientUnits="userSpaceOnUse">
<stop stop-color="#8C6034"/>
<stop offset="0.1432" stop-color="#A9824F"/>
<stop offset="0.4583" stop-color="#F2D893"/>
<stop offset="0.5112" stop-color="#FFE79F"/>
<stop offset="0.6661" stop-color="#E2C07C"/>
<stop offset="1" stop-color="#A67033"/>
</linearGradient>
<linearGradient id="paint44_linear_501_2143" x1="0.000362543" y1="35.0274" x2="200.305" y2="35.0274" gradientUnits="userSpaceOnUse">
<stop stop-color="#8C6034"/>
<stop offset="0.1432" stop-color="#A9824F"/>
<stop offset="0.4583" stop-color="#F2D893"/>
<stop offset="0.5112" stop-color="#FFE79F"/>
<stop offset="0.6661" stop-color="#E2C07C"/>
<stop offset="1" stop-color="#A67033"/>
</linearGradient>
<linearGradient id="paint45_linear_501_2143" x1="-0.000279454" y1="35.0274" x2="200.305" y2="35.0274" gradientUnits="userSpaceOnUse">
<stop stop-color="#8C6034"/>
<stop offset="0.1432" stop-color="#A9824F"/>
<stop offset="0.4583" stop-color="#F2D893"/>
<stop offset="0.5112" stop-color="#FFE79F"/>
<stop offset="0.6661" stop-color="#E2C07C"/>
<stop offset="1" stop-color="#A67033"/>
</linearGradient>
<linearGradient id="paint46_linear_501_2143" x1="0.000172779" y1="35.0274" x2="200.305" y2="35.0274" gradientUnits="userSpaceOnUse">
<stop stop-color="#8C6034"/>
<stop offset="0.1432" stop-color="#A9824F"/>
<stop offset="0.4583" stop-color="#F2D893"/>
<stop offset="0.5112" stop-color="#FFE79F"/>
<stop offset="0.6661" stop-color="#E2C07C"/>
<stop offset="1" stop-color="#A67033"/>
</linearGradient>
<linearGradient id="paint47_linear_501_2143" x1="0.000111229" y1="35.0274" x2="200.305" y2="35.0274" gradientUnits="userSpaceOnUse">
<stop stop-color="#8C6034"/>
<stop offset="0.1432" stop-color="#A9824F"/>
<stop offset="0.4583" stop-color="#F2D893"/>
<stop offset="0.5112" stop-color="#FFE79F"/>
<stop offset="0.6661" stop-color="#E2C07C"/>
<stop offset="1" stop-color="#A67033"/>
</linearGradient>
<linearGradient id="paint48_linear_501_2143" x1="-3.0243e-05" y1="35.0274" x2="200.305" y2="35.0274" gradientUnits="userSpaceOnUse">
<stop stop-color="#8C6034"/>
<stop offset="0.1432" stop-color="#A9824F"/>
<stop offset="0.4583" stop-color="#F2D893"/>
<stop offset="0.5112" stop-color="#FFE79F"/>
<stop offset="0.6661" stop-color="#E2C07C"/>
<stop offset="1" stop-color="#A67033"/>
</linearGradient>
<linearGradient id="paint49_linear_501_2143" x1="0.000199705" y1="35.0274" x2="200.304" y2="35.0274" gradientUnits="userSpaceOnUse">
<stop stop-color="#8C6034"/>
<stop offset="0.1432" stop-color="#A9824F"/>
<stop offset="0.4583" stop-color="#F2D893"/>
<stop offset="0.5112" stop-color="#FFE79F"/>
<stop offset="0.6661" stop-color="#E2C07C"/>
<stop offset="1" stop-color="#A67033"/>
</linearGradient>
<linearGradient id="paint50_linear_501_2143" x1="6.15285e-05" y1="35.0274" x2="200.305" y2="35.0274" gradientUnits="userSpaceOnUse">
<stop stop-color="#8C6034"/>
<stop offset="0.1432" stop-color="#A9824F"/>
<stop offset="0.4583" stop-color="#F2D893"/>
<stop offset="0.5112" stop-color="#FFE79F"/>
<stop offset="0.6661" stop-color="#E2C07C"/>
<stop offset="1" stop-color="#A67033"/>
</linearGradient>
<linearGradient id="paint51_linear_501_2143" x1="0.000322203" y1="35.0274" x2="200.305" y2="35.0274" gradientUnits="userSpaceOnUse">
<stop stop-color="#8C6034"/>
<stop offset="0.1432" stop-color="#A9824F"/>
<stop offset="0.4583" stop-color="#F2D893"/>
<stop offset="0.5112" stop-color="#FFE79F"/>
<stop offset="0.6661" stop-color="#E2C07C"/>
<stop offset="1" stop-color="#A67033"/>
</linearGradient>
<linearGradient id="paint52_linear_501_2143" x1="0.000520173" y1="35.0274" x2="200.305" y2="35.0274" gradientUnits="userSpaceOnUse">
<stop stop-color="#8C6034"/>
<stop offset="0.1432" stop-color="#A9824F"/>
<stop offset="0.4583" stop-color="#F2D893"/>
<stop offset="0.5112" stop-color="#FFE79F"/>
<stop offset="0.6661" stop-color="#E2C07C"/>
<stop offset="1" stop-color="#A67033"/>
</linearGradient>
<linearGradient id="paint53_linear_501_2143" x1="0.000362543" y1="35.0274" x2="200.305" y2="35.0274" gradientUnits="userSpaceOnUse">
<stop stop-color="#8C6034"/>
<stop offset="0.1432" stop-color="#A9824F"/>
<stop offset="0.4583" stop-color="#F2D893"/>
<stop offset="0.5112" stop-color="#FFE79F"/>
<stop offset="0.6661" stop-color="#E2C07C"/>
<stop offset="1" stop-color="#A67033"/>
</linearGradient>
<linearGradient id="paint54_linear_501_2143" x1="-0.000279454" y1="35.0274" x2="200.305" y2="35.0274" gradientUnits="userSpaceOnUse">
<stop stop-color="#8C6034"/>
<stop offset="0.1432" stop-color="#A9824F"/>
<stop offset="0.4583" stop-color="#F2D893"/>
<stop offset="0.5112" stop-color="#FFE79F"/>
<stop offset="0.6661" stop-color="#E2C07C"/>
<stop offset="1" stop-color="#A67033"/>
</linearGradient>
<linearGradient id="paint55_linear_501_2143" x1="0.000172779" y1="35.0274" x2="200.305" y2="35.0274" gradientUnits="userSpaceOnUse">
<stop stop-color="#8C6034"/>
<stop offset="0.1432" stop-color="#A9824F"/>
<stop offset="0.4583" stop-color="#F2D893"/>
<stop offset="0.5112" stop-color="#FFE79F"/>
<stop offset="0.6661" stop-color="#E2C07C"/>
<stop offset="1" stop-color="#A67033"/>
</linearGradient>
<linearGradient id="paint56_linear_501_2143" x1="0.000233299" y1="35.0274" x2="200.305" y2="35.0274" gradientUnits="userSpaceOnUse">
<stop stop-color="#8C6034"/>
<stop offset="0.1432" stop-color="#A9824F"/>
<stop offset="0.4583" stop-color="#F2D893"/>
<stop offset="0.5112" stop-color="#FFE79F"/>
<stop offset="0.6661" stop-color="#E2C07C"/>
<stop offset="1" stop-color="#A67033"/>
</linearGradient>
<linearGradient id="paint57_linear_501_2143" x1="-3.0243e-05" y1="35.0274" x2="200.305" y2="35.0274" gradientUnits="userSpaceOnUse">
<stop stop-color="#8C6034"/>
<stop offset="0.1432" stop-color="#A9824F"/>
<stop offset="0.4583" stop-color="#F2D893"/>
<stop offset="0.5112" stop-color="#FFE79F"/>
<stop offset="0.6661" stop-color="#E2C07C"/>
<stop offset="1" stop-color="#A67033"/>
</linearGradient>
<linearGradient id="paint58_linear_501_2143" x1="0.000199705" y1="35.0274" x2="200.304" y2="35.0274" gradientUnits="userSpaceOnUse">
<stop stop-color="#8C6034"/>
<stop offset="0.1432" stop-color="#A9824F"/>
<stop offset="0.4583" stop-color="#F2D893"/>
<stop offset="0.5112" stop-color="#FFE79F"/>
<stop offset="0.6661" stop-color="#E2C07C"/>
<stop offset="1" stop-color="#A67033"/>
</linearGradient>
<linearGradient id="paint59_linear_501_2143" x1="-0.000182612" y1="35.0274" x2="200.304" y2="35.0274" gradientUnits="userSpaceOnUse">
<stop stop-color="#8C6034"/>
<stop offset="0.1432" stop-color="#A9824F"/>
<stop offset="0.4583" stop-color="#F2D893"/>
<stop offset="0.5112" stop-color="#FFE79F"/>
<stop offset="0.6661" stop-color="#E2C07C"/>
<stop offset="1" stop-color="#A67033"/>
</linearGradient>
<linearGradient id="paint60_linear_501_2143" x1="0.000322203" y1="35.0274" x2="200.305" y2="35.0274" gradientUnits="userSpaceOnUse">
<stop stop-color="#8C6034"/>
<stop offset="0.1432" stop-color="#A9824F"/>
<stop offset="0.4583" stop-color="#F2D893"/>
<stop offset="0.5112" stop-color="#FFE79F"/>
<stop offset="0.6661" stop-color="#E2C07C"/>
<stop offset="1" stop-color="#A67033"/>
</linearGradient>
<linearGradient id="paint61_linear_501_2143" x1="0.000276033" y1="35.0273" x2="200.304" y2="35.0273" gradientUnits="userSpaceOnUse">
<stop stop-color="#8C6034"/>
<stop offset="0.1432" stop-color="#A9824F"/>
<stop offset="0.4583" stop-color="#F2D893"/>
<stop offset="0.5112" stop-color="#FFE79F"/>
<stop offset="0.6661" stop-color="#E2C07C"/>
<stop offset="1" stop-color="#A67033"/>
</linearGradient>
<linearGradient id="paint62_linear_501_2143" x1="0.000362543" y1="35.0274" x2="200.305" y2="35.0274" gradientUnits="userSpaceOnUse">
<stop stop-color="#8C6034"/>
<stop offset="0.1432" stop-color="#A9824F"/>
<stop offset="0.4583" stop-color="#F2D893"/>
<stop offset="0.5112" stop-color="#FFE79F"/>
<stop offset="0.6661" stop-color="#E2C07C"/>
<stop offset="1" stop-color="#A67033"/>
</linearGradient>
<linearGradient id="paint63_linear_501_2143" x1="-0.000157384" y1="35.0274" x2="200.305" y2="35.0274" gradientUnits="userSpaceOnUse">
<stop stop-color="#8C6034"/>
<stop offset="0.1432" stop-color="#A9824F"/>
<stop offset="0.4583" stop-color="#F2D893"/>
<stop offset="0.5112" stop-color="#FFE79F"/>
<stop offset="0.6661" stop-color="#E2C07C"/>
<stop offset="1" stop-color="#A67033"/>
</linearGradient>
</defs>
</svg>
