<svg width="155" height="29" viewBox="0 0 155 29" fill="none" xmlns="http://www.w3.org/2000/svg">
<path d="M0.792969 1H16.1035C18.0957 1 19.8242 1.09375 21.2891 1.28125C22.7539 1.45703 24.002 1.71484 25.0332 2.05469C26.0645 2.39453 26.9023 2.81055 27.5469 3.30273C28.2031 3.79492 28.7129 4.3457 29.0762 4.95508C29.4512 5.56445 29.7031 6.23242 29.832 6.95898C29.9727 7.68555 30.043 8.45898 30.043 9.2793C30.043 10.123 29.9609 10.9141 29.7969 11.6523C29.6445 12.3906 29.3574 13.0703 28.9355 13.6914C28.5137 14.3008 27.9277 14.8516 27.1777 15.3438C26.4395 15.8359 25.4844 16.252 24.3125 16.5918C23.1523 16.9199 21.7461 17.1777 20.0938 17.3652C18.4531 17.541 16.5195 17.6289 14.293 17.6289V19.9316L16.543 20.3711V28H0.792969V20.3711L3.04297 19.9316V9.06836L0.792969 8.62891V1ZM14.293 12.7949C14.9727 12.7949 15.5879 12.7598 16.1387 12.6895C16.7012 12.6191 17.1758 12.4727 17.5625 12.25C17.9609 12.0156 18.2656 11.6816 18.4766 11.248C18.6875 10.8145 18.793 10.2285 18.793 9.49023C18.793 8.77539 18.6875 8.20703 18.4766 7.78516C18.2656 7.35156 17.9609 7.02344 17.5625 6.80078C17.1758 6.57812 16.7012 6.43164 16.1387 6.36133C15.5879 6.29102 14.9727 6.25586 14.293 6.25586V12.7949ZM47.3926 28.3164C45.9629 28.3164 44.5801 28.2285 43.2441 28.0527C41.9199 27.877 40.6719 27.5488 39.5 27.0684C38.3398 26.5879 37.2793 25.9727 36.3184 25.2227C35.3574 24.4609 34.5312 23.5527 33.8398 22.498C33.1484 21.4316 32.6094 20.2129 32.2227 18.8418C31.8477 17.459 31.6602 15.9062 31.6602 14.1836C31.6602 12.5664 31.8477 11.1074 32.2227 9.80664C32.5977 8.50586 33.125 7.35156 33.8047 6.34375C34.4844 5.33594 35.2988 4.46875 36.248 3.74219C37.209 3.01563 38.2695 2.42383 39.4297 1.9668C40.6016 1.49805 41.8555 1.15234 43.1914 0.929688C44.5391 0.707031 45.9395 0.595703 47.3926 0.595703C48.8457 0.595703 50.2461 0.707031 51.5938 0.929688C52.9414 1.15234 54.2012 1.49805 55.373 1.9668C56.5449 2.43555 57.6055 3.0332 58.5547 3.75977C59.5156 4.48633 60.3359 5.35352 61.0156 6.36133C61.6953 7.36914 62.2227 8.52344 62.5977 9.82422C62.9727 11.1133 63.1602 12.5664 63.1602 14.1836C63.1602 16.7148 62.7441 18.8887 61.9121 20.7051C61.0918 22.5098 59.9668 23.9863 58.5371 25.1348C57.1074 26.2832 55.4375 27.1035 53.5273 27.5957C51.6172 28.0762 49.5723 28.3164 47.3926 28.3164ZM47.3926 8.62891C46.6426 8.62891 46.0098 8.72852 45.4941 8.92773C44.9902 9.11523 44.5684 9.36719 44.2285 9.68359C43.9004 10 43.6484 10.3574 43.4727 10.7559C43.2969 11.1543 43.1621 11.5586 43.0684 11.9688C42.9863 12.3789 42.9395 12.7773 42.9277 13.1641C42.916 13.5508 42.9102 13.8906 42.9102 14.1836C42.9102 14.4766 42.916 14.8164 42.9277 15.2031C42.9395 15.5898 42.9863 15.9941 43.0684 16.416C43.1621 16.8262 43.2969 17.2363 43.4727 17.6465C43.6484 18.0566 43.9004 18.4258 44.2285 18.7539C44.5684 19.0703 44.9902 19.3281 45.4941 19.5273C46.0098 19.7266 46.6426 19.8262 47.3926 19.8262C48.1426 19.8262 48.7695 19.7266 49.2734 19.5273C49.7891 19.3281 50.2168 19.0703 50.5566 18.7539C50.8965 18.4258 51.1543 18.0566 51.3301 17.6465C51.5176 17.2363 51.6523 16.8262 51.7344 16.416C51.8164 15.9941 51.8633 15.5898 51.875 15.2031C51.8984 14.8164 51.9102 14.4766 51.9102 14.1836C51.9102 13.8906 51.8984 13.5508 51.875 13.1641C51.8633 12.7773 51.8164 12.3789 51.7344 11.9688C51.6523 11.5586 51.5176 11.1543 51.3301 10.7559C51.1543 10.3574 50.8965 10 50.5566 9.68359C50.2168 9.36719 49.7891 9.11523 49.2734 8.92773C48.7695 8.72852 48.1426 8.62891 47.3926 8.62891ZM81.1426 28.3164C79.7129 28.3164 78.3301 28.2285 76.9941 28.0527C75.6699 27.877 74.4219 27.5488 73.25 27.0684C72.0898 26.5879 71.0293 25.9727 70.0684 25.2227C69.1074 24.4609 68.2812 23.5527 67.5898 22.498C66.8984 21.4316 66.3594 20.2129 65.9727 18.8418C65.5977 17.459 65.4102 15.9062 65.4102 14.1836C65.4102 12.5664 65.5977 11.1074 65.9727 9.80664C66.3477 8.50586 66.875 7.35156 67.5547 6.34375C68.2344 5.33594 69.0488 4.46875 69.998 3.74219C70.959 3.01563 72.0195 2.42383 73.1797 1.9668C74.3516 1.49805 75.6055 1.15234 76.9414 0.929688C78.2891 0.707031 79.6895 0.595703 81.1426 0.595703C82.5957 0.595703 83.9961 0.707031 85.3438 0.929688C86.6914 1.15234 87.9512 1.49805 89.123 1.9668C90.2949 2.43555 91.3555 3.0332 92.3047 3.75977C93.2656 4.48633 94.0859 5.35352 94.7656 6.36133C95.4453 7.36914 95.9727 8.52344 96.3477 9.82422C96.7227 11.1133 96.9102 12.5664 96.9102 14.1836C96.9102 16.7148 96.4941 18.8887 95.6621 20.7051C94.8418 22.5098 93.7168 23.9863 92.2871 25.1348C90.8574 26.2832 89.1875 27.1035 87.2773 27.5957C85.3672 28.0762 83.3223 28.3164 81.1426 28.3164ZM81.1426 8.62891C80.3926 8.62891 79.7598 8.72852 79.2441 8.92773C78.7402 9.11523 78.3184 9.36719 77.9785 9.68359C77.6504 10 77.3984 10.3574 77.2227 10.7559C77.0469 11.1543 76.9121 11.5586 76.8184 11.9688C76.7363 12.3789 76.6895 12.7773 76.6777 13.1641C76.666 13.5508 76.6602 13.8906 76.6602 14.1836C76.6602 14.4766 76.666 14.8164 76.6777 15.2031C76.6895 15.5898 76.7363 15.9941 76.8184 16.416C76.9121 16.8262 77.0469 17.2363 77.2227 17.6465C77.3984 18.0566 77.6504 18.4258 77.9785 18.7539C78.3184 19.0703 78.7402 19.3281 79.2441 19.5273C79.7598 19.7266 80.3926 19.8262 81.1426 19.8262C81.8926 19.8262 82.5195 19.7266 83.0234 19.5273C83.5391 19.3281 83.9668 19.0703 84.3066 18.7539C84.6465 18.4258 84.9043 18.0566 85.0801 17.6465C85.2676 17.2363 85.4023 16.8262 85.4844 16.416C85.5664 15.9941 85.6133 15.5898 85.625 15.2031C85.6484 14.8164 85.6602 14.4766 85.6602 14.1836C85.6602 13.8906 85.6484 13.5508 85.625 13.1641C85.6133 12.7773 85.5664 12.3789 85.4844 11.9688C85.4023 11.5586 85.2676 11.1543 85.0801 10.7559C84.9043 10.3574 84.6465 10 84.3066 9.68359C83.9668 9.36719 83.5391 9.11523 83.0234 8.92773C82.5195 8.72852 81.8926 8.62891 81.1426 8.62891ZM99.582 1H114.893C116.885 1 118.613 1.09375 120.078 1.28125C121.543 1.45703 122.791 1.71484 123.822 2.05469C124.854 2.39453 125.691 2.81055 126.336 3.30273C126.992 3.79492 127.502 4.3457 127.865 4.95508C128.24 5.56445 128.492 6.23242 128.621 6.95898C128.762 7.68555 128.832 8.45898 128.832 9.2793C128.832 10.123 128.75 10.9141 128.586 11.6523C128.434 12.3906 128.146 13.0703 127.725 13.6914C127.303 14.3008 126.717 14.8516 125.967 15.3438C125.229 15.8359 124.273 16.252 123.102 16.5918C121.941 16.9199 120.535 17.1777 118.883 17.3652C117.242 17.541 115.309 17.6289 113.082 17.6289V19.9316L115.332 20.3711V28H99.582V20.3711L101.832 19.9316V9.06836L99.582 8.62891V1ZM113.082 12.7949C113.762 12.7949 114.377 12.7598 114.928 12.6895C115.49 12.6191 115.965 12.4727 116.352 12.25C116.75 12.0156 117.055 11.6816 117.266 11.248C117.477 10.8145 117.582 10.2285 117.582 9.49023C117.582 8.77539 117.477 8.20703 117.266 7.78516C117.055 7.35156 116.75 7.02344 116.352 6.80078C115.965 6.57812 115.49 6.43164 114.928 6.36133C114.377 6.29102 113.762 6.25586 113.082 6.25586V12.7949ZM154.25 19.5273C154.238 20.6875 154.068 21.7188 153.74 22.6211C153.424 23.5117 152.979 24.2852 152.404 24.9414C151.83 25.5859 151.156 26.1367 150.383 26.5938C149.609 27.0391 148.777 27.4023 147.887 27.6836C146.996 27.9531 146.059 28.123 145.074 28.1934C144.102 28.2754 143.123 28.3164 142.139 28.3164C140.357 28.3164 138.793 28.2461 137.445 28.1055C136.672 28.0117 135.518 27.7539 133.982 27.332C132.729 26.9922 131.744 26.6348 131.029 26.2598V19.3164H136.32C136.93 20.1602 137.615 20.7812 138.377 21.1797C139.15 21.5781 139.941 21.7773 140.75 21.7773C140.961 21.7773 141.195 21.7598 141.453 21.7246C141.711 21.6895 141.951 21.5898 142.174 21.4258C142.408 21.2617 142.602 21.0039 142.754 20.6523C142.918 20.3008 143 19.8086 143 19.1758C141.992 19.082 140.99 18.9473 139.994 18.7715C139.01 18.5957 138.066 18.3555 137.164 18.0508C136.262 17.7461 135.418 17.3652 134.633 16.9082C133.859 16.4395 133.186 15.877 132.611 15.2207C132.049 14.5645 131.604 13.7969 131.275 12.918C130.959 12.0273 130.801 11.002 130.801 9.8418C130.801 8.59961 130.965 7.50977 131.293 6.57227C131.621 5.62305 132.066 4.80859 132.629 4.12891C133.203 3.4375 133.871 2.86914 134.633 2.42383C135.406 1.9668 136.232 1.60352 137.111 1.33398C138.002 1.06445 138.922 0.894531 139.871 0.824219C140.832 0.753906 141.787 0.71875 142.736 0.71875C144.119 0.71875 145.361 0.771484 146.463 0.876953C147.576 0.970703 148.578 1.12305 149.469 1.33398C150.359 1.54492 151.145 1.78516 151.824 2.05469C152.516 2.3125 153.131 2.56445 153.67 2.81055V9.66602H148.379C147.781 8.82227 147.113 8.20117 146.375 7.80273C145.648 7.4043 144.898 7.20508 144.125 7.20508C143.914 7.20508 143.674 7.23438 143.404 7.29297C143.135 7.33984 142.883 7.46289 142.648 7.66211C142.414 7.84961 142.215 8.13086 142.051 8.50586C141.887 8.86914 141.805 9.36719 141.805 10C143.855 10.0703 145.66 10.293 147.219 10.668C148.777 11.043 150.072 11.6113 151.104 12.373C152.146 13.123 152.932 14.0898 153.459 15.2734C153.986 16.4453 154.25 17.8633 154.25 19.5273Z" fill="#E9B48B"/>
</svg>
