<svg width="166" height="45" viewBox="0 0 166 45" fill="none" xmlns="http://www.w3.org/2000/svg">
<g clip-path="url(#clip0_67_2213)">
<path d="M22.4999 21.8658L13.9352 16.4965V22.9557L22.4999 28.325L43.0016 13.2163C42.2765 11.6171 41.3682 10.1177 40.3051 8.74341L22.4999 21.8658Z" fill="#69737D"/>
<path d="M44.9999 22.5C44.9999 21.1242 44.8764 19.7767 44.6396 18.4693L39.7959 22.0384C39.8004 22.1918 39.8019 22.3451 39.8019 22.5C39.8019 32.0399 32.0398 39.802 22.4999 39.802C12.96 39.802 5.19797 32.0399 5.19797 22.5C5.19797 12.9601 12.9585 5.19803 22.4999 5.19803C26.1152 5.19803 29.4758 6.31328 32.2543 8.21769L36.6304 4.99256C32.768 1.87016 27.8528 0 22.4999 0C10.0729 0 -6.10352e-05 10.073 -6.10352e-05 22.5C-6.10352e-05 34.927 10.0729 45 22.4999 45C34.927 45 44.9999 34.927 44.9999 22.5Z" fill="#69737D"/>
<path d="M131.058 13.4691L137.177 8.96045H116.703V36.0391H137.177V31.5304H122.546V24.5977H135.025V20.0891H122.546V13.4691H131.058Z" fill="#69737D"/>
<path d="M101.249 19.5158H94.1391V13.4691H105.49L111.606 8.96045H88.2964V36.0391H100.496C107.337 36.0391 111.262 32.939 111.262 27.5325C111.262 22.126 107.707 19.5158 101.249 19.5158ZM100.232 31.5304H94.1391V24.0245H100.232C103.941 24.0245 105.668 25.2797 105.668 27.7767C105.668 30.2737 103.84 31.5289 100.232 31.5289V31.5304Z" fill="#69737D"/>
<path d="M153.763 8.96216H142.616V36.0393H148.459V28.3695H153.763C160.876 28.3695 165.295 24.6292 165.295 18.6525C165.295 12.6757 160.876 8.96216 153.763 8.96216ZM153.638 23.8609H148.459V13.4693H153.638C157.381 13.4693 159.443 15.3142 159.443 18.6644C159.443 22.0146 157.381 23.8594 153.638 23.8594V23.8609Z" fill="#69737D"/>
<path d="M78.2681 30.1756C76.7702 31.002 75.0251 31.4397 73.2249 31.4397C67.9569 31.4397 64.1347 27.6801 64.1347 22.4999C64.1347 17.3197 67.9584 13.56 73.2249 13.56C75.2171 13.56 77.0039 14.1199 78.5391 15.2232L82.7291 12.1351L82.4521 11.8924C80.0057 9.74229 76.7359 8.6062 72.9986 8.6062C68.9441 8.6062 65.2633 9.97309 62.6367 12.4567C59.9938 14.9537 58.5391 18.4677 58.5391 22.351C58.5391 26.2343 59.9893 29.8182 62.6219 32.3912C65.2633 34.9731 68.9351 36.3951 72.9613 36.3951C76.9875 36.3951 80.8514 34.9269 83.344 32.2542C81.4202 30.8367 79.5635 29.4683 79.5635 29.4683L78.2696 30.1771L78.2681 30.1756Z" fill="#69737D"/>
</g>
<defs>
<clipPath id="clip0_67_2213">
<rect width="165.295" height="45" fill="white"/>
</clipPath>
</defs>
</svg>
