<svg width="294" height="45" viewBox="0 0 294 45" fill="none" xmlns="http://www.w3.org/2000/svg">
<g clip-path="url(#clip0_67_2288)">
<path fill-rule="evenodd" clip-rule="evenodd" d="M107.273 35.2463C110.776 35.2463 113.579 34.2742 115.781 32.3281C117.928 30.5764 119.337 28.3386 120.104 25.6148C120.845 22.9882 120.696 20.7494 119.562 18.9015C118.429 17.0526 116.173 16.0805 112.67 16.0805C109.167 16.0805 106.364 17.0526 104.189 18.9015C102.014 20.7494 100.605 22.9882 99.866 25.6148C99.099 28.3396 99.2477 30.5764 100.407 32.3281C101.515 34.2732 103.771 35.2463 107.273 35.2463ZM108.588 30.5764C107.518 30.5764 106.751 30.1875 106.442 29.2145C106.105 28.3396 106.142 27.1711 106.58 25.6148C106.991 24.1547 107.613 22.9882 108.47 22.0141C109.3 21.1393 110.285 20.7494 111.356 20.7494C112.426 20.7494 113.192 21.1383 113.53 22.0141C113.84 22.9882 113.802 24.1547 113.392 25.6148C112.953 27.1721 112.332 28.3396 111.502 29.2145C110.644 30.1866 109.659 30.5764 108.588 30.5764ZM281.356 29.6529C280.382 29.6529 279.811 29.264 279.544 28.4854C279.18 27.7077 279.161 26.7346 279.518 25.469C279.875 24.2033 280.468 23.135 281.243 22.4526C281.949 21.6739 282.809 21.3823 283.713 21.286C285.756 21.286 286.415 22.7452 285.717 25.5662C285.361 26.8309 284.795 27.8039 284.089 28.5826C283.19 29.3622 282.328 29.6529 281.356 29.6529ZM275.227 16.5189L268.405 40.7455H275.41L277.657 32.7665C278.387 34.3228 279.724 35.1015 281.475 35.1015C283.615 35.1015 285.753 34.42 287.943 32.8627C289.032 32.0156 289.976 30.9972 290.738 29.8473C291.527 28.777 292.159 27.2197 292.749 25.469C293.462 22.9396 293.41 20.7018 292.568 18.8529C291.728 17.004 289.957 16.0309 287.234 16.0309C286.163 16.0309 285.109 16.3225 283.901 16.8095C282.694 17.2956 281.668 18.1714 280.784 19.2417H280.686L281.453 16.5179L275.227 16.5189ZM269.454 27.2168C270.385 23.9078 270.374 21.184 269.101 19.1406C267.926 17.0963 265.599 16.027 262.292 16.027C259.471 16.027 256.889 16.9019 254.546 18.6536C252.107 20.4053 250.477 22.7403 249.6 25.8539C248.777 28.7722 249.093 31.1081 250.6 32.6635C251.983 34.318 254.1 35.0956 257.019 35.0956C259.159 35.0956 261.214 34.7068 263.31 33.8309C265.405 32.9561 267.108 31.3988 268.421 29.161H261.707C261.376 29.648 260.877 30.0368 260.308 30.3285C259.837 30.6201 259.226 30.7173 258.641 30.7173C257.668 30.7173 256.973 30.4257 256.483 29.7442C255.993 29.0638 255.921 28.2851 256.222 27.2149H269.454V27.2168ZM257.236 23.6162C257.811 21.5728 259.183 20.5016 261.351 20.4053C262.198 20.5025 262.895 20.7942 263.217 21.3784C263.637 21.9616 263.806 22.7403 263.559 23.6162H257.236ZM233.499 34.6903L237.143 21.7497H231.11L232.589 16.4956H251.659L250.181 21.7497H244.147L240.504 34.6903H233.499ZM230.193 23.4033C230.544 20.7767 230.022 18.8296 228.502 17.663C226.955 16.5918 224.979 16.0085 222.644 16.0085C219.627 16.0085 217.073 16.7872 214.731 18.5389C212.417 20.1934 210.759 22.6256 209.882 25.7382C209.032 28.7547 209.347 31.0896 210.829 32.7441C212.239 34.3005 214.327 35.1763 217.247 35.1763C219.679 35.1763 222.082 34.5921 224.161 33.4246C225.25 32.8141 226.229 32.0248 227.057 31.0896C227.914 30.1175 228.536 28.95 229.114 27.5872H222.107C221.818 28.2929 221.374 28.9245 220.808 29.4351C220.255 30.0194 219.492 30.311 218.616 30.311C217.546 30.311 216.877 29.9231 216.637 29.0463C216.37 28.2676 216.379 27.1974 216.791 25.7382C216.928 25.2522 217.189 24.668 217.452 24.0837C217.713 23.4995 217.975 22.9162 218.306 22.4302C218.638 21.9432 219.136 21.5543 219.608 21.2617C220.078 20.9701 220.621 20.7757 221.301 20.7757C222.079 20.7757 222.58 21.0673 222.833 21.5534C223.209 21.9422 223.213 22.6246 223.091 23.4023H230.193V23.4033ZM196.178 31.0877C194.621 31.0877 193.98 30.6007 194.255 29.6286C194.419 29.0443 194.75 28.5573 195.222 28.2657C195.693 27.9741 196.137 27.7796 196.748 27.6824C197.289 27.488 197.998 27.3908 198.61 27.2936C199.345 27.0982 199.984 26.9038 200.72 26.7094C200.46 27.9741 199.992 28.9471 199.26 29.823C198.429 30.6988 197.443 31.0877 196.178 31.0877ZM206.381 34.5901L206.464 34.2985C206.087 33.9097 206.001 33.5208 206.014 33.131C205.998 32.8394 206.011 32.4506 206.148 31.9635L208.532 23.4985C208.834 22.4273 209.107 21.4552 209.187 20.4821C209.333 19.6791 209.186 18.8503 208.774 18.1462C208.382 17.4657 207.643 16.9787 206.487 16.5898C205.333 16.201 203.732 16.0056 201.593 16.0056C198.285 16.0056 195.59 16.5898 193.76 17.5619C191.901 18.6332 190.782 20.1895 190.234 22.1347H197.142C197.555 21.357 197.984 20.87 198.553 20.5774C199.192 20.3839 199.609 20.2858 200.095 20.2858C200.581 20.2858 201.041 20.3839 201.57 20.5774C202.002 20.7728 202.184 21.1616 202.09 21.8431C201.773 22.6207 200.955 23.1087 199.636 23.3031C199.024 23.4004 198.316 23.4976 197.607 23.5948C196.801 23.691 195.997 23.7882 195.066 23.9836C194.288 23.9836 193.454 24.178 192.691 24.4697C191.858 24.6641 190.97 25.0539 190.277 25.4418C189.584 25.8296 188.932 26.4148 188.352 27.0963C187.771 27.7777 187.33 28.6536 187.029 29.7229C186.536 31.4746 186.833 32.8365 187.851 33.7123C188.745 34.6854 190.095 35.0743 191.748 35.0743C193.11 35.0743 194.305 34.977 195.388 34.5872C196.567 34.1984 197.733 33.5179 198.952 32.6421L198.793 34.5872H206.381V34.5901ZM145.988 34.6903L149.632 21.7497H143.502L144.982 16.4956H164.149L162.669 21.7497H156.54L152.896 34.6903H145.988ZM130.646 29.6529C129.674 29.6529 129.103 29.264 128.834 28.4854C128.47 27.7077 128.451 26.7346 128.808 25.469C129.164 24.2043 129.758 23.135 130.534 22.4526C131.239 21.6739 132.1 21.3823 133.003 21.286C135.046 21.286 135.705 22.7452 135.007 25.5662C134.651 26.8309 134.085 27.8039 133.379 28.5826C132.481 29.3622 131.619 29.6529 130.646 29.6529ZM124.519 16.5189L117.697 40.7455H124.703L126.95 32.7665C127.679 34.3228 129.016 35.1015 130.768 35.1015C132.908 35.1015 135.046 34.42 137.235 32.8627C138.324 32.0156 139.268 30.9972 140.03 29.8473C140.818 28.777 141.451 27.2197 142.042 25.469C142.755 22.9396 142.703 20.7018 141.862 18.8529C141.021 17.004 139.25 16.0309 136.527 16.0309C135.456 16.0309 134.402 16.3225 133.194 16.8095C131.987 17.2956 130.961 18.1714 130.076 19.2417H129.979L130.746 16.5179L124.519 16.5189ZM75.4897 34.6903H82.3984L86.0408 21.7497H91.5876L87.9432 34.6903H94.9491L100.072 16.4956H80.6126L75.4897 34.6903ZM76.5269 23.4033C76.8778 20.7767 76.3548 18.8296 74.8355 17.663C73.2888 16.5918 71.3126 16.0085 68.9766 16.0085C65.9602 16.0085 63.4075 16.7872 61.0647 18.5389C58.7511 20.1934 57.0928 22.6256 56.2159 25.7382C55.3673 28.7547 55.6822 31.0896 57.1618 32.7441C58.5723 34.3005 60.6613 35.1763 63.5795 35.1763C66.0117 35.1763 68.4148 34.5921 70.4941 33.4246C71.5832 32.8138 72.5621 32.0245 73.3899 31.0896C74.2473 30.1175 74.8685 28.95 75.4469 27.5872H68.441C68.1527 28.2931 67.7088 28.9248 67.1423 29.4351C66.5892 30.0194 65.8261 30.311 64.9502 30.311C63.8799 30.311 63.2111 29.9231 62.971 29.0463C62.7037 28.2676 62.7134 27.1974 63.1246 25.7382C63.2617 25.2522 63.5232 24.668 63.7856 24.0837C64.0471 23.4995 64.3086 22.9162 64.6401 22.4302C64.9716 21.9432 65.4703 21.5543 65.9417 21.2617C66.4132 20.9701 66.9547 20.7757 67.6361 20.7757C68.4138 20.7757 68.9154 21.0673 69.1681 21.5534C69.5443 21.9422 69.5472 22.6246 69.4257 23.4023H76.5269V23.4033Z" fill="#69737D"/>
<path fill-rule="evenodd" clip-rule="evenodd" d="M167.541 10.8418L172.325 33.1116L189.761 10.6931L175.862 20.4578L167.541 10.8418Z" fill="#69737D"/>
<path fill-rule="evenodd" clip-rule="evenodd" d="M166.101 16.5093L160.92 34.6428H169.889L166.101 16.5093ZM188.117 16.5093L174.268 34.6428H182.937L188.117 16.5093Z" fill="#69737D"/>
<path fill-rule="evenodd" clip-rule="evenodd" d="M54.6468 6.99707L37.708 26.2057L0.0684204 7.15844L35.6491 14.6601L54.6468 6.99707Z" fill="#69737D"/>
<path fill-rule="evenodd" clip-rule="evenodd" d="M3.45499 44.8535L23.3052 22.3427L67.417 44.6649L25.7179 35.8723L3.45499 44.8535ZM34.5348 0.0194633C31.2783 0.282901 28.8354 3.15545 29.0999 6.41391C29.3643 9.67238 32.2368 12.1143 35.4933 11.8499C38.7518 11.5864 41.1937 8.71389 40.9293 5.4564C40.6659 2.19793 37.7933 -0.243975 34.5348 0.0194633Z" fill="#69737D"/>
</g>
<defs>
<clipPath id="clip0_67_2288">
<rect width="293.296" height="45" fill="white"/>
</clipPath>
</defs>
</svg>
