<svg width="40" height="40" viewBox="0 0 40 40" fill="none" xmlns="http://www.w3.org/2000/svg">
<path d="M19.0978 22.9348L9.77516 33.7387C9.52816 34.0218 9.1815 34.1668 8.83283 34.1668C8.54116 34.1668 8.24833 34.0653 8.0115 33.8587C7.49133 33.4047 7.43766 32.6152 7.89166 32.095L17.511 20.9513L19.0978 22.9348ZM22.4892 19.0488L32.1085 7.90517C32.5625 7.385 32.5088 6.5955 31.9887 6.1415C31.4687 5.6875 30.6787 5.74117 30.225 6.26134L20.9023 17.0652L22.4892 19.0488Z" fill="#212121"/>
<path d="M33.4167 34.1666H26.9167C26.5368 34.1666 26.1778 33.994 25.9407 33.6975L5.60734 7.86412C5.30717 7.48896 5.24867 6.97479 5.45684 6.54179C5.66501 6.10879 6.10284 5.83329 6.58334 5.83329H13.0833C13.4632 5.83329 13.8222 6.00596 14.0593 6.30246L34.3927 32.1358C34.6928 32.511 34.7513 33.0251 34.5432 33.4581C34.335 33.8911 33.8972 34.1666 33.4167 34.1666ZM27.5175 31.6666H30.8158L12.4825 8.33329H9.18417L27.5175 31.6666Z" fill="#212121"/>
</svg>
