<svg width="271" height="33" viewBox="0 0 271 33" fill="none" xmlns="http://www.w3.org/2000/svg">
<mask id="mask0_67_2265" style="mask-type:luminance" maskUnits="userSpaceOnUse" x="0" y="0" width="271" height="33">
<path d="M270.827 0.257812H0.00102806V32.7423H270.827V0.257812Z" fill="white"/>
</mask>
<g mask="url(#mask0_67_2265)">
<mask id="mask1_67_2265" style="mask-type:luminance" maskUnits="userSpaceOnUse" x="0" y="0" width="271" height="33">
<path d="M270.829 0.257812H0.00104809V32.7423H270.829V0.257812Z" fill="white"/>
</mask>
<g mask="url(#mask1_67_2265)">
<path d="M55.8933 15.0102C55.2082 15.6265 53.3569 16.52 51.1354 16.52C49.9072 16.52 49.0026 16.2362 48.3574 15.6952C47.3952 14.886 47.1691 13.8085 47.1691 12.1723V6.10864H43.072V13.1279C43.072 16.0655 44.2492 17.9633 46.3177 19.2935C47.5105 20.0606 49.0337 20.422 50.7341 20.422C53.3569 20.422 55.3612 19.4199 55.8933 19.0186V27.7228H59.9926V6.10864H55.8933V15.0102Z" fill="#69737D"/>
<path d="M185.24 20.7169C184.796 22.7433 184.105 23.4395 183.271 23.8208C182.679 24.06 182.045 24.1805 181.407 24.1755C181.407 24.1755 181.429 25.8804 181.469 27.9445C183.242 27.9667 184.916 27.643 186.071 26.856C187.342 25.9869 188.45 24.6677 189.055 21.9274C189.661 19.1871 189.958 15.6952 190.199 9.95525H196.576V27.7605H200.688V6.10864H186.326C186.189 11.485 185.98 17.3846 185.24 20.7169Z" fill="#69737D"/>
<path d="M221.785 27.7606V14.62C221.805 11.4673 220.898 9.31456 219.482 7.92446C218.016 6.49002 216.01 5.61206 213.028 5.61206C207.76 5.61206 204.738 8.93766 204.86 13.0703L208.906 13.0459C208.964 10.6714 210.352 9.27687 213.159 9.27687C215.965 9.27687 217.693 10.7579 217.695 14.4049C217.695 14.4049 213.613 14.334 210.653 15.0523C206.292 16.1099 203.92 18.338 203.92 21.9696C203.92 25.6499 206.603 28.2572 210.88 28.2572C214.052 28.2572 216.229 27.06 217.917 25.2331C218.002 26.0814 218.134 26.9244 218.311 27.7583H221.796M217.673 17.6485V18.7349C217.673 22.5992 214.15 24.6434 211.687 24.6434C209.443 24.6434 208.226 23.5038 208.226 21.8122C208.226 20.3046 209.39 18.8657 212.374 18.1341C214.221 17.6906 216.192 17.6485 217.681 17.6485" fill="#69737D"/>
<path d="M126.438 6.10864H122.263V27.7228H126.438V6.10864Z" fill="#69737D"/>
<path d="M101.731 6.11084H84.5173V9.9508H91.0377V27.7206H91.0754H95.1725H95.2125V9.9508H101.731V6.11084Z" fill="#69737D"/>
<path d="M226.018 27.7339H230.115V9.9353H239.518V27.7339H243.615V6.10864H226.018V27.7339Z" fill="#69737D"/>
<path d="M113.054 13.1279H108.268V6.10864H104.168V27.7228H105.991H113.054C117.067 27.7228 120.149 24.344 120.149 20.3644C120.149 16.4313 117.007 13.1212 113.054 13.1212M112.509 23.8341H108.268V16.9612H112.509C113.42 16.9612 114.294 17.3232 114.939 17.9677C115.583 18.6122 115.945 19.4862 115.945 20.3976C115.945 21.309 115.583 22.1831 114.939 22.8276C114.294 23.472 113.42 23.8341 112.509 23.8341Z" fill="#69737D"/>
<path d="M270.829 6.10864H266.654V27.7228H270.829V6.10864Z" fill="#69737D"/>
<path d="M257.445 13.1279H252.656V6.10864H248.559V27.7228H250.379H257.445C261.456 27.7228 264.54 24.344 264.54 20.3644C264.54 16.4313 261.398 13.1212 257.445 13.1212M256.897 23.8341H252.656V16.9612H256.897C257.809 16.9612 258.683 17.3232 259.327 17.9677C259.972 18.6122 260.334 19.4862 260.334 20.3976C260.334 21.309 259.972 22.1831 259.327 22.8276C258.683 23.472 257.809 23.8341 256.897 23.8341Z" fill="#69737D"/>
<path d="M139.896 6.10864H133.081H131.249V27.7228H135.347V22.3198H139.896C140.97 22.3289 142.036 22.1255 143.031 21.7214C144.026 21.3173 144.932 20.7204 145.696 19.965C146.459 19.2097 147.066 18.3108 147.481 17.32C147.897 16.3293 148.112 15.2663 148.115 14.1921C148.115 9.66038 144.428 6.10864 139.896 6.10864ZM139.732 18.4488H135.355V9.96634H139.685C140.801 9.97101 141.87 10.4163 142.659 11.2053C143.448 11.9943 143.893 13.063 143.898 14.1788C143.898 16.4734 142.053 18.4511 139.741 18.4511" fill="#69737D"/>
<path d="M160.475 5.71834C159.104 5.68306 157.741 5.92113 156.463 6.41864C155.186 6.91616 154.02 7.66316 153.034 8.61605C150.977 10.6469 149.709 13.3827 149.709 16.9256C149.709 23.4926 154.336 28.1351 160.641 28.1351C162.338 28.1349 164.012 27.7379 165.528 26.9757C167.045 26.2135 168.362 25.1072 169.374 23.7453L166.142 21.3642C164.851 23.1024 162.943 24.2464 160.641 24.2464C157.158 24.2464 154.46 21.6945 154.176 18.9032H171.217C171.248 18.3268 171.294 17.8102 171.294 17.1695C171.294 14.1365 170.392 11.1524 168.412 8.9996C166.346 6.76701 163.481 5.72721 160.49 5.70947M154.112 15.0389C154.205 13.5668 156.196 9.62481 160.464 9.62481C162.014 9.58825 163.524 10.1178 164.712 11.1143C165.9 12.1108 166.684 13.506 166.918 15.0389H154.112Z" fill="#69737D"/>
<path d="M74.0008 5.71834C72.6304 5.68331 71.2666 5.92149 69.9892 6.41899C68.7117 6.9165 67.5461 7.66337 66.5603 8.61605C64.5029 10.6469 63.2347 13.3827 63.2347 16.9256C63.2347 23.4926 67.8618 28.1351 74.1649 28.1351C75.8623 28.1349 77.5362 27.7379 79.0529 26.9757C80.5696 26.2135 81.8871 25.1073 82.9001 23.7453L79.6676 21.3642C78.3751 23.1024 76.4684 24.2464 74.1649 24.2464C70.6841 24.2464 67.9837 21.6945 67.7021 18.9032H84.7359C84.7669 18.3268 84.8157 17.8102 84.8157 17.1695C84.8157 14.1365 83.9133 11.1524 81.9224 8.9996C79.8561 6.76701 76.9916 5.72721 74.0008 5.70947M67.6201 15.0478C67.7132 13.5756 69.7019 9.63368 73.9698 9.63368C75.5201 9.59705 77.0307 10.1265 78.219 11.123C79.4073 12.1195 80.1918 13.5147 80.4259 15.0478H67.6201Z" fill="#69737D"/>
<path d="M32.4858 0.257812H16.2436V32.7423H32.4858V0.257812Z" fill="white"/>
<path d="M16.2433 0.257812H0.00104809V32.7423H16.2433V0.257812Z" fill="#919191"/>
<path d="M21.4096 18.5928C21.3885 18.5758 21.3743 18.5518 21.3695 18.5252C21.3646 18.4986 21.3695 18.4711 21.3832 18.4478C21.3969 18.4245 21.4185 18.4068 21.444 18.398C21.4696 18.3892 21.4975 18.3899 21.5226 18.4C22.2853 18.6771 24.0124 19.6415 25.6065 20.6325C25.6809 20.6796 25.7646 20.7099 25.8519 20.7214C25.9392 20.7329 26.0279 20.7253 26.112 20.6991C26.3007 20.6337 26.4774 20.5378 26.6352 20.4153C26.821 20.2706 26.9643 20.0783 27.0498 19.8588C27.089 19.7543 27.099 19.641 27.0787 19.5313C27.0584 19.4215 27.0085 19.3194 26.9345 19.2358C25.7328 17.8523 24.1521 16.9433 22.8662 16.2028C22.7414 16.149 22.636 16.0582 22.5644 15.9427C22.4928 15.8271 22.4582 15.6924 22.4655 15.5567C22.4727 15.4209 22.5214 15.2907 22.6049 15.1834C22.6885 15.0762 22.8029 14.9971 22.9327 14.9569C23.2586 14.8438 24.0412 14.7351 24.9569 14.5556C26.8347 14.2075 27.4466 12.8329 27.4311 11.0238C27.4288 10.9628 27.4145 10.9029 27.3889 10.8475C27.3633 10.7922 27.327 10.7424 27.282 10.7012C27.2371 10.6599 27.1844 10.628 27.127 10.6073C27.0696 10.5865 27.0087 10.5774 26.9478 10.5804C26.0078 10.5981 25.1741 10.689 24.458 10.6424C23.467 10.5781 23.0258 10.3165 22.4915 9.1304C22.0813 8.21254 21.6645 7.53412 21.3386 7.27029C21.2957 7.2346 21.2447 7.20997 21.1901 7.19857C21.1355 7.18716 21.0789 7.18931 21.0253 7.20485C20.9717 7.22038 20.9227 7.24882 20.8826 7.28767C20.8425 7.32652 20.8126 7.3746 20.7954 7.4277C20.6912 7.80903 20.7223 9.00625 20.7223 9.00625C20.7223 9.00625 20.1458 7.89772 19.7601 7.31906C19.7223 7.26344 19.6688 7.22029 19.6065 7.19511C19.5442 7.16992 19.4757 7.16383 19.4099 7.17761C19.3441 7.19139 19.2839 7.22442 19.2369 7.2725C19.1899 7.32058 19.1582 7.38154 19.1459 7.44765C19.0794 7.85781 19.0661 8.71138 19.0196 9.82878C19.013 10.7291 18.8634 11.6227 18.5762 12.476C18.4218 12.9606 18.1302 13.3901 17.7367 13.7124C17.3432 14.0347 16.8647 14.2359 16.3591 14.2917C14.9773 14.467 13.5765 14.4221 12.2087 14.1587C10.9982 13.8483 9.5793 12.793 8.88314 11.2765C8.86471 11.2391 8.83533 11.2081 8.79891 11.1877C8.76249 11.1673 8.72073 11.1584 8.67916 11.1623C8.63758 11.1661 8.59816 11.1825 8.5661 11.2092C8.53403 11.236 8.51084 11.2718 8.49959 11.312C8.19363 12.3474 8.51289 13.9725 9.38641 15.0655C8.19363 15.9523 5.32031 17.992 4.26499 20.2889C4.22707 20.3715 4.20969 20.4619 4.21432 20.5527C4.21896 20.6434 4.24547 20.7317 4.2916 20.8099C4.39818 21.0035 4.54456 21.1724 4.7211 21.3054C4.89765 21.4384 5.10035 21.5325 5.31588 21.5815C5.39866 21.5992 5.48442 21.5974 5.56639 21.5762C5.64835 21.555 5.72427 21.5151 5.78812 21.4595C7.11836 20.351 9.03834 18.7813 10.0005 18.4399C10.026 18.4293 10.0544 18.4285 10.0805 18.4374C10.1066 18.4464 10.1285 18.4645 10.1421 18.4885C10.1557 18.5124 10.1601 18.5406 10.1544 18.5675C10.1488 18.5945 10.1335 18.6185 10.1114 18.635C9.44628 19.1427 7.45092 20.4596 5.94775 23.1556C5.90371 23.2347 5.87896 23.3232 5.8755 23.4137C5.87203 23.5042 5.88994 23.5943 5.92779 23.6766C6.03058 23.884 6.18287 24.063 6.3712 24.1976C6.50853 24.3045 6.65723 24.396 6.81462 24.4703C6.9219 24.518 7.04095 24.5327 7.15662 24.5126C7.27229 24.4924 7.37936 24.4384 7.46422 24.3572C8.88314 22.9915 9.82983 22.0537 11.8873 21.1114C13.4237 20.464 16.1174 20.0938 18.5917 20.7368C20.6469 21.2688 22.1212 22.1246 24.3206 23.7808C24.394 23.8369 24.4797 23.875 24.5706 23.8919C24.6614 23.9089 24.755 23.9042 24.8438 23.8783C25.0767 23.8196 25.2919 23.7055 25.4712 23.5458C25.6027 23.4157 25.7134 23.2661 25.7994 23.1024C25.851 23.0068 25.8751 22.8987 25.8688 22.7903C25.8625 22.6818 25.8262 22.5772 25.7639 22.4882C24.5689 20.7545 22.5558 19.309 21.4073 18.5685" fill="#69737D"/>
</g>
</g>
</svg>
