<svg width="47" height="47" viewBox="0 0 47 47" fill="none" xmlns="http://www.w3.org/2000/svg">
<g clip-path="url(#clip0_83_5435)">
<path d="M0 23.5C0 36.4788 10.5213 47 23.5 47C36.4788 47 47 36.4788 47 23.5C47 10.5213 36.4788 0 23.5 0C10.5213 0 0 10.5213 0 23.5Z" fill="url(#paint0_linear_83_5435)"/>
<path d="M34.6625 17.7718C34.3687 16.7437 33.6344 16.0093 32.6063 15.7155C30.8438 15.2749 23.3531 15.2749 23.3531 15.2749C23.3531 15.2749 16.0094 15.2749 14.1 15.7155C13.0719 16.0093 12.3375 16.7437 12.0437 17.7718C11.75 19.6812 11.75 23.4999 11.75 23.4999C11.75 23.4999 11.75 27.3187 12.1906 29.228C12.4844 30.2562 13.2187 30.9905 14.2469 31.2843C16.0094 31.7249 23.5 31.7249 23.5 31.7249C23.5 31.7249 30.8437 31.7249 32.7531 31.2843C33.7812 30.9905 34.5156 30.2562 34.8094 29.228C35.25 27.3187 35.25 23.4999 35.25 23.4999C35.25 23.4999 35.25 19.6812 34.6625 17.7718ZM21.15 27.0249V19.9749L27.3188 23.4999L21.15 27.0249Z" fill="white"/>
</g>
<defs>
<linearGradient id="paint0_linear_83_5435" x1="3.50177e-07" y1="23.5" x2="47" y2="23.5" gradientUnits="userSpaceOnUse">
<stop stop-color="#FF6D18"/>
<stop offset="1" stop-color="#FFAE05"/>
</linearGradient>
<clipPath id="clip0_83_5435">
<rect width="47" height="47" fill="white"/>
</clipPath>
</defs>
</svg>
