<svg width="145" height="32" viewBox="0 0 145 32" fill="none" xmlns="http://www.w3.org/2000/svg">
<path d="M127.39 16.0922C127.39 12.1672 124.399 8.99219 120.175 8.99219C116.034 8.99219 113.086 12.0452 113.086 16.2402C113.086 20.4562 116.118 23.5302 120.468 23.5302C123.228 23.5302 125.549 22.3042 126.992 19.8122L124.065 18.4622C123.375 19.7082 121.869 20.5182 120.468 20.5182C118.691 20.5182 116.641 19.1892 116.516 17.3412H127.285C127.354 16.9283 127.389 16.5106 127.39 16.0922ZM116.578 14.8922C116.83 13.0232 118.126 11.7982 120.196 11.7982C122.245 11.7982 123.5 12.9982 123.667 14.8922H116.578Z" fill="black"/>
<path d="M87.0803 8.98926C82.835 8.98926 79.8242 12.0223 79.8242 16.3003C79.8242 20.5363 82.835 23.5273 87.1226 23.5273C91.4303 23.5273 94.441 20.5363 94.441 16.3623C94.441 12.0633 91.3467 8.98926 87.0803 8.98926ZM87.1226 20.3493C84.9888 20.3493 83.6718 18.7713 83.6718 16.3203C83.6718 13.8283 85.01 12.1253 87.1226 12.1253C89.2553 12.1253 90.5935 13.8073 90.5935 16.3203C90.5935 18.7923 89.2764 20.3493 87.1226 20.3493Z" fill="black"/>
<path d="M71.9642 8.99341C70.2252 8.99341 68.9152 9.58341 67.6051 11.0464H67.1752C66.2951 9.72541 64.8592 8.99341 63.2481 8.99341C62.4437 8.98559 61.6489 9.16765 60.9292 9.52458C60.2095 9.8815 59.5855 10.4031 59.1085 11.0464H58.6786L58.6574 11.0264V9.27841H55.0586V23.2224H58.9474V16.0464C58.9474 13.7294 59.9302 12.3674 61.6289 12.3674C63.2048 12.3674 64.2278 13.5264 64.2278 15.2944V23.2224H68.1368V16.0464C68.1368 13.7464 69.1196 12.3674 70.8394 12.3674C72.3941 12.3674 73.3971 13.5264 73.3971 15.3154V23.2224H77.307V14.8474C77.307 11.2094 75.3415 8.99341 71.9642 8.99341Z" fill="black"/>
<path d="M136.038 18.3864H135.76C135.76 18.1384 134.064 13.7224 132.953 10.9864L132.258 9.27539H128.34L133.898 23.2684L131.708 28.6004H135.599L143.603 9.28039H139.683L139.044 10.7434L136.876 16.0704C136.264 17.5584 136.014 18.2484 136.038 18.3864Z" fill="black"/>
<path d="M105.226 8.99316C103.486 8.99316 101.991 9.74516 100.988 11.0872H100.579L100.538 11.0672V9.27816H96.9375V23.2222H100.826V16.0872C100.826 13.8112 101.934 12.3872 103.754 12.3872C105.452 12.3872 106.701 13.6472 106.701 15.6392V23.2212H110.59V14.8072C110.59 11.3922 108.338 8.99316 105.226 8.99316Z" fill="black"/>
<path d="M28.6457 1C20.2437 1 13.4922 7.75 13.4922 16C13.4922 24.318 20.3102 31 28.6437 31C36.9772 31 43.8012 24.25 43.8012 16C43.8012 7.75 36.9792 1 28.6457 1ZM28.6457 21.591C25.5463 21.591 22.9987 19.068 22.9987 16C22.9987 12.932 25.5463 10.409 28.6457 10.409C31.7451 10.409 34.2936 12.932 34.2936 16C34.2242 19.068 31.7451 21.591 28.6457 21.591Z" fill="#8B3FFD"/>
<path d="M13.4948 5.3584V27.1764H8.12578L1.23828 5.3584H13.4948Z" fill="#8B3FFD"/>
</svg>
