<svg width="62" height="62" viewBox="0 0 62 62" fill="none" xmlns="http://www.w3.org/2000/svg">
<g id="Group">
<path id="path130" d="M61.62 30.8099C61.62 47.8299 47.82 61.62 30.81 61.62C13.8 61.62 0 47.8199 0 30.8099C0 13.7899 13.8 0 30.81 0C47.82 0 61.62 13.7899 61.62 30.8099Z" fill="#132237"/>
<g id="g132">
<path id="path134" d="M41.6135 16.5021V44.6121L31.1335 37.4921C31.0335 37.4321 30.9235 37.3921 30.8135 37.3921C30.6935 37.3921 30.5835 37.4221 30.4935 37.4921L20.0135 44.6121V16.5021H41.6135ZM42.1835 15.3521H19.4235C19.1035 15.3521 18.8535 15.6121 18.8535 15.9221V45.692C18.8535 45.902 18.9735 46.102 19.1635 46.202C19.2435 46.242 19.3435 46.2721 19.4335 46.2721C19.5435 46.2721 19.6635 46.2421 19.7535 46.1721L30.8135 38.6621L41.8735 46.1721C42.0435 46.2921 42.2835 46.302 42.4635 46.202C42.6535 46.102 42.7735 45.912 42.7735 45.692V15.9221C42.7635 15.6121 42.5035 15.3521 42.1835 15.3521Z" fill="#FFE79F"/>
</g>
</g>
</svg>
