<svg width="50" height="50" viewBox="0 0 50 50" fill="none" xmlns="http://www.w3.org/2000/svg">
<g id="Group 107">
<circle id="Ellipse 3" cx="25" cy="25" r="25" fill="#D9D9D9"/>
<path id="Vector" d="M27.12 17L28.95 19H33V31H17V19H21.05L22.88 17H27.12ZM28 15H22L20.17 17H17C15.9 17 15 17.9 15 19V31C15 32.1 15.9 33 17 33H33C34.1 33 35 32.1 35 31V19C35 17.9 34.1 17 33 17H29.83L28 15ZM25 22C26.65 22 28 23.35 28 25C28 26.65 26.65 28 25 28C23.35 28 22 26.65 22 25C22 23.35 23.35 22 25 22ZM25 20C22.24 20 20 22.24 20 25C20 27.76 22.24 30 25 30C27.76 30 30 27.76 30 25C30 22.24 27.76 20 25 20Z" fill="white"/>
</g>
</svg>
