<svg width="19" height="20" viewBox="0 0 19 20" fill="none" xmlns="http://www.w3.org/2000/svg">
<path d="M17.8105 0H1.13684C0.835333 0 0.546173 0.137459 0.332973 0.382139C0.119774 0.626819 0 0.958676 0 1.30471V15.2216C0 15.5676 0.119774 15.8995 0.332973 16.1441C0.546173 16.3888 0.835333 16.5263 1.13684 16.5263H6.77084C6.83626 16.5262 6.90057 16.5457 6.95752 16.5826C7.01446 16.6196 7.0621 16.6728 7.09579 16.7372L8.49695 19.3684C8.59806 19.5611 8.74087 19.7205 8.91151 19.8312C9.08216 19.9418 9.27484 20 9.47084 20C9.66685 20 9.85953 19.9418 10.0302 19.8312C10.2008 19.7205 10.3436 19.5611 10.4447 19.3684L11.8497 16.7307C11.8834 16.6663 11.931 16.6131 11.988 16.5761C12.0449 16.5391 12.1092 16.5197 12.1746 16.5197H17.8105C18.112 16.5197 18.4012 16.3823 18.6144 16.1376C18.8276 15.8929 18.9474 15.5611 18.9474 15.215V1.30471C18.9474 0.958676 18.8276 0.626819 18.6144 0.382139C18.4012 0.137459 18.112 0 17.8105 0ZM18.1895 15.2216C18.1895 15.3369 18.1495 15.4475 18.0785 15.5291C18.0074 15.6106 17.911 15.6565 17.8105 15.6565H12.1765C11.9808 15.6565 11.7883 15.7146 11.6179 15.8251C11.4474 15.9356 11.3047 16.0947 11.2036 16.2871L9.79863 18.9248C9.76508 18.9897 9.71739 19.0434 9.66025 19.0808C9.60311 19.1181 9.53849 19.1377 9.47274 19.1377C9.40698 19.1377 9.34236 19.1181 9.28522 19.0808C9.22809 19.0434 9.1804 18.9897 9.14684 18.9248L7.74474 16.2914C7.64398 16.0981 7.50132 15.938 7.33066 15.8267C7.15999 15.7155 6.96713 15.6568 6.77084 15.6565H1.13684C1.03634 15.6565 0.939952 15.6106 0.868886 15.5291C0.79782 15.4475 0.757895 15.3369 0.757895 15.2216V1.30471C0.757895 1.18936 0.79782 1.07874 0.868886 0.997184C0.939952 0.915624 1.03634 0.869804 1.13684 0.869804H17.8105C17.911 0.869804 18.0074 0.915624 18.0785 0.997184C18.1495 1.07874 18.1895 1.18936 18.1895 1.30471V15.2216ZM12.8842 6.52353C12.8842 6.63887 12.8443 6.74949 12.7732 6.83105C12.7022 6.91261 12.6058 6.95843 12.5053 6.95843H6.44211C6.3416 6.95843 6.24522 6.91261 6.17415 6.83105C6.10308 6.74949 6.06316 6.63887 6.06316 6.52353C6.06316 6.40818 6.10308 6.29756 6.17415 6.21601C6.24522 6.13445 6.3416 6.08863 6.44211 6.08863H12.5053C12.6058 6.08863 12.7022 6.13445 12.7732 6.21601C12.8443 6.29756 12.8842 6.40818 12.8842 6.52353ZM12.8842 10.0027C12.8842 10.1181 12.8443 10.2287 12.7732 10.3103C12.7022 10.3918 12.6058 10.4376 12.5053 10.4376H6.44211C6.3416 10.4376 6.24522 10.3918 6.17415 10.3103C6.10308 10.2287 6.06316 10.1181 6.06316 10.0027C6.06316 9.8874 6.10308 9.77678 6.17415 9.69522C6.24522 9.61366 6.3416 9.56784 6.44211 9.56784H12.5053C12.6058 9.56784 12.7022 9.61366 12.7732 9.69522C12.8443 9.77678 12.8842 9.8874 12.8842 10.0027Z" fill="#FFE79F"/>
</svg>
