<svg width="34" height="34" viewBox="0 0 34 34" fill="none" xmlns="http://www.w3.org/2000/svg">
<path d="M33.8154 16.8175C33.9174 26.1056 26.4715 33.7177 17.1846 33.8196C7.89764 33.9215 0.286505 26.4747 0.184569 17.1866C0.082633 7.89857 7.5285 0.286477 16.8155 0.184553C26.1024 0.0826296 33.7135 7.52947 33.8154 16.8175Z" fill="#132237"/>
<path d="M17.4999 16.4315C20.1716 16.4315 22.3452 18.5609 22.3452 21.1781V24.3587H12.6547V21.1781C12.6547 18.5609 14.8283 16.4315 17.4999 16.4315ZM17.3984 15.7902C15.3862 15.7902 13.7494 14.1866 13.7494 12.2156C13.7494 10.2447 15.3862 8.64133 17.3984 8.64133C19.4102 8.64133 21.047 10.2447 21.047 12.2156C21.047 14.1866 19.4102 15.7902 17.3984 15.7902ZM19.179 16.049C20.6646 15.3838 21.7016 13.9176 21.7016 12.2156C21.7016 9.89098 19.7712 8 17.3984 8C15.0254 8 13.0948 9.89098 13.0948 12.2156C13.0948 13.9515 14.172 15.445 15.7055 16.0905C13.5525 16.8216 12 18.8232 12 21.1781V24.6793C12 24.856 12.1469 25 12.3273 25H22.6726C22.853 25 23 24.856 23 24.6793V21.1781C23 18.7808 21.3926 16.7462 19.179 16.049Z" fill="#F3F1EF"/>
</svg>
