<svg width="16" height="7" viewBox="0 0 16 7" fill="none" xmlns="http://www.w3.org/2000/svg">
<path id="Vector" opacity="0.6" d="M7.72476e-05 1.15871C-0.00050354 1.30813 0.0371752 1.45577 0.110344 1.59077C0.183513 1.72578 0.290311 1.84472 0.422894 1.93885L7.27939 6.76972C7.48387 6.91683 7.74035 6.99725 8.00504 6.99725C8.26973 6.99725 8.52621 6.91683 8.73068 6.76972L15.5872 1.76882C15.7027 1.68476 15.7982 1.5816 15.8682 1.46524C15.9382 1.34887 15.9814 1.22158 15.9952 1.09062C16.009 0.95967 15.9932 0.82762 15.9486 0.702013C15.9041 0.576407 15.8318 0.459703 15.7357 0.358568C15.6397 0.257432 15.5218 0.173843 15.3889 0.112575C15.2559 0.0513058 15.1105 0.0135565 14.9609 0.00148296C14.8112 -0.010591 14.6604 0.00324678 14.5169 0.0422063C14.3734 0.0811658 14.24 0.144483 14.1245 0.228544L7.99932 4.69935L1.87419 0.378572C1.70645 0.256267 1.50219 0.178576 1.28558 0.154692C1.06898 0.130808 0.849086 0.16173 0.65193 0.243801C0.454774 0.325871 0.288606 0.455655 0.173084 0.617795C0.0575638 0.779934 -0.00247383 0.967644 7.72476e-05 1.15871Z" fill="#3E3E3E"/>
</svg>
