<svg width="568" height="254" viewBox="0 0 568 254" fill="none" xmlns="http://www.w3.org/2000/svg">
<g opacity="0.83" filter="url(#filter0_f_121_1473)">
<path d="M99.7435 84.3052C288.51 83.5244 279.49 84.3979 468.257 85.1786C474.501 85.205 480.461 89.336 481.295 94.4029C484.902 116.425 484.902 138.448 481.295 160.471C480.461 165.538 474.501 169.668 468.257 169.695C279.49 170.476 288.51 169.602 99.7435 168.821C93.4998 168.795 87.5391 164.664 86.706 159.598C83.098 137.574 83.098 115.552 86.706 93.5295C87.5391 88.4626 93.4998 84.3316 99.7435 84.3052Z" fill="#E3D0B7"/>
</g>
<g filter="url(#filter1_ii_121_1473)">
<path d="M99.7435 88.3052C288.51 87.5244 279.49 88.3979 468.257 89.1786C474.501 89.205 480.461 93.336 481.295 98.4029C484.902 120.425 484.902 142.448 481.295 164.471C480.461 169.538 474.501 173.668 468.257 173.695C279.49 174.476 288.51 173.602 99.7435 172.821C93.4998 172.795 87.5391 168.664 86.706 163.598C83.098 141.574 83.098 119.552 86.706 97.5295C87.5391 92.4626 93.4998 88.3316 99.7435 88.3052Z" fill="url(#paint0_linear_121_1473)"/>
<path d="M99.7435 88.3052C288.51 87.5244 279.49 88.3979 468.257 89.1786C474.501 89.205 480.461 93.336 481.295 98.4029C484.902 120.425 484.902 142.448 481.295 164.471C480.461 169.538 474.501 173.668 468.257 173.695C279.49 174.476 288.51 173.602 99.7435 172.821C93.4998 172.795 87.5391 168.664 86.706 163.598C83.098 141.574 83.098 119.552 86.706 97.5295C87.5391 92.4626 93.4998 88.3316 99.7435 88.3052Z" fill="black" fill-opacity="0.3"/>
</g>
<g filter="url(#filter2_ii_121_1473)">
<path d="M99.7435 84.3052C288.51 83.5244 279.49 84.3979 468.257 85.1786C474.501 85.205 480.461 89.336 481.295 94.4029C484.902 116.425 484.902 138.448 481.295 160.471C480.461 165.538 474.501 169.668 468.257 169.695C279.49 170.476 288.51 169.602 99.7435 168.821C93.4998 168.795 87.5391 164.664 86.706 159.597C83.098 137.574 83.098 115.552 86.706 93.5295C87.5391 88.4626 93.4998 84.3316 99.7435 84.3052Z" fill="url(#paint1_linear_121_1473)"/>
</g>
<defs>
<filter id="filter0_f_121_1473" x="0" y="0" width="568" height="254" filterUnits="userSpaceOnUse" color-interpolation-filters="sRGB">
<feFlood flood-opacity="0" result="BackgroundImageFix"/>
<feBlend mode="normal" in="SourceGraphic" in2="BackgroundImageFix" result="shape"/>
<feGaussianBlur stdDeviation="42" result="effect1_foregroundBlur_121_1473"/>
</filter>
<filter id="filter1_ii_121_1473" x="81" y="87" width="408" height="93" filterUnits="userSpaceOnUse" color-interpolation-filters="sRGB">
<feFlood flood-opacity="0" result="BackgroundImageFix"/>
<feBlend mode="normal" in="SourceGraphic" in2="BackgroundImageFix" result="shape"/>
<feColorMatrix in="SourceAlpha" type="matrix" values="0 0 0 0 0 0 0 0 0 0 0 0 0 0 0 0 0 0 127 0" result="hardAlpha"/>
<feOffset dx="-3" dy="-1"/>
<feGaussianBlur stdDeviation="2.5"/>
<feComposite in2="hardAlpha" operator="arithmetic" k2="-1" k3="1"/>
<feColorMatrix type="matrix" values="0 0 0 0 1 0 0 0 0 1 0 0 0 0 1 0 0 0 0.15 0"/>
<feBlend mode="normal" in2="shape" result="effect1_innerShadow_121_1473"/>
<feColorMatrix in="SourceAlpha" type="matrix" values="0 0 0 0 0 0 0 0 0 0 0 0 0 0 0 0 0 0 127 0" result="hardAlpha"/>
<feOffset dx="5" dy="6"/>
<feGaussianBlur stdDeviation="3"/>
<feComposite in2="hardAlpha" operator="arithmetic" k2="-1" k3="1"/>
<feColorMatrix type="matrix" values="0 0 0 0 1 0 0 0 0 1 0 0 0 0 1 0 0 0 0.1 0"/>
<feBlend mode="normal" in2="effect1_innerShadow_121_1473" result="effect2_innerShadow_121_1473"/>
</filter>
<filter id="filter2_ii_121_1473" x="79" y="82" width="411" height="94" filterUnits="userSpaceOnUse" color-interpolation-filters="sRGB">
<feFlood flood-opacity="0" result="BackgroundImageFix"/>
<feBlend mode="normal" in="SourceGraphic" in2="BackgroundImageFix" result="shape"/>
<feColorMatrix in="SourceAlpha" type="matrix" values="0 0 0 0 0 0 0 0 0 0 0 0 0 0 0 0 0 0 127 0" result="hardAlpha"/>
<feOffset dx="-5" dy="-2"/>
<feGaussianBlur stdDeviation="3"/>
<feComposite in2="hardAlpha" operator="arithmetic" k2="-1" k3="1"/>
<feColorMatrix type="matrix" values="0 0 0 0 1 0 0 0 0 1 0 0 0 0 1 0 0 0 0.15 0"/>
<feBlend mode="normal" in2="shape" result="effect1_innerShadow_121_1473"/>
<feColorMatrix in="SourceAlpha" type="matrix" values="0 0 0 0 0 0 0 0 0 0 0 0 0 0 0 0 0 0 127 0" result="hardAlpha"/>
<feOffset dx="6" dy="6"/>
<feGaussianBlur stdDeviation="3"/>
<feComposite in2="hardAlpha" operator="arithmetic" k2="-1" k3="1"/>
<feColorMatrix type="matrix" values="0 0 0 0 1 0 0 0 0 1 0 0 0 0 1 0 0 0 0.1 0"/>
<feBlend mode="normal" in2="effect1_innerShadow_121_1473" result="effect2_innerShadow_121_1473"/>
</filter>
<linearGradient id="paint0_linear_121_1473" x1="516.98" y1="4.55084" x2="200.181" y2="278.886" gradientUnits="userSpaceOnUse">
<stop stop-color="#D5BC9F"/>
<stop offset="0.602112" stop-color="#E3D0B7"/>
<stop offset="0.973998" stop-color="#D5BC9F"/>
</linearGradient>
<linearGradient id="paint1_linear_121_1473" x1="516.98" y1="0.550852" x2="200.181" y2="274.886" gradientUnits="userSpaceOnUse">
<stop stop-color="#D5BC9F"/>
<stop offset="0.602112" stop-color="#E3D0B7"/>
<stop offset="0.973998" stop-color="#D5BC9F"/>
</linearGradient>
</defs>
</svg>
