<svg width="30" height="30" viewBox="0 0 30 30" fill="none" xmlns="http://www.w3.org/2000/svg">
<circle cx="15" cy="15" r="15" fill="#326BB1"/>
<path d="M22.3281 7.96094C24.1328 9.76562 25.25 12.1289 25.25 14.707C25.25 19.9492 20.8672 24.2461 15.582 24.2461C13.9922 24.2461 12.4453 23.8164 11.0273 23.0859L6 24.375L7.33203 19.4336C6.51562 18.0156 6.04297 16.3828 6.04297 14.6641C6.04297 9.42188 10.3398 5.125 15.582 5.125C18.1602 5.125 20.5664 6.15625 22.3281 7.96094ZM15.582 22.6133C19.9648 22.6133 23.6172 19.0469 23.6172 14.707C23.6172 12.5586 22.7148 10.582 21.2109 9.07812C19.707 7.57422 17.7305 6.75781 15.625 6.75781C11.2422 6.75781 7.67578 10.3242 7.67578 14.6641C7.67578 16.168 8.10547 17.6289 8.87891 18.918L9.09375 19.2188L8.27734 22.1406L11.2852 21.3242L11.543 21.4961C12.7891 22.2266 14.1641 22.6133 15.582 22.6133ZM19.9648 16.6836C20.1797 16.8125 20.3516 16.8555 20.3945 16.9844C20.4805 17.0703 20.4805 17.543 20.2656 18.1016C20.0508 18.6602 19.1055 19.1758 18.6758 19.2188C17.9023 19.3477 17.3008 19.3047 15.7969 18.6172C13.3906 17.5859 11.8438 15.1797 11.7148 15.0508C11.5859 14.8789 10.7695 13.7617 10.7695 12.5586C10.7695 11.3984 11.3711 10.8398 11.5859 10.582C11.8008 10.3242 12.0586 10.2812 12.2305 10.2812C12.3594 10.2812 12.5312 10.2812 12.6602 10.2812C12.832 10.2812 13.0039 10.2383 13.2188 10.7109C13.3906 11.1836 13.9062 12.3438 13.9492 12.4727C13.9922 12.6016 14.0352 12.7305 13.9492 12.9023C13.5195 13.8047 13.0039 13.7617 13.2617 14.1914C14.207 15.7812 15.1094 16.3398 16.5273 17.0273C16.7422 17.1562 16.8711 17.1133 17.043 16.9844C17.1719 16.8125 17.6445 16.2539 17.7734 16.0391C17.9453 15.7812 18.1172 15.8242 18.332 15.9102C18.5469 15.9961 19.707 16.5547 19.9648 16.6836Z" fill="#FDFCF9"/>
</svg>
