<svg width="51" height="43" viewBox="0 0 51 43" fill="none" xmlns="http://www.w3.org/2000/svg">
<path id="Vector" d="M3.76725 6.10219e-05C3.23062 0.00310085 2.70076 0.118233 2.21276 0.337835C1.72476 0.557437 1.28975 0.876499 0.93653 1.2739C0.583307 1.6713 0.319929 2.13797 0.163834 2.64302C0.00773903 3.14806 -0.0375125 3.67996 0.0310754 4.20351C2.36254 21.9771 2.36254 21.023 0.0310754 38.7966C-0.0538697 39.445 0.0361084 40.1041 0.291975 40.7076C0.547842 41.311 0.960594 41.8376 1.4888 42.2346C2.017 42.6315 2.64206 42.8848 3.30124 42.969C3.96041 43.0532 4.6305 42.9653 5.24424 42.7142L48.6678 24.9406C49.3585 24.6577 49.9485 24.18 50.3635 23.5677C50.7785 22.9554 51 22.2359 51 21.5C51 20.7641 50.7785 20.0447 50.3635 19.4324C49.9485 18.8201 49.3585 18.3424 48.6678 18.0594L5.24424 0.285872C4.7763 0.0943964 4.27406 -0.00279158 3.76725 6.10219e-05Z" fill="#132237"/>
</svg>
