<svg width="16" height="17" viewBox="0 0 16 17" fill="none" xmlns="http://www.w3.org/2000/svg">
<g id="Group">
<path id="Vector" d="M15.3426 8.11701L8.54254 0.137029C8.40254 -0.0329714 8.15262 -0.0430105 7.99262 0.0969895C7.82262 0.23699 7.80258 0.487038 7.95258 0.647038L14.5226 8.357L7.95258 15.637C7.80258 15.797 7.82261 16.0471 7.98261 16.1971C8.05261 16.2671 8.15262 16.2969 8.24262 16.2969C8.35262 16.2969 8.45266 16.2571 8.53266 16.1671L15.3326 8.62702C15.4726 8.48702 15.4726 8.26701 15.3426 8.11701Z" fill="#132237"/>
<path id="Vector_2" d="M0.882509 0.137029C0.742509 -0.0329714 0.49246 -0.0430105 0.33246 0.0969895C0.16246 0.23699 0.152421 0.487038 0.292421 0.647038L6.86249 8.357L0.292421 15.637C0.142421 15.797 0.16245 16.0471 0.32245 16.1971C0.39245 16.2671 0.49246 16.2969 0.58246 16.2969C0.69246 16.2969 0.792499 16.2571 0.872499 16.1671L7.67243 8.62702C7.80243 8.47702 7.81244 8.257 7.68244 8.107L0.882509 0.137029Z" fill="#132237"/>
</g>
</svg>
